<svg width="216" height="156" viewBox="0 0 216 156" fill="none" xmlns="http://www.w3.org/2000/svg">
<g id="abwheel">
<path id="Vector" d="M62.3511 146.961C53.5127 131.262 47.7065 115.433 46.1631 98.2675C45.7212 93.351 43.45 92.0943 39.1301 92.1708C32.4705 92.2888 25.8062 92.2233 19.145 92.1291C15.8472 92.0824 12.4707 92.7338 8.61279 90.7826C8.04053 83.7349 11.8062 82.8936 17.8198 84.4806C23.0461 84.6145 27.5264 84.7946 32.7246 85.4292C37.2092 86.5752 40.9482 87.7835 45.54 85.8721C48.6973 85.2152 51.1602 85.1901 54.3423 85.3406C58.3357 86.1796 61.5842 85.4357 64.8389 85.1735C69.5901 84.7909 74.4927 84.3487 74.2598 77.8042C73.9968 70.4204 68.5371 72.2647 63.3882 72.4743C62.168 72.5501 61.6726 72.5581 60.4253 72.5291C58.1433 72.3648 56.6184 72.1715 54.2739 72.1707C42.3406 71.8468 31.2029 72.433 19.2729 71.6726C14.2578 70.8473 9.91211 71.1675 5.09326 69.4328C4.09717 68.6181 3.80176 68.1823 3.65967 66.9773C5.77002 61.5105 9.85864 61.5635 13.9067 61.8415C17.8845 62.1146 21.8428 62.6951 25.845 62.4855C34.7456 62.0192 43.5918 61.546 44.2607 49.3809C44.3499 47.7647 45.8784 46.5309 47.4963 44.7166C52.9224 28.8541 59.7043 14.7222 73.3027 4.25442C77.5364 2.50246 81.2749 3.40432 85.5464 3.88271C87.0156 8.68081 83.3076 9.46059 80.8474 10.1457C68.4294 13.6038 62.4175 23.2431 57.0198 34.4104C55.812 36.4629 54.8987 37.9052 55.0439 40.199C55.0085 40.626 54.8875 41.2195 54.9072 40.9119C55.2871 39.3043 55.0161 37.8731 56.1543 36.0832C58.0269 31.0797 60.4067 27.1028 63.1545 23.3999C74.0232 8.7538 88.3418 10.1432 97.207 27.3755C96.9407 29.1107 96.4165 29.9188 94.8804 30.6242C93.7095 30.637 93.2476 30.5457 92.1479 30.1795C91.124 29.6643 90.7378 29.4241 89.3052 28.3631C87.9246 27.2661 87.5901 26.99 86.2803 25.8919C81.0061 21.9181 78.5608 25.0993 75.6128 28.2813C75.0471 29.0996 74.8435 29.4375 74.3022 30.2448C73.7319 31.007 73.4985 31.2998 72.5781 32.4231C71.4639 33.7941 71.0469 34.3424 70.3906 35.3369C69.9763 36.0664 69.8145 36.3604 69.418 37.0999C68.8762 38.1488 68.5718 38.7541 68.0649 39.8452C67.7207 40.662 67.5811 40.9936 67.231 41.8333C66.5886 43.4024 66.1418 44.4574 65.5688 46.1251C64.3479 49.979 63.8328 53.4129 61.9609 56.9822C61.4785 58.1179 61.1387 58.6255 60.6926 58.9982C61.2576 58.6465 61.6411 58.1481 62.1882 56.9317C78.6594 36.6216 89.3018 48.8471 95.0688 64.1531C99.8784 76.9168 95.4634 88.7648 91.4119 100.548C90.1934 104.091 86.9092 106.179 82.0115 105.541C76.2422 100.454 75.5103 96.0625 80.1794 89.7937C87.3044 80.2276 81.0542 70.6272 79.5916 63.6942C83.4475 66.289 81.6091 73.3205 82.9812 79.4452C84.8862 87.9478 78.9363 92.0246 72.2134 96.2945C75.0659 98.5824 78.033 100.579 80.1101 104.297C76.4966 111.312 70.9939 107.397 65.3501 106.658C64.0405 105.853 63.4897 105.142 62.7866 104.71C61.6584 104.018 63.3411 104.655 62.0342 104.919C60.7273 105.183 61.3748 106.294 62.0083 105.121C62.0408 105.061 62.3242 105.083 63.3481 105.632C67.4363 112.704 71.7319 119.09 70.647 127.774C61.5029 130.526 62.4592 123.563 61.0063 118.072C60.5271 116.876 60.165 116.358 59.791 115.923C60.1208 116.287 60.3823 116.631 60.8281 117.544C55.9412 129.147 67.8735 144.747 81.5359 144.989C86.5657 145.078 91.3672 144.083 96.8506 142.757C98.9297 142.885 100.156 143.488 101.924 144.459C104.135 146.012 105.859 146.957 108.606 145.916C110.46 145.241 111.752 144.946 113.77 144.784C117.33 145.008 119.573 147.206 123.23 147.384C125.568 147.826 126.958 148.554 128.416 150.503C128.511 151.845 128.308 152.388 127.415 153.487C106.125 155.207 85.5005 157.553 64.3916 152.035C63.0415 150.3 62.5842 149.149 62.3511 146.961Z" fill="#4A271A"/>
<path id="Vector_2" d="M129.525 1.70791C131.462 4.38455 135.175 3.92947 135.961 7.62015C124.053 11.8722 123.886 11.9615 130.513 24.3344C135.23 33.1421 139.124 42.2517 142.377 53.1181C141.309 43.3227 135.97 36.3203 135.028 27.2918C135.618 26.2115 135.973 25.843 137.074 25.2418C144.468 25.6109 146.08 31.0273 147.876 35.9397C161.481 73.1527 157.004 107.585 131.693 138.68C128.977 142.017 126.834 145.818 123.018 149.302C119.185 150.564 116.742 149.227 114.147 146.355C112.912 141.073 116.545 137.871 118.612 133.281C135.019 94.9123 136.538 57.4547 116.167 20.7216C110.833 11.1039 102.262 7.2814 94.344 10.2853C90.3208 12.1819 87.7705 11.0895 86.0195 7.18899C83.1428 3.03433 79.1462 4.65652 74.771 4.14993C85.905 0.760648 97.8928 -2.77255 109.986 3.30289C112.498 4.56509 114.261 3.52737 116.436 2.80789C120.449 1.47977 124.497 -0.241549 129.525 1.70791Z" fill="#553222"/>
<path id="Vector_3" d="M47.1753 44.2083C47.26 49.3706 46.386 54.5869 45.8291 59.837C45.4798 63.1318 43.7881 64.3857 40.6736 64.5745C31.4785 65.1313 22.3311 67.6055 13.0752 64.6499C10.1055 63.7015 7.1597 64.649 4.31278 67.3999C3.59134 68.3123 3.31937 68.6396 2.54056 68.5789C2.1392 64.4285 3.78739 61.0867 5.17997 57.743C6.48246 54.6157 8.80497 51.3154 12.1888 51.1588C23.9744 50.613 34.6328 44.8491 47.1753 44.2083Z" fill="#A67750"/>
<path id="Vector_4" d="M1.90283 68.602C2.03369 68.1905 2.95166 68.1074 3.40747 68.0461C3.86328 67.9847 4.00439 68.1369 4.07666 68.2116C8.43042 73.1117 8.64185 78.3213 4.85864 84.5639C3.48071 84.0726 2.86133 82.8539 2.12988 80.9474C0.391845 77.4962 1.34424 74.4818 1.42187 70.7242C1.6709 69.8716 1.77197 69.0136 1.90283 68.602Z" fill="#4A271A"/>
<path id="Vector_5" d="M1.16787 70.4442C1.82022 72.756 1.96988 75.6404 2.06875 79.3922C2.01773 80.2596 1.18472 80.2108 0.769437 80.1729C-0.222751 77.0723 -0.419039 74.0227 1.16787 70.4442Z" fill="#78563C"/>
<path id="Vector_6" d="M4.15758 85.8181C4.13781 80.2292 4.17516 75.1672 4.18077 69.1958C7.8214 67.5663 11.5018 65.9903 15.8566 68.5405C18.9234 70.9638 19.5018 73.9723 20.1241 77.7693C20.3329 81.7721 19.5321 84.6819 16.6549 87.6021C13.0062 84.5021 10.8815 87.4187 8.27062 89.7956C6.19835 89.4393 4.84801 88.2317 4.15758 85.8181Z" fill="#78563C"/>
<path id="Vector_7" d="M176.379 149.42C170.915 149.85 166.015 149.85 159.769 149.85C162.962 144.089 165.355 139.481 168.014 135.033C174.087 124.87 177.676 113.954 179.005 102.177C180.034 93.0521 180.268 93.0655 189.187 93.1945C191.182 93.2233 193.176 93.3778 196.135 93.7842C191.514 110.473 185.87 126.832 180.411 143.253C179.657 145.522 179.211 147.739 176.379 149.42Z" fill="#EFC589"/>
<path id="Vector_8" d="M70.4695 129.823C68.3789 120.425 62.7449 113.974 62.0894 105.01C67.7688 104.614 73.4556 104.972 79.608 104.779C86.5633 104.345 89.7991 101.074 90.2256 94.6771C90.3335 93.06 90.6683 91.3563 91.3389 89.8945C97.8194 75.7749 93.1331 63.6257 84.6409 52.2553C80.6275 46.8818 76.0025 46.6749 71.6246 52.2152C68.7671 55.8311 65.1114 57.6489 60.7325 59.9629C59.5889 54.9548 60.8167 49.9967 63.3316 44.6132C65.4866 43.7406 64.993 42.2457 65.6795 40.6931C66.0196 40.1749 66.0977 40.228 66.0535 40.2153C66.9707 39.4071 67.0784 38.2314 67.6946 36.6635C68.0171 36.1882 68.0962 36.2375 68.0572 36.2142C68.9832 35.3972 69.0779 34.2164 69.7022 32.6524C70.0242 32.177 70.095 32.2205 70.0621 32.2069C70.5298 31.8038 70.9949 31.3757 71.7315 30.547C72.0384 30.185 72.0704 30.2271 72.0452 30.2019C75.7261 25.3001 79.3184 20.1782 87.4632 23.7561C88.1724 24.1657 88.1394 24.2424 88.1348 24.203C88.5281 24.6696 88.9637 25.1411 89.8033 25.8903C90.1702 26.2026 90.0962 26.2393 90.1133 26.2016C90.5293 26.6706 90.9659 27.1429 91.8069 27.8938C92.1744 28.2068 92.0848 28.2019 92.1226 28.1768C93.0442 29.4721 93.7496 30.9483 95.813 31.9994C96.6773 32.5453 97 32.8023 97.7564 33.5053C98.6954 34.6196 99.233 35.2612 100.245 36.3442C101.535 37.8221 102.251 38.9221 103.208 40.6657C103.638 41.7006 103.771 42.1302 103.984 43.2285C103.161 48.3767 97.4297 52.5333 103.442 58.1034C103.982 59.6825 104.112 60.6331 104.077 62.3347C102.909 65.77 103.427 69.181 101.076 71.2624C98.2437 73.7705 97.6871 71.5957 97.4168 70.4527C100.522 78.2137 98.1905 87.6593 99.72 97.5805C100.133 98.796 100.304 99.2862 100.632 100.549C101.523 112.466 96.6575 121.797 90.4507 130.301C84.4793 138.482 78.8177 138.43 70.4695 129.823Z" fill="#624333"/>
<path id="Vector_9" d="M135.651 25.82C140.065 34.2968 143.846 42.3698 145.451 51.2824C145.858 53.5382 146.272 55.7461 145.376 58.3527C142.137 55.5503 138.68 53.6362 137.583 49.3499C133.918 35.0184 126.166 22.5437 119.317 9.66102C119.054 9.16725 119.283 8.41188 119.283 7.32692C124.444 5.07106 129.474 6.28431 135.28 8.15187C136.065 8.26564 136.092 8.24098 136.081 8.25379C142.007 12.7595 147.044 18.1434 152.032 24.6511C163.36 52.5177 166.179 80.4815 158.836 108.907C155.364 122.346 150.131 135.379 138.711 145.676C138.078 146.209 138.096 146.234 138.082 146.23C136.359 150.023 133.164 150.539 128.81 150.006C126.672 149.94 125.257 149.964 123.144 149.933C121.816 145.56 123.685 142.11 126.422 139.081C153.872 108.709 157.964 74.2268 144.536 36.6361C143.103 32.6253 142.32 28.1874 136.961 26.2034C135.042 24.9667 134.327 23.4262 132.621 21.9981C131.856 21.4514 131.538 21.2609 130.799 20.7205C130.063 20.1875 129.747 20.0043 129.912 20.1038C130.686 20.6271 130.979 20.8676 131.761 21.4153C133.542 22.6882 134.555 23.8943 135.651 25.82Z" fill="#724D33"/>
<path id="Vector_10" d="M85.325 6.39819C88.0161 8.43262 90.2922 9.79736 94.52 10.4758C112.495 24.7521 116.273 44.4238 118.484 64.1633C120.781 84.6642 119.092 105.147 112.07 124.845C111.086 127.603 110.224 130.594 106.542 132.49C105.184 132.743 104.621 132.705 103.451 132.078C99.7476 126.193 102.242 120.723 103.691 116.056C110.193 95.1064 108.479 74.3108 104.154 53.4197C103.476 50.1462 103.883 46.7947 102.555 42.8755C102.114 42.1748 102.081 42.2472 102.121 42.249C100.956 38.8328 98.7847 35.9391 96.5825 31.5465C95.0154 24.1393 90.4558 20.8015 85.5759 18.0815C79.405 14.6422 73.8733 15.7783 68.5781 20.6843C63.9282 24.9923 60.6494 30.2809 56.6506 35.8486C60.0542 20.9634 67.0984 8.62097 85.325 6.39819Z" fill="#73543E"/>
<path id="Vector_11" d="M60.0649 116.828C64.0525 119.417 63.8208 125.632 69.3633 128.208C70.0413 128.278 70.0876 128.244 70.0713 128.256C75.8384 139.187 82.3706 139.989 89.917 130.187C95.4531 122.996 98.6362 114.508 100.002 105.573C101.4 96.4241 103.924 87.402 103.295 77.9635C103.087 74.8335 103.205 71.2211 108.149 70.0598C113.182 91.4988 105.65 111.22 100.615 131.819C100.185 133.118 98.9744 133.542 99.6619 134.113C100.21 132.8 101.042 132.169 102.728 131.746C103.391 131.718 103.925 132.115 104.19 132.315C105.88 134.12 105.576 135.913 104.741 138.366C103.942 139.775 103.33 140.46 101.98 141.341C95.1296 147.495 87.7263 148.678 79.3564 148.612C71.3264 148.55 65.999 145.66 62.4214 138.778C58.7451 131.707 56.0193 124.317 54.1177 116.349C57.1331 116.543 56.8235 119.837 58.6621 120.136C60.6677 120.463 59.7229 118.395 60.0649 116.828Z" fill="#73543E"/>
<path id="Vector_12" d="M18.684 79.0797C15.4281 76.1084 15.7665 73.1453 16.4025 69.426C28.9938 68.6887 41.422 68.6806 54.7589 68.7063C56.7697 68.9906 57.8698 69.2498 59.5682 69.3181C60.4821 69.473 60.8312 69.6287 61.7369 69.9221C64.8029 74.4639 62.4979 77.3717 58.3241 80.3659C44.7108 82.7045 32.0009 84.1195 18.684 79.0797Z" fill="#D5B282"/>
<path id="Vector_13" d="M17.8345 79.2078C30.7424 78.4735 43.5796 78.4371 57.3613 78.502C61.0766 81.9635 59.9912 85.0512 56.978 88.6149C53.5486 89.0416 50.7788 88.9026 47.1763 88.7222C42.8115 89.6794 39.2148 89.1185 34.8232 88.7598C28.6423 88.3453 23.28 88.299 17.0249 88.2109C15.82 85.2457 17.02 82.6207 17.8345 79.2078Z" fill="#9F7450"/>
<path id="Vector_14" d="M56.9161 89.4412C55.8273 85.9253 57.9938 83.2148 58.2433 79.3508C60.4469 76.6741 61.7208 74.3052 62.1236 70.7342C63.1962 69.6405 64.0597 69.0009 65.0065 68.835C76.5668 66.808 80.7394 71.5138 77.4435 82.7158C76.3805 86.329 74.3397 88.5092 70.3251 88.3035C65.9825 88.0809 61.7233 88.6779 56.9161 89.4412Z" fill="#78563C"/>
<path id="Vector_15" d="M80.0929 104.225C76.4667 101.88 72.988 99.3035 68.2001 100.143C66.4684 100.446 64.8102 99.5031 64.6423 97.5165C64.4865 95.6714 65.7941 94.4663 67.3735 93.7333C68.5683 93.1788 69.8478 92.7958 71.1081 92.3944C79.1745 89.8252 81.7245 86.0728 80.8886 77.8827C80.7201 76.2335 80.3874 74.6018 80.1791 72.9561C79.1747 65.0172 79.1679 65.0054 71.0593 64.3903C69.4299 64.2667 67.7104 64.658 66.0895 63.4521C66.0068 60.0432 68.7526 60.244 70.8105 60.2601C74.5312 60.2893 77.4557 59.9929 76.4853 55.0096C76.2902 54.0079 77.3468 53.2806 78.4416 53.2813C79.9999 53.2821 81.07 54.4491 81.2839 55.6624C82.318 61.5327 83.1303 67.4426 83.976 73.3451C84.2114 74.9886 83.8981 76.8218 84.5168 78.2794C86.7372 83.511 85.9626 87.8547 81.85 91.8993C78.7663 94.9319 77.8315 98.7097 79.9941 103.534C80.0734 104.23 80.0961 104.238 80.0929 104.225Z" fill="#674834"/>
<path id="Vector_16" d="M101.209 142.526C101.72 141.086 102.08 140.527 102.316 139.654C107.423 135.086 108.787 128.136 114.107 123.37C119.342 125.476 121.054 129.183 120.644 134.623C120.71 140.063 116.401 141.762 113.89 145.383C112.657 146.517 111.774 147.094 110.479 148.004C107.391 149.9 104.485 149.03 100.883 148.788C100.416 146.767 100.737 145.087 101.209 142.526Z" fill="#AC8964"/>
<path id="Vector_17" d="M87.8213 23.5523C82.2686 23.3563 77.3198 25.1733 72.6648 29.8736C76.5159 20.1036 79.2913 18.8035 87.8213 23.5523Z" fill="#73543E"/>
<path id="Vector_18" d="M52.0235 53.9019C52.0187 57.5463 55.6583 60.9644 50.725 64.4102C48.923 60.2417 50.7047 56.6352 50.6451 53.1425C50.6422 52.9788 51.0885 52.6309 51.1883 52.6757C51.4649 52.7997 51.6693 53.0859 52.0235 53.9019Z" fill="#73543E"/>
<path id="Vector_19" d="M34.5757 88.8407C37.5349 88.376 41.0649 88.3603 45.4692 88.5127C42.7244 90.9708 38.96 90.5774 34.5757 88.8407Z" fill="#78563C"/>
<path id="Vector_20" d="M88.3145 70.315C86.2278 70.3364 85.8948 70.0046 86.087 68.5082C86.2403 67.3195 86.1473 65.4464 88.0645 66.2617C89.5601 66.8977 88.8228 68.5389 88.3145 70.315Z" fill="#674834"/>
<path id="Vector_21" d="M59.3855 97.9184C57.923 97.1922 58.1472 95.964 58.4919 94.753C58.5573 94.5232 59.1135 94.1899 59.1701 94.2363C60.33 95.19 60.038 96.4203 59.3855 97.9184Z" fill="#624333"/>
<path id="Vector_22" d="M96.6387 33.5171C94.0442 33.3094 92.6382 31.8129 92.2061 28.8023C93.1338 28.7173 94.1069 29.2826 95.603 30.0633C96.1255 30.2787 96.0938 30.2328 96.0784 30.2101C96.8281 30.9281 97.1567 31.8282 96.6387 33.5171Z" fill="#73543E"/>
<path id="Vector_23" d="M53.6641 42.6199C54.4038 42.7764 54.4666 43.0995 54.3796 43.3755C54.0327 44.4785 53.6387 45.5668 53.262 46.6605C51.5168 45.5059 52.3391 44.1245 53.6641 42.6199Z" fill="#73543E"/>
<path id="Vector_24" d="M65.543 40.5049C65.7114 41.6842 67.126 43.7343 64.2168 44.2979C64.2158 42.9681 64.6411 41.9014 65.543 40.5049Z" fill="#73543E"/>
<path id="Vector_25" d="M56.3296 36.4453C56.1069 38.2421 55.7146 39.8977 54.8662 42.0142C54.4099 42.475 54.0803 42.2096 53.9146 42.0698C54.1414 40.2755 54.5342 38.6211 55.3716 36.4968C55.8164 36.0272 56.1599 36.3043 56.3296 36.4453Z" fill="#73543E"/>
<path id="Vector_26" d="M58.0931 111.682C57.9127 111.998 57.6405 111.843 57.4545 111.618C56.6959 110.699 56.0372 109.738 56.9357 108.55C57.007 108.456 57.5199 108.523 57.5341 108.584C57.7323 109.442 57.8805 110.312 58.0931 111.682Z" fill="#73543E"/>
<path id="Vector_27" d="M69.5377 32.5181C69.6808 33.287 69.3373 34.3971 68.506 35.849C68.3627 35.0803 68.7069 33.9698 69.5377 32.5181Z" fill="#73543E"/>
<path id="Vector_28" d="M67.5166 36.5134C67.6736 37.2985 67.3304 38.4088 66.4981 39.8608C66.345 39.0814 66.6805 37.96 67.5166 36.5134Z" fill="#73543E"/>
<path id="Vector_29" d="M60.1138 116.227C58.9822 115.618 58.4487 114.607 58.1909 112.783C58.1455 112.185 58.1035 112.229 58.0791 112.245C59.1697 112.882 59.7297 113.874 60.0061 115.685C60.0562 116.28 60.0925 116.242 60.1138 116.227Z" fill="#73543E"/>
<path id="Vector_30" d="M59.6401 69.002C58.9751 69.3516 57.8166 69.3857 56.1631 69.0799C56.8276 68.7221 57.9873 68.7043 59.6401 69.002Z" fill="#78563C"/>
<path id="Vector_31" d="M88.625 78.3118C89.9343 77.7904 88.5474 76.8723 89.3345 77.9203C89.8606 78.6209 89.3926 79.0269 88.625 78.3118Z" fill="#674834"/>
<path id="Vector_32" d="M89.9614 25.7461C89.5249 25.9775 88.998 25.5909 88.3596 24.6032C88.6709 24.5389 89.2119 24.9143 89.9614 25.7461Z" fill="#73543E"/>
<path id="Vector_33" d="M91.9636 27.7506C91.5276 27.9814 90.9995 27.5941 90.3604 26.6044C90.6709 26.5407 91.2119 26.9176 91.9636 27.7506Z" fill="#73543E"/>
<path id="Vector_34" d="M71.5689 30.3612C71.8274 30.8285 71.4502 31.3519 70.4678 31.9744C70.3857 31.6412 70.7424 31.0892 71.5689 30.3612Z" fill="#73543E"/>
<path id="Vector_35" d="M60.0977 60.24C60.0991 60.2424 59.6069 61.0336 59.6069 61.0336C59.6069 61.0336 59.6301 60.4154 59.8584 60.324C60.0864 60.2327 60.0962 60.2376 60.0977 60.24Z" fill="#624333"/>
<path id="Vector_36" d="M62.1069 104.23C62.1179 104.222 61.3167 103.795 61.3167 103.795C61.3167 103.795 61.8809 103.824 61.9814 104.041C62.082 104.257 62.0962 104.238 62.1069 104.23Z" fill="#624333"/>
<path id="Vector_37" d="M175.417 90.9153C176.022 103.261 172.467 113.887 168.022 124.245C165.677 129.711 162.409 134.796 160.25 140.323C157.646 146.986 153.291 149.574 146.373 148.203C144.77 147.886 143.128 147.763 140.951 147.022C144.426 137.227 150.87 129.395 154.486 119.669C159.992 104.857 159.403 89.2828 163.297 73.61C173.261 68.7274 174.896 69.6306 175.082 79.2131C175.152 82.8354 175.023 86.4601 175.417 90.9153Z" fill="#A07652"/>
<path id="Vector_38" d="M175.753 90.8538C172.919 87.8881 174.526 83.4574 174.109 79.3019C173.404 72.2721 173.522 72.2603 164.712 74.2601C161.385 67.99 160.747 61.2913 159.903 54.546C158.725 45.1409 155.902 36.0697 151.681 26.7031C151.309 25.5281 151.19 25.0579 151.051 23.8738C152.98 20.1149 156.081 18.2972 159.329 16.1826C170.058 34.6262 178.589 53.2683 176.392 74.9791C175.89 79.9408 176.002 84.9646 175.753 90.8538Z" fill="#CDA475"/>
<path id="Vector_39" d="M150.878 25.0876C160.685 39.1926 163.109 55.684 163.899 73.4741C162.577 90.5311 160.91 106.626 155.744 122.202C152.751 131.226 148.574 139.298 140.952 146.118C140.012 146.447 139.625 146.4 138.658 146.281C138.65 141.661 142.12 138.703 144.247 135.011C151.59 122.267 156.177 108.904 158.513 94.0984C162.283 70.2057 156.732 48.0848 150.878 25.0876Z" fill="#553222"/>
<path id="Vector_40" d="M214.714 77.1897C213.278 88.1321 211.562 89.7652 202.248 90.0133C197.633 90.1361 193.012 90.1798 188.396 90.1066C180.458 89.9807 180.459 89.9305 182.092 80.8074C192.362 74.4398 202.887 72.7821 214.714 77.1897Z" fill="#9C6F4D"/>
<path id="Vector_41" d="M215.428 77.1794C204.95 78.5345 194.479 79.2878 183.139 80.0498C181.277 77.5515 180.735 74.9646 180.901 71.5901C190.57 67.2421 200.572 70.1263 211.219 69.7969C213.793 72.0209 215.045 74.0701 215.428 77.1794Z" fill="#CDA475"/>
<path id="Vector_42" d="M159.71 15.7618C159.563 16.8823 158.743 17.481 158.838 17.832C160.742 24.8658 156.618 23.4664 151.96 22.3503C150.818 22.4456 150.367 22.5086 149.305 22.2698C145.818 17.3414 141.013 14.274 138.47 8.6756C140.489 1.35626 144.969 4.19635 148.397 5.92901C152.682 8.09564 156.624 11.0396 159.71 15.7618Z" fill="#A87C53"/>
<path id="Vector_43" d="M137.85 8.06665C143.081 11.5668 146.805 15.9114 149.79 21.7234C150.379 22.6498 150.705 22.9581 150.563 23.75C150.096 24.2336 150.096 24.2375 150.096 24.2397C143.805 20.9624 140.068 15.2616 136.163 8.9502C136.466 8.22376 136.862 8.18103 137.85 8.06665Z" fill="#553222"/>
<path id="Vector_44" d="M212.049 69.7258C202.231 70.2732 192.406 70.3172 181.748 70.6433C182.111 67.4761 185.084 68.3336 187.564 68.3128C195.126 68.2495 202.688 68.3277 211.183 68.2847C212.116 68.2186 212.096 68.2375 212.105 68.2278C212.09 68.5527 212.065 68.8874 212.049 69.7258Z" fill="#9C6F4D"/>
<path id="Vector_45" d="M120.979 135.097C118.046 132.241 115.75 129.176 114.609 124.754C111.362 121.458 113.455 118.491 114.134 115.845C120.531 90.9243 119.392 65.9857 113.927 41.1971C111.302 29.2881 104.076 19.6929 94.7595 10.714C94.2041 10.1056 94.3704 10.1222 94.4219 10.0581C93.6174 8.65103 92.7615 7.30801 91.8689 5.9075C103.15 3.83377 113.206 8.09476 119.251 18.4588C131.84 40.0418 136.602 63.5138 133.674 88.2473C132.202 100.677 131.732 113.408 126.597 125.203C125.149 128.527 124.383 132.169 120.979 135.097Z" fill="#CDA475"/>
<path id="Vector_46" d="M103.544 130.946C101.961 133.027 100.53 134.335 98.6217 135.958C100.823 124.99 103.192 113.622 106.272 102.449C108.99 92.5859 107.956 82.7793 107.052 72.8307C106.694 84.3463 105.252 95.6484 101.992 106.676C100.012 113.375 98.1918 120.127 94.9418 126.367C92.1046 131.813 88.1993 136.205 82.5929 138.967C78.5267 140.971 74.8685 139.92 71.2467 137.79C67.514 135.595 70.4281 132.352 69.9669 128.965C81.2855 136.891 85.129 136.059 91.6373 123.336C95.0841 116.598 98.452 109.783 98.0936 101.053C99.4842 94.0474 100.764 87.8448 101.241 83.3818C101.89 87.5587 98.3978 93.0527 98.5108 99.6704C95.4088 97.5592 96.2267 94.1024 96.1922 90.884C96.1073 82.9703 96.1642 75.0551 96.1642 67.1122C99.0531 66.139 97.2301 69.7465 99.7545 69.4119C100.639 67.8243 99.5189 64.9337 101.711 62.5183C105.923 61.2477 104.166 59.4817 102.467 57.9659C96.5926 56.5671 96.9459 51.7977 96.4642 47.7209C96.2196 45.6505 97.6261 45.0236 99.7499 45.9486C102.632 47.204 101.78 44.6537 102.108 42.7629C109.265 50.6924 107.91 61.5276 110.051 71.4037C114.449 91.6863 107.397 110.753 103.544 130.946Z" fill="#4A271A"/>
<path id="Vector_47" d="M102.049 58.7778C101.643 56.5569 101.186 55.0028 101.013 53.4178C100.963 52.9653 101.735 52.423 102.131 51.9224C106.366 58.0164 106.366 58.0164 104.981 66.4496C104.202 65.098 103.59 64.0358 102.588 62.5127C102.168 61.1788 102.137 60.3059 102.049 58.7778Z" fill="#73543E"/>
<path id="Vector_48" d="M96.1997 34.1759C96.1812 33.2673 96.134 32.3883 96.075 30.8483C100.198 32.514 101.631 36.4062 102.185 41.5222C101.209 41.1437 100.257 40.0367 98.8765 38.5785C97.3467 37.4836 97.1272 36.2903 96.5024 34.6367C96.1438 34.1527 96.1709 34.2053 96.1997 34.1759Z" fill="#4A271A"/>
<path id="Vector_49" d="M96.2007 34.7738C96.8125 35.1177 97.481 36.0826 98.2983 37.6375C97.2661 37.6318 96.5242 36.6971 96.2007 34.7738Z" fill="#73543E"/>
<path id="Vector_50" d="M130.378 20.7681C133.16 20.3677 135.182 21.8175 136.139 25.4223C136.262 26.0735 136.12 26.2079 136.045 26.273C133.77 25.1305 132.061 23.3896 130.378 20.7681Z" fill="#553222"/>
<path id="Vector_51" d="M127.999 17.9954C127.863 18.0054 127.658 17.739 127.454 17.4725C127.613 17.5547 127.772 17.637 127.999 17.9954Z" fill="#553222"/>
<path id="Vector_52" d="M130.058 20.2634C129.415 20.0369 128.918 19.6427 128.296 18.6941C128.067 18.2717 128.097 18.2372 128.116 18.2227C128.758 18.4281 129.277 18.7959 129.928 19.7291C130.166 20.1469 130.097 20.2281 130.058 20.2634Z" fill="#553222"/>
<path id="Vector_53" d="M94.1765 10.8162C100.174 11.5325 103.304 16.2408 106.557 20.8029C114.88 32.4769 118.76 45.8563 119.933 59.8099C121.715 81.0187 121.147 102.181 114.219 123.468C110.001 128.942 110.462 136.721 102.972 139.513C102.813 137.524 103.433 135.708 104.254 133.203C108.102 130.052 108.789 125.915 109.906 122.202C116.679 99.6857 117.221 77.0498 114.004 53.6417C111.707 36.9169 103.753 24.1427 94.1765 10.8162Z" fill="#553222"/>
<path id="Vector_54" d="M98.0806 136.214C98.063 136.19 97.6238 136.969 97.6238 136.969C97.6238 136.969 97.6958 136.426 97.9199 136.349C98.144 136.273 98.0979 136.237 98.0806 136.214Z" fill="#4A271A"/>
<path id="Vector_55" d="M150.488 24.278C150.096 24.2337 150.055 23.2875 150.055 22.8145C150.054 22.3416 150.663 22.3836 150.966 22.3831C151.387 22.7029 151.505 23.0232 151.646 23.8551C151.667 24.3669 150.88 24.3223 150.488 24.278Z" fill="#724D33"/>
<path id="Vector_56" d="M98.1056 100.247C97.0934 92.9507 100.428 86.2007 100.762 79.059C103.508 86.0352 100.992 92.5587 98.6051 99.6829C98.0821 100.229 98.0965 100.239 98.1056 100.247Z" fill="#624333"/>
</g>
</svg>
