<svg width="183" height="171" viewBox="0 0 183 171" fill="none" xmlns="http://www.w3.org/2000/svg">
<g id="ballon">
<path id="Vector" d="M3.07692 112.037C-1.79295 94.8428 -0.0580869 77.9617 2.63967 61.1747C3.30373 57.041 5.88185 53.2147 7.76369 48.549C20.4502 29.0426 36.1758 13.5326 57.1372 4.80151C68.7012 -0.0152636 81.5105 -1.01313 94.1831 0.940487C97.0855 1.38794 99.9036 2.38116 103.404 3.53332C104.82 4.79181 105.184 5.78936 104.889 7.71966C96.9146 15.2593 86.7805 15.7075 76.8633 18.8687C69.833 19.1052 63.5452 18.068 56.659 20.0012C55.449 20.3201 54.9661 20.4292 53.7576 20.624C37.646 23.8459 27.0703 33.1179 21.5049 47.4008C19.1741 53.3825 18.9326 60.4918 26.7454 65.0304C29.1785 65.9111 30.7918 66.899 33.074 68.1478C33.9512 68.9758 34.2427 69.3701 34.5562 70.504C34.3364 71.6765 34.0947 72.1095 33.2864 73.0292C27.5806 75.3932 22.3406 76.701 16.2156 75.8925C13.0276 72.3324 14.7725 68.9327 14.6848 65.0032C13.8418 63.1559 14.2962 64.8176 13.7842 63.5897C13.4016 62.6727 13.1028 61.766 13.1055 60.7706C13.1121 61.6099 13.2368 62.4289 13.9314 63.7568C16.043 68.0269 11.9903 72.6761 16.6956 76.5417C18.3926 88.5386 14.3133 99.561 14.1846 111.625C10.6045 119.35 7.11525 115.369 3.07692 112.037Z" fill="#39180F"/>
<path id="Vector_2" d="M103.92 8.59356C104.108 7.01452 104.115 6.13659 104.084 4.60101C108.707 3.57739 112.447 6.31109 117.309 7.75921C132.114 14.9148 145.606 22.7583 155.912 35.1419C158.899 38.7311 161.14 42.7021 163.779 47.2774C170.653 51.8378 171.527 59.1529 174.689 66.0564C179.54 84.0582 179.138 100.953 170.954 118.005C170.146 119.077 169.785 119.469 168.773 120.31C165.241 122.044 162.244 122.006 158.518 121.396C155.754 120.568 154.259 120.723 153.047 123.046C147.864 132.972 139.198 135.106 128.346 132.962C124.677 127.963 128.424 123.867 128.981 118.815C136.563 111.286 146.111 110.826 155.843 108.857C160.655 109.01 162.575 106.586 163.403 102.991C165.705 92.9828 166.594 82.976 162.594 72.6185C157.278 68.5306 155.627 63.2484 154.526 57.6626C153.89 54.4349 153.371 51.1812 152.612 47.9811C151.605 43.738 150.272 39.4289 145.567 38.0619C140.724 36.6547 140.41 42.2997 136.822 44.3017C135.692 44.629 135.209 44.6409 134.075 44.3307C131.04 41.4015 130.458 38.0225 130.588 34.8421C130.978 25.3712 125.872 20.8118 117.571 17.86C112.508 16.0596 106.785 14.6447 103.92 8.59356Z" fill="#5F371D"/>
<path id="Vector_3" d="M2.53833 112.414C4.09985 112.082 5.31348 104.07 7.24268 111.503C7.76489 113.514 8.74365 115.383 11.9875 113.968C18.2212 113.787 19.3435 117.724 19.3032 122.172C19.2734 125.465 18.9624 128.619 22.709 130.827C23.6965 130.8 24.0972 130.713 25.1091 130.446C30.7998 128.589 35.6853 130.107 41.2844 131.317C43.7881 131.864 45.4739 132.797 48.1052 132.789C50.2671 132.877 51.6648 133.21 53.7046 133.917C60.3638 137.498 60.6733 143.68 62.1448 149.347C64.4429 158.195 65.4448 159.048 73.3118 160.005C74.5266 157.314 71.4402 154.202 74.6255 151.233C75.6948 150.692 76.1685 150.566 77.3843 150.452C83.5803 151.547 85.6326 156.725 90.0334 160.25C97.6724 165.54 106.468 160.498 114.097 165.464C114.591 166.706 114.568 167.277 113.981 168.506C110.449 171.175 107.049 170.824 103.756 170.834C83.1428 170.9 62.5291 170.886 41.9155 170.845C39.2632 170.839 36.5068 171.163 34.0068 170.17C28.2715 167.893 29.3066 165.519 34.6482 163.039C33.3845 157.185 26.4961 156.417 24.1382 150.574C14.6921 138.916 7.55566 126.652 2.53833 112.414Z" fill="#432015"/>
<path id="Vector_4" d="M45.5397 163.193C35.3725 164.248 24.854 164.228 13.4421 163.411C13.0571 161.096 14.0192 158.834 14.0019 156.58C13.9548 150.461 17.3654 149.366 23.2053 150.036C30.8129 154.569 37.6318 159.208 45.5397 163.193Z" fill="#D5B282"/>
<path id="Vector_5" d="M103.333 7.9729C111.897 11.5261 119.744 15.0574 127.465 18.8427C130.675 20.4164 132.981 22.2043 132.587 27.0043C132.196 31.7632 134.223 36.7206 135.475 42.3506C136.72 49.2287 132.304 50.9049 127.929 52.7451C122.813 54.8968 117.003 55.448 112.061 59.8264C111.043 60.5526 110.598 60.7821 109.421 61.1548C102.362 60.2792 97.8688 55.4034 91.4045 53.0333C78.1318 46.0095 74.7934 45.4347 66.3576 56.3886C62.9946 60.7557 57.8886 63.7203 54.0446 68.8254C52.7914 69.9714 51.9848 70.5135 50.4352 71.2448C44.9164 71.678 40.1093 71.3647 34.822 70.2496C34.3283 69.7079 34.2372 69.629 34.1835 69.6566C33.1472 69.2598 32.2187 68.7388 30.8371 67.499C25.7011 48.254 33.8757 29.6219 51.9328 18.8813C52.6401 18.5134 53.3681 18.2889 53.7243 18.1531C60.8539 15.5129 67.893 17.6399 75.6008 16.5794C85.1166 13.4737 93.5634 9.88916 103.333 7.9729Z" fill="#EFC182"/>
<path id="Vector_6" d="M42.7502 134.398C36.4535 135.243 31.1227 129.823 24.8073 133.624C23.4042 135.333 23.2062 138.595 20.6528 136.072C18.6769 134.12 17.6264 131.165 16.3957 128.546C15.362 126.348 12.6452 124.21 17.0004 121.791C18.1049 121.178 15.2548 116.814 12.9914 114.179C10.1352 101.372 12.1564 89.3759 16.2065 76.7969C20.4552 70.4382 26.7172 72.1041 33.6982 72.0493C35.4313 91.2054 39.2382 108.98 48.3556 125.446C49.6344 127.755 50.1142 130.4 48.7475 133.73C46.7104 134.966 45.0915 134.891 42.7502 134.398Z" fill="#8F7057"/>
<path id="Vector_7" d="M51.869 18.2313C52.1756 20.5468 50.7698 21.972 49.3304 23.2904C36.7379 34.822 29.9534 48.7156 31.7181 67.0502C30.9906 68.5955 30.1683 68.8668 28.6268 68.4494C24.9505 67.3825 20.4769 68.7371 19.255 65.0425C17.6422 60.1651 16.1197 54.6536 16.8165 49.7346C18.6092 37.08 37.0841 20.0762 50.1182 17.8508C50.43 17.7976 50.7708 17.9126 51.869 18.2313Z" fill="#866C52"/>
<path id="Vector_8" d="M34.2102 70.1002C38.9993 68.262 43.719 68.7672 49.1494 69.4414C50.0982 70.0972 50.3379 70.6661 50.1045 72.036C45.0567 76.0549 40.3191 75.9787 34.805 72.872C34.145 72.207 34.1521 71.7506 34.0921 71.5302C34.0318 71.3099 34.0921 70.4926 34.2102 70.1002Z" fill="#5B3824"/>
<path id="Vector_9" d="M75.509 16.2627C69.7937 19.1868 62.7388 17.5841 54.9851 18.117C60.6592 14.5434 67.7346 16.6681 75.509 16.2627Z" fill="#866C52"/>
<path id="Vector_10" d="M16.1562 75.9478C9.20531 73.8578 13.1645 69.2457 13.9661 64.6211C17.3591 66.891 15.7407 70.8156 16.1235 75.1933C16.1892 76.0041 16.1042 75.8901 16.1562 75.9478Z" fill="#5B3824"/>
<path id="Vector_11" d="M14.0736 63.9017C11.3919 61.6536 11.9522 59.0023 12.6744 55.6863C14.9037 58.0985 13.8165 60.3877 14.1236 63.1568C14.1136 63.8655 14.0877 63.8926 14.0736 63.9017Z" fill="#5B3824"/>
<path id="Vector_12" d="M28.5254 68.5624C28.8442 68.1063 29.6606 68.0891 31.085 68.0162C32.3081 68.2582 32.9231 68.556 33.8342 69.2689C32.3345 70.1535 30.6187 70.027 28.5254 68.5624Z" fill="#5B3824"/>
<path id="Vector_13" d="M106.826 60.5981C107.892 59.9863 108.364 59.9471 109.547 59.8477C118.403 53.2585 129.087 52.2919 138.649 47.4394C144.884 51.5245 149.062 56.7029 153.562 61.5078C158.925 67.2337 161.868 73.8386 161.165 82.1277C160.498 90.0046 161.164 97.976 160.811 106.742C160.47 108.698 160.012 109.72 158.708 111.216C148.641 112.44 140.131 116.618 130.635 119.415C129.522 121.458 128.377 122.239 126.065 122.177C118.288 112.693 107.234 106.988 101.846 95.2565C100.966 90.8348 101.225 87.1193 101.298 82.5946C102.888 74.8932 102.268 67.4852 106.826 60.5981Z" fill="#F1C78A"/>
<path id="Vector_14" d="M124.914 122.936C127.679 122.511 128.205 121.225 129.589 120.188C133.731 124.261 128.049 126.951 128.266 131.361C129.268 133.696 128.949 135.443 128.479 137.813C127.798 140.303 126.868 142.228 129.716 143.781C140.862 141.369 145.825 132.024 152.859 125.263C154.464 123.72 155.346 121.374 158.198 120.184C161.158 119.926 163.134 117.272 166.042 119.785C169.903 125.024 167.015 129.269 164.84 133.146C158.469 144.5 150.375 154.491 139.312 162.768C136.606 164.727 135.179 167.049 132.5 168.985C126.625 169.53 121.263 169.678 115.013 169.689C114.125 169.551 114.114 168.744 114.089 168.341C114.062 167.589 114.06 167.239 114.052 166.366C115.591 163.119 118.841 163.329 121.625 161.4C123.971 159.757 126.165 158.835 126.669 156.217C123.273 153.9 118.705 154.866 115.547 151.073C114.888 150.098 114.671 149.673 114.263 148.549C114.785 138.811 119.684 131.435 124.914 122.936Z" fill="#401C10"/>
<path id="Vector_15" d="M135.867 162.881C148.563 150.582 161.112 138.966 166.278 120.959C166.416 120.252 167.357 120.013 167.834 119.919C168.311 119.824 168.163 119.892 168.125 119.82C168.398 120.1 168.709 120.453 169.502 121.326C170.882 122.997 171.459 124.315 172.209 126.367C172.34 139.292 173.834 151.035 182.66 161.438C182.627 162.805 182.456 163.352 181.693 164.551C166.003 167.171 150.887 169.682 135.867 162.881Z" fill="#9C6F4D"/>
<path id="Vector_16" d="M159.419 107.759C157.201 97.8662 157.895 88.5891 158.236 79.3765C158.45 73.5859 156.674 69.4803 152.506 65.4965C147.308 60.5269 141.422 55.9766 138.291 48.3701C136.961 46.8372 136.21 45.7059 135.948 43.5737C138.917 40.4774 137.545 36.6401 138.955 33.7469C151.199 33.9117 154.016 36.7404 156.187 48.532C157.522 55.79 156.945 63.8922 163.8 70.0153C165.74 79.5626 165.249 88.7819 164.833 97.9302C164.665 101.619 165.832 106.932 159.419 107.759Z" fill="#815D3D"/>
<path id="Vector_17" d="M158.703 119.455C154.469 131.882 144.159 138.536 135.677 146.75C134.23 148.152 131.937 147.836 129.205 147.627C125.646 145.416 126.228 142.308 126.233 138.636C126.768 136.322 127.243 134.749 127.979 132.614C132.317 132.284 136.068 130.707 139.966 129.937C145.591 128.826 150.135 126.773 150.169 119.86C150.187 116.39 153.073 115.707 155.78 115.412C158.137 115.155 158.062 117.277 158.703 119.455Z" fill="#805D41"/>
<path id="Vector_18" d="M158.679 107.844C162.179 106.707 161.824 104.153 161.815 101.895C161.787 95.0053 161.689 88.1158 161.635 81.2261C161.609 77.9496 161.364 74.6177 164.056 71.1237C165.769 70.7835 167.078 71.4056 167.215 72.8528C168.391 85.3028 169.272 97.7464 164.658 109.801C163.683 112.347 162.877 115.187 158.661 112.2C158.228 110.733 158.38 109.681 158.679 107.844Z" fill="#CDA475"/>
<path id="Vector_19" d="M135.896 42.9158C136.628 44.0409 137.288 45.2067 138.041 47.0343C130.258 53.7432 120.61 55.8856 110.983 59.733C109.717 56.6025 111.357 54.9512 114.199 54.067C118.232 52.812 122.246 51.4935 126.27 50.2112C129.678 49.1254 133.227 48.2643 135.368 43.857C135.762 43.1102 135.824 42.9566 135.896 42.9158Z" fill="#A1724C"/>
<path id="Vector_20" d="M115.498 147.304C116.029 148.211 116.14 148.549 115.931 150.06C115.104 151.534 114.598 151.835 113.245 152.382C101.536 155.746 90.6664 157.593 78.9672 152.428C78.1718 152.06 77.2091 151.836 76.7255 151.735C65.7736 150.649 61.9816 141.058 54.5411 135.165C52.7775 134.716 51.6779 134.416 50.0052 134.15C48.6632 134.47 47.8942 134.756 47.8844 134.074C41.2186 119.875 35.1334 106.144 32.8861 90.9779C32.0226 85.149 30.7904 79.3115 33.6893 72.8774C38.8131 72.2702 43.4813 72.3334 49.0219 72.316C56.0565 73.48 56.5665 79.0715 58.2665 83.5255C60.7448 90.0189 63.8575 95.6328 72.0521 97.3554C74.5741 98.2903 76.4384 99.046 78.4615 98.9097C86.714 98.3538 89.8065 101.58 88.1129 110.135C86.9625 115.947 88.8011 121.983 90.1818 127.719C92.2909 136.482 99.3448 138.334 107.095 138.025C113.569 137.766 116.287 140.28 115.498 147.304Z" fill="#E8B37D"/>
<path id="Vector_21" d="M78.5569 152.559C89.5269 151.766 100.972 152.948 113.003 149.977C114.998 151.06 114.305 151.933 113.223 153.042C112.934 153.289 112.683 153.621 112.891 153.356C114.006 152.623 114.623 151.881 115.312 150.414C115.541 149.837 116.129 149.713 116.421 149.781C121.666 153.638 127.751 150.647 133.567 152.675C132.653 157.758 128.054 159.73 124.593 163.375C111.994 166.193 99.8262 164.436 87.0862 163.952C85.824 158.447 81.8396 156.155 78.5569 152.559Z" fill="#A17D5A"/>
<path id="Vector_22" d="M54.116 135.79C55.1882 132.919 56.3455 130.808 58.6462 134.315C63.02 140.983 68.8804 146.171 75.8665 151.092C74.7678 152.86 74.356 154.362 75.4995 155.941C77.021 158.044 78.7134 160.022 80.3628 162.092C79.6733 162.733 79.2603 163.465 78.7996 163.496C62.2161 164.619 60.3616 163.272 58.3406 146.442C57.873 142.548 56.2878 139.609 54.116 135.79Z" fill="#6E4C33"/>
<path id="Vector_23" d="M47.833 133.327C48.6433 133.105 49.1841 133.546 49.3079 133.865C47.5305 135.552 45.4929 135.767 42.6794 134.459C43.6948 133.858 45.3586 133.703 47.833 133.327Z" fill="#6E4C33"/>
<path id="Vector_24" d="M103.423 81.7566C103.979 85.9593 103.905 90.007 103.432 95.6016C94.8403 102.753 85.3889 99.4457 75.8655 100.852C73.1755 99.6622 73.1331 98.4897 75.0862 97.2741C75.2205 97.1906 75.696 96.9803 75.4907 96.993C73.7273 97.102 72.1619 96.739 71.0984 95.2788C69.6553 93.2964 68.9912 90.7879 69.8633 88.6748C72.887 81.3489 68.4104 78.7657 62.9104 76.1622C59.0845 74.351 55.0393 72.595 52.0664 68.3634C53.5659 63.3862 56.3918 60.0745 60.3347 57.3508C63.5071 55.1593 66.0823 52.0513 68.7451 49.1854C75.2153 42.222 75.9424 42.0008 84.7046 46.0063C86.7759 46.9531 88.7205 48.1769 91.3423 49.6336C90.1042 56.8255 90.3342 63.0715 95.6877 68.6443C98.6948 71.7748 99.2847 76.2042 99.5657 80.4937C99.7581 83.4327 101.373 82.2369 103.423 81.7566Z" fill="#5B3824"/>
<path id="Vector_25" d="M51.3708 67.9164C60.3843 69.326 66.6333 76.1979 75.116 78.1001C77.1143 78.548 77.5312 80.1577 76.6035 81.9175C76.1516 82.7746 75.3064 83.4164 74.79 84.2489C70.0486 91.8923 70.9614 94.3546 79.6345 97.038C77.9839 97.5675 76.4739 98.0518 74.5017 98.9393C73.8696 99.8239 73.7002 100.305 72.8337 100.469C64.6421 101.075 60.6943 96.884 57.8179 90.6439C55.2026 84.9703 54.6575 78.4753 50.3501 72.7779C49.905 71.7839 49.9158 71.3325 49.8923 70.2047C50.0486 68.9189 50.4138 68.4438 51.3708 67.9164Z" fill="#391C14"/>
<path id="Vector_26" d="M104.532 81.2988C101.265 84.0803 103.683 88.5153 100.422 90.4971C98.11 90.1 98.2946 88.1583 97.9745 86.6766C96.1969 78.4451 94.797 70.4286 88.4286 63.6938C83.9289 58.9351 85.6112 54.8579 91.5021 50.5235C97.289 52.2917 102.991 53.9781 107.036 59.5098C107.628 67.0302 106.086 73.8307 104.532 81.2988Z" fill="#9A7041"/>
<path id="Vector_27" d="M74.3399 31.3603C74.2686 34.0396 75.0762 36.0793 73.1221 38.1783C68.4258 33.0175 70.4954 27.2675 70.6827 21.0792C75.9886 23.3704 73.8206 27.4409 74.3399 31.3603Z" fill="#AF794F"/>
<path id="Vector_28" d="M24.1262 133.872C24.156 133.849 23.3242 133.526 23.3242 133.526C23.3242 133.526 23.833 133.547 23.9436 133.752C24.0542 133.958 24.0962 133.896 24.1262 133.872Z" fill="#432015"/>
<path id="Vector_29" d="M103.972 95.8371C107.822 100.703 112.185 105.101 117.048 109.121C120.82 112.239 124.165 115.993 126.084 121.459C126.156 122.173 126.092 122.018 126.171 121.991C125.975 122.137 125.681 122.487 125.426 122.46C116.377 121.528 103.14 106.416 103.592 96.396C104.064 95.7595 104.018 95.8874 103.972 95.8371Z" fill="#946946"/>
<path id="Vector_30" d="M103.23 95.7383C103.584 98.8961 104.433 101.545 106.739 103.801C112.82 109.753 118.841 115.765 125.569 121.858C124.868 130.898 119.258 138.157 116.214 147.212C109.016 148.71 113.162 144.174 113.03 140.882C106.128 142.204 99.367 142.67 93.223 138.534C90.9596 137.01 88.2091 135.697 87.8106 132.996C86.3416 123.041 81.8228 113.234 85.66 102.662C81.9408 100.637 77.307 103.081 72.7259 100.626C72.452 100.013 72.7669 99.873 73.5604 99.5379C83.6522 99.3927 92.9847 97.2495 103.23 95.7383Z" fill="#F1C78A"/>
<path id="Vector_31" d="M125.777 138.345C128.673 140.231 127.72 143.348 128.344 146.847C123.917 145.919 123.46 142.771 125.777 138.345Z" fill="#5F371D"/>
<path id="Vector_32" d="M58.5602 125.049C60.674 124.51 59.393 125.972 59.4694 126.639C59.5734 127.543 58.9682 127.845 58.6884 127.262C58.4428 126.75 58.5465 126.069 58.5602 125.049Z" fill="#6E4C33"/>
<path id="Vector_33" d="M61.7057 114.277C62.049 114.198 62.0978 114.51 62.0251 114.79C61.7653 115.789 61.464 116.777 61.1786 117.769C60.0778 116.664 60.8761 115.668 61.7057 114.277Z" fill="#6E4C33"/>
<path id="Vector_34" d="M115.116 149.875C116.243 151.917 115.706 153.33 112.775 153.875C112.604 152.975 113.07 152 113.689 150.498C113.841 149.972 114.692 149.913 115.116 149.875Z" fill="#F1C78A"/>
<path id="Vector_35" d="M62.1452 113.968C62.3832 113.22 61.8473 112.156 63.0324 111.752C62.9457 112.309 62.8593 112.866 62.4142 113.662C62.0558 113.901 62.1193 113.939 62.1452 113.968Z" fill="#6E4C33"/>
<path id="Vector_36" d="M112.078 153.88C111.875 154.111 111.736 154.432 111.494 154.612C110.476 155.371 109.402 155.958 108.188 155.006C108.092 154.93 108.17 154.401 108.237 154.386C109.15 154.176 110.075 154.019 111.568 153.9C112.138 153.951 112.095 153.905 112.078 153.88Z" fill="#F1C78A"/>
<path id="Vector_37" d="M94.0522 100.039C95.0308 100.319 95.5388 100.602 96.0471 100.886C94.749 102.227 93.4319 102.171 92.0984 100.94C92.593 100.641 93.0874 100.342 94.0522 100.039Z" fill="#E8B37D"/>
</g>
</svg>
