<svg width="310" height="142" viewBox="0 0 310 142" fill="none" xmlns="http://www.w3.org/2000/svg">
<g id="basket">
<path id="Vector" d="M134.647 13.9391C140.91 11.5538 145.15 11.844 149.303 16.8181C152.621 20.7926 156.948 24.0626 162.75 24.4593C164.593 24.5854 166.92 25.4983 168.048 26.8605C172.811 32.6116 179.23 35.642 185.415 39.4161C189.894 42.1493 194.531 44.2054 199.066 46.6459C207.066 50.9509 215.859 54.234 222.45 60.6886C225.928 64.0949 229.634 66.3549 234.835 67.8308C236.301 69.5551 235.782 70.8173 234.381 72.4932C232.99 73.3618 232.099 73.6346 230.478 73.7948C227.163 73.4355 224.535 73.0114 221.271 74.1951C218.7 74.6639 216.81 74.6603 214.242 74.0122C213.157 73.4975 212.757 73.2294 211.925 72.3831C210.809 69.3199 213.541 68.1147 214.598 65.3665C204.641 66.696 195.947 63.3057 187.691 61.198C178.861 58.9436 172.228 49.7848 161.823 48.428C158.678 48.0179 161.53 42.0062 158.95 40.7747C153.905 38.3663 150.181 31.6937 142.45 36.7637C136.271 40.8157 129.785 35.7643 123.573 33.9156C137.336 39.5428 138.003 40.4435 132.913 47.6071C131.736 47.7328 131.26 47.7165 130.089 47.5243C122.932 43.6032 115.957 40.8292 108.946 36.6246C106.069 35.1485 104.056 32.8071 101.157 34.7582C94.3523 39.3388 85.8872 40.3432 79.8294 47.2665C74.8071 53.0064 66.3965 51.9567 59.3201 48.7826C52.761 45.8405 46.8406 36.4214 47.4795 30.524C47.6597 28.86 47.9568 27.0962 49.562 26.2497C52.0989 24.9118 53.01 27.2848 54.1717 28.6881C55.4356 30.2155 56.1516 32.1007 56.9104 33.9292C55.5911 29.9097 52.8023 26.7607 50.5059 22.5704C50.5654 21.4131 50.7017 20.9601 51.3855 20.0554C57.208 24.1276 62.292 28.8388 64.9422 35.4787C66.4358 39.2216 68.6658 40.4736 72.645 39.0496C81.6426 35.8299 90.73 32.9223 99.3328 28.6256C104.153 26.2181 107.038 23.23 107.858 17.5974C108.854 10.7463 110.765 3.94623 118.532 0.345703C123.369 4.56547 117.42 7.92671 118.192 12.5528C122.137 12.8843 126.336 10.4509 130.909 12.6609C132.189 13.1558 132.896 13.4444 134.647 13.9391Z" fill="#4A271A"/>
<path id="Vector_2" d="M233.859 72.4622C234.016 70.8746 234.543 69.9672 235.278 68.5801C250.672 71.6766 266.198 73.7454 281.157 78.2852C284.741 79.3728 288.29 80.1243 291.949 79.7224C298.294 79.0254 303.783 80.7636 309.1 85.3504C309.048 86.1685 308.584 86.5249 307.956 87.3405C293.362 85.0501 279.086 86.044 264.116 88.9249C256.779 89.3748 256.678 98.5706 249.321 99.0367C247.178 99.6046 245.719 99.8732 243.544 100.414C239.778 101.178 236.704 101.279 232.859 101.492C229.978 101.573 227.916 101.891 225.085 102.675C215.364 103.847 206.562 106.077 197.517 105.521C190.854 105.112 182.958 105.218 181.722 96.6917C180.565 88.7138 186.058 83.9524 194.201 81.5169C196.023 82.0052 196.851 82.6536 197.835 84.1817C199.025 85.8999 197.665 88.1823 198.261 87.967C204.185 85.8268 210.785 87.4159 216.697 84.619C214.849 82.0051 211.631 81.3614 209.432 78.4218C208.486 76.412 208.679 75.0428 210.38 72.7458C211.789 71.8082 212.156 71.8316 213.069 71.9072C228.659 77.1968 244.633 75.9977 259.966 79.1467C251.407 76.9833 241.917 79.2681 233.859 72.4622Z" fill="#513729"/>
<path id="Vector_3" d="M14.0091 72.3863C13.3231 61.971 17.513 53.1514 20.8521 44.1367C22.2249 40.4307 23.6395 37.0323 23.8355 32.8C24.0923 27.2464 26.9698 22.0272 30.7586 17.7109C37.4395 10.0991 44.2816 10.3372 51.7313 18.9303C51.9327 19.6037 51.7645 19.751 51.6837 19.8283C43.5399 18.5969 37.4722 23.9793 37.6509 32.3664C37.7374 36.4226 37.2703 40.3638 35.295 43.9478C33.8555 46.5603 31.8516 46.7282 30.4622 45.4667C35.7662 47.2785 41.6746 50.2069 47.2967 53.7262C50.4966 55.7292 54.2557 57.0791 57.754 55.4434C67.2391 51.0083 78.3497 50.0702 86.2149 42.0942C89.1512 39.1164 92.5565 36.1703 95.1263 43.3667C94.098 48.3448 90.7242 50.5642 87.2676 52.3099C77.6763 57.1542 68.9407 63.6449 58.0518 67.5559C56.6016 68.4266 55.7371 68.8442 54.1429 69.3557C42.3448 68.9415 36.7859 59.1992 27.7078 54.0885C22.6692 54.9439 24.0035 59.0713 23.0618 61.8544C21.711 65.8461 21.459 70.3002 16.575 72.8922C15.4441 72.9893 14.9861 72.9187 14.0091 72.3863Z" fill="#4A271A"/>
<path id="Vector_4" d="M13.1793 72.4769C13.8885 71.9208 14.2875 71.9171 15.2843 71.9026C18.4589 78.9379 19.8566 87.1217 30.9403 86.6331C42.8077 86.4935 54.756 83.7193 62.1913 96.9087C62.3797 98.3213 62.3275 98.8985 61.7855 100.194C52.2501 104.691 42.6244 104.374 32.3588 104.909C25.8236 105.193 20.0179 104.394 13.9911 105.815C13.9672 107.776 15.3583 108.619 16.0167 110.594C14.1788 115.044 10.5353 114.623 6.45226 114.969C4.64074 114.779 3.80553 114.249 3.35485 112.632C3.32726 100.373 8.4713 90.1307 11.2123 78.563C11.7359 76.2081 12.3024 74.6187 13.1793 72.4769Z" fill="#34150F"/>
<path id="Vector_5" d="M133.684 16.1261C127.608 13.7244 122.597 12.8564 117.809 18.192C115.603 20.649 113.905 18.8841 113.346 15.8549C112.227 9.78467 116.903 6.23563 119.186 0.946609C120.181 0.169769 121.173 0.090302 122.911 0C128.523 2.46214 133.144 5.20793 135.488 11.2274C135.556 12.2778 135.574 12.6514 135.64 13.584C135.69 14.1431 135.594 14.0509 135.645 14.0078C135.084 14.53 134.619 15.1991 133.684 16.1261Z" fill="#836145"/>
<path id="Vector_6" d="M25.5877 134.763C25.285 138.202 27.7772 139.188 29.5804 141.614C20.3775 142.165 11.919 138.706 2.36262 139.889C2.34626 134.888 1.7281 130.002 0.544261 125.172C-0.53069 120.786 -0.160085 116.675 2.98933 112.384C3.76814 112.471 4.12507 112.978 5.5594 114.036C7.07551 115.401 7.48811 116.207 7.91926 117.743C8.13362 119.298 8.14949 120.187 8.04035 121.72C7.72956 124.376 7.36189 126.396 8.73225 128.839C13.9395 133.097 21.2235 128.387 25.5877 134.763Z" fill="#341910"/>
<path id="Vector_7" d="M301.539 112.995C294.847 118.876 287.968 122.849 279.148 123.313C273.321 123.619 267.319 124.922 261.973 127.849C259.79 129.045 257.652 128.977 255.327 128.148C253.383 127.456 251.322 127.77 249.671 129.085C240.999 135.996 230.591 135.443 220.457 135.773C217.143 135.881 213.799 135.515 210.65 136.686C204.491 138.976 198.036 138.353 191.954 137.535C179.058 135.801 166.3 136.724 152.649 137.413C137.585 133.165 125.453 124.864 112.731 117.806C109.563 116.049 105.254 113.96 109.184 108.417C128.351 109.966 146.427 114.292 164.818 116.001C184.263 117.809 203.829 117.98 223.308 115.805C234.792 114.522 246.351 114.167 257.855 113.294C269.054 112.445 280.193 111.323 291.291 109.785C295.202 109.242 298.488 109.712 301.539 112.995Z" fill="#9E836B"/>
<path id="Vector_8" d="M260.993 86.4896C270.352 84.6137 279.103 83.1935 287.895 82.1065C294.668 81.2691 301.058 82.4322 307.063 87.4343C310.66 90.7046 310.098 94.1034 308.828 97.5391C307.952 99.9122 305.824 101.721 305.619 105.187C304.152 107.346 302.263 106.729 300.092 107.508C299.576 107.91 299.553 107.922 299.54 107.926C291.498 111.741 282.816 111.696 273.376 112.07C265.841 108.801 260.149 104.718 258.309 96.9822C257.447 93.3588 257.257 89.8678 260.993 86.4896Z" fill="#7E5F47"/>
<path id="Vector_9" d="M107.351 108.635C108.933 113.306 112.703 114.292 115.865 115.992C125.819 121.342 135.822 126.602 145.784 131.936C147.814 133.023 150.066 133.852 151.576 136.596C143.965 138.395 136.02 140.421 128.336 134.147C119.839 132.133 113.831 126.654 106.608 123.732C102.745 122.168 99.37 119.083 93.9916 120.062C92.734 120.199 92.2184 120.219 90.9166 120.165C72.4342 114.285 54.5697 109.334 35.7743 108.72C32.4081 108.61 28.9391 108.013 29.4222 102.795C39.9315 101.485 49.8522 100.755 60.6649 99.9718C72.6322 97.031 82.7486 102.357 93.2679 103.941C97.9 104.638 102.934 105.326 107.351 108.635Z" fill="#7A604B"/>
<path id="Vector_10" d="M108.279 109.582C92.3948 107.672 77.8154 103.457 62.2637 100.249C61.5564 99.9187 61.574 98.964 61.5583 98.4868C64.2461 95.2653 67.7505 95.4881 70.9229 96.1743C84.8857 99.1948 99.2974 99.4639 113.126 103.292C130.49 108.098 148.403 109.353 167.098 111.326C185.788 112.851 203.601 114.407 222.26 110.826C238.691 106.966 254.383 107.374 270.865 109.499C280.478 111.085 288.942 107.254 298.65 107.898C300.255 109.843 304.327 109.914 301.995 113.579C300.133 111.117 297.58 111.728 295.399 112.111C273.058 116.033 250.385 116.248 227.9 118.44C215.258 119.672 202.677 119.923 190.049 120.166C162.553 120.697 135.845 115.031 108.279 109.582Z" fill="#513729"/>
<path id="Vector_11" d="M111.893 137.141C108.98 137.876 106.18 137.772 102.541 137.616C98.1572 136.271 94.4626 137.27 90.1052 136.652C87.8904 136.462 86.4307 136.476 84.2439 136.564C59.9883 138.487 39.9053 126.029 18.0723 120.837C14.7915 120.056 11.8733 118.5 11.501 113.988C28.0332 109.382 43.8428 109.599 59.3977 116.162C67.9624 119.776 76.7871 121.091 86.3943 120.72C97.4685 120.293 105.688 127.412 111.893 137.141Z" fill="#957D64"/>
<path id="Vector_12" d="M112.284 137.759C106.287 131.55 98.6072 128.107 91.8357 123.427C89.6753 121.934 87.3496 123.008 85.0662 123.323C78.0232 124.293 70.8652 124.209 64.489 121.055C51.1565 114.459 37.05 113.651 22.6389 114.099C19.6462 114.192 16.647 114.073 12.7312 114.086C10.4819 115.544 8.88623 115.53 6.50293 114.498C5.81519 114.02 5.59082 113.99 5.47876 113.964C7.76733 111.024 11.5857 112.66 14.9412 110.677C33.0974 106.795 49.9988 110.994 66.9287 115.069C71.6111 116.196 76.0935 118.664 83.1965 117.278C82.502 117.351 81 115.553 81.4465 116.81C81.6177 117.292 81.3867 117.468 80.7905 117.566C75.2937 118.468 70.4912 115.901 65.4595 114.509C47.1245 109.438 28.3679 108.577 8.70093 108.555C7.38037 104.25 8.70874 101.853 13.1897 101.941C18.1572 102.039 23.1274 101.996 29.0535 102.115C30.1785 105.521 32.6218 105.599 34.9924 105.656C54.7632 106.13 73.5706 111.077 92.7292 117.966C102.991 120.795 110.602 126.158 115.853 135.165C114.688 136.418 113.738 136.978 112.284 137.759Z" fill="#412E24"/>
<path id="Vector_13" d="M5.74876 122.66C5.26756 121.2 5.27 120.246 5.4011 118.588C10.4341 115.588 14.5285 118.768 18.7844 120.078C30.7636 123.766 43.0376 126.561 54.6233 131.454C56.8655 132.401 61.5078 132.032 58.1469 137.311C54.6831 137.756 51.9336 137.848 48.364 138.039C45.5747 137.943 43.6059 137.748 40.8957 137.605C38.4807 136.873 36.675 136.943 34.2756 136.59C31.5224 136.054 29.3889 135.775 26.447 135.478C21.405 133.242 16.7895 134.213 12.3313 133.827C9.94505 133.62 6.99094 134.824 5.50511 130.723C9.66233 124.205 14.9389 125.587 20.1218 127.602C16.0735 124.926 10.3293 126.546 5.74876 122.66Z" fill="#91785F"/>
<path id="Vector_14" d="M58.3576 137.767C58.9181 135.145 57.5102 134.333 55.3017 133.503C40.6984 128.011 25.6813 123.89 10.6508 119.802C9.37737 119.456 8.13909 118.98 6.20696 118.223C5.54168 117.019 5.55388 116.156 5.6906 114.656C7.31292 114.002 8.81096 113.984 11.0602 114.044C16.5466 118.855 23.1034 119.488 28.9926 121.318C41.6503 125.251 54.4872 128.617 66.4675 134.435C69.3229 135.821 72.0466 136.341 75.058 135.196C77.5939 134.232 80.1652 133.653 83.0812 136.025C75.5688 139.609 67.3356 136.959 58.3576 137.767Z" fill="#674D3A"/>
<path id="Vector_15" d="M116.271 135.99C109.471 129.011 101.049 125.081 93.7971 118.637C93.478 118.049 93.5232 117.986 93.5481 117.958C105.694 119.083 114.943 126.313 124.946 133.276C123.557 138.837 120.081 136.902 116.271 135.99Z" fill="#7A604B"/>
<path id="Vector_16" d="M125.866 133.912C115.594 127.865 105.494 122.619 94.2881 118.025C95.355 115.549 97.4941 116.093 99.6814 117.205C108.999 121.941 118.863 125.71 127.32 133.177C127.282 133.783 126.879 133.83 125.866 133.912Z" fill="#4B3934"/>
<path id="Vector_17" d="M300.247 107.939C300.757 106.348 302.458 106.088 304.906 105.994C304.496 107.716 302.732 107.899 300.247 107.939Z" fill="#513729"/>
<path id="Vector_18" d="M271.45 109.333C267.13 111.222 262.628 111.991 257.928 111.975C247.038 111.937 236.116 111.606 224.478 113.548C221.143 111.591 218.561 111.091 215.315 111.649C201.531 114.017 187.773 113.631 174.1 110.487C167.937 109.07 161.555 110.671 155.36 109.371C160.428 110.523 165.646 109.341 170.707 110.357C172.366 110.69 174.102 111.772 173.215 113.712C172.448 115.391 170.381 114.841 168.082 114.433C146.674 112.725 126.071 111.299 105.868 105.492C94.5875 102.25 82.5407 101.686 70.8497 99.8474C68.256 99.4396 65.7064 98.7491 62.3397 98.0992C55.7255 91.0765 48.3493 88.6069 39.4503 89.9759C36.8695 90.373 34.171 90.0066 30.6259 89.8711C23.0917 77.3685 24.3432 64.2497 26.8117 50.4204C36.0182 55.3577 43.0751 62.9591 52.8715 67.8833C65.6022 72.3616 74.5058 81.5296 84.5238 87.9411C83.2008 86.2893 80.3832 85.6016 78.6705 83.4682C75.6893 79.7551 75.1268 75.901 79.4291 73.1668C95.6925 62.8309 111.926 52.3708 131.311 46.5786C134.032 45.6939 135.941 44.8379 134.014 42.2955C132.527 40.3355 129.948 40.1795 127.925 39.0899C124.429 37.207 120.877 35.3953 117.555 33.2364C115.693 32.0265 115.212 29.9934 116.938 28.1424C118.489 26.4789 120.266 25.8429 121.841 28.1496C124.345 31.8185 128.548 32.0194 132.166 33.5475C137.227 35.6848 141.16 35.8159 145.621 31.5739C149.506 27.8809 151.645 28.9405 154.31 34.2836C155.344 36.3561 156.748 37.2906 158.926 37.2459C161.159 37.2001 163.416 35.6445 165.566 37.3225C166.267 38.2521 166.417 39.0404 165.442 39.851C163.45 41.5085 160.629 43.009 162.366 46.2267C163.691 48.6826 166.459 47.932 168.687 47.9988C172.656 48.1179 176.63 48.0323 180.32 48.0323C182.141 48.8627 181.764 50.1498 181.805 51.4716C181.992 57.3835 183.918 59.685 189.24 59.1406C194.421 58.6107 199.352 56.4966 203.629 61.9081C205.209 63.9068 208.656 61.6342 211.295 61.8381C215.543 62.1662 220.139 61.4743 222.298 66.697C219.564 69.5242 215.487 69.0159 211.893 71.2818C211.423 71.7847 211.503 71.8475 211.496 71.8097C210.764 72.7435 209.821 73.4675 208.405 74.548C207.83 75.3422 207.662 75.7031 207.253 76.6136C206.616 77.8686 206.193 78.5572 205.403 79.7454C204.319 81.2823 203.445 82.1794 201.941 83.3427C199.8 84.5418 198.087 84.4328 196.003 83.7387C190.774 83.6482 188.505 87.7132 185.808 90.7922C181.612 95.582 183.445 100.53 189.915 101.544C196.469 102.572 203.247 102.578 209.769 101.268C214.381 100.342 218.955 99.9469 224.476 99.7874C226.873 98.6319 228.702 99.0789 230.96 98.4918C234.923 98.0425 238.322 97.9253 242.571 97.8263C244.304 97.119 245.378 96.9602 246.964 96.6224C251.647 96.092 255.134 94.9228 255.558 89.9093C255.788 87.1815 257.415 85.965 260.816 85.8991C258.282 96.2634 263.217 103.124 271.45 109.333Z" fill="#8A694D"/>
<path id="Vector_19" d="M94.1257 44.2826C93.281 42.1816 92.1987 40.0348 90.5693 41.6035C82.414 49.4562 71.468 52.1873 62.082 57.7323C56.6494 60.9418 51.3738 60.5564 46.1135 57.113C41.1057 53.8348 35.8078 50.9863 30.8974 47.5749C24.9543 43.446 25.0097 42.4337 29.9455 35.0445C33.3086 37.534 28.1079 41.5322 31.519 43.9872C35.1599 37.6066 35.6706 34.0869 33.1726 28.5189C32.3086 26.594 31.2898 24.8902 32.9082 23.0883C34.7739 21.0113 37.468 19.4758 40.0041 20.1017C45.0566 21.3487 39.8733 15.494 43.4074 15.7687C46.3515 15.9975 48.227 17.8128 50.9836 19.6254C54.4309 27.6529 61.3357 33.2905 63.0273 42.5461C55.3374 40.3616 55.1003 32.6092 51.0625 27.9873C50.3999 35.2795 53.2131 41.9863 58.4736 45.2509C64.9848 49.2921 71.7517 48.4644 78.5266 45.8932C77.5376 39.2338 83.9382 40.5089 86.9616 38.4235C91.0088 35.6323 95.8049 33.9391 100.236 31.6879C103.443 30.0581 106.466 28.9067 109.073 33.6649C110.23 37.7165 106.987 38.1624 104.504 40.0161C103.591 40.5753 103.227 40.7988 101.787 41.7191C100.349 42.6485 99.9856 42.8813 99.0556 43.4354C97.2893 44.3347 96.0334 44.6657 94.1257 44.2826Z" fill="#725641"/>
<path id="Vector_20" d="M101.759 38.1552C104.456 36.9219 106.644 35.9622 109.223 34.5566C116.699 36.6314 123.415 39.854 129.448 45.224C112.179 57.4731 92.6013 65.0677 75.1953 76.5304C71.4194 79.0169 68.1238 76.7087 65.1887 74.6115C61.9978 72.3316 58.0977 70.9193 55.6448 66.6851C67.9319 59.1336 80.696 52.7719 93.0667 44.3993C94.6887 43.358 95.8176 42.7683 97.4993 41.8585C98.3032 41.2587 98.5547 40.9791 99.2107 40.306C99.6147 39.9125 99.5444 39.9098 99.5452 39.9449C100.069 39.4135 100.637 38.8963 101.759 38.1552Z" fill="#916E4E"/>
<path id="Vector_21" d="M55.0233 66.2112C58.8433 67.9949 62.5714 69.64 65.5828 72.1464C69.8446 75.6936 73.4635 75.3204 78.1292 72.7539C94.6715 63.6548 111.442 54.9713 128.828 46.0268C129.94 45.9661 130.35 46.0089 131.365 46.2052C129.756 49.5683 126.141 50.6637 122.907 52.2979C109.261 59.1926 95.4742 65.8201 82.6947 74.3026C76.9278 78.1302 76.8199 78.9041 82.5882 83.2657C86.6864 86.3644 91.2301 88.9857 92.2779 95.0002C78.7706 87.5149 66.1275 78.8772 53.8509 68.6336C53.7515 67.4092 54.1053 66.8821 55.0233 66.2112Z" fill="#613A25"/>
<path id="Vector_22" d="M232.838 71.8225C243.342 74.0669 253.195 76.3519 263.047 78.6369C248.285 79.5537 233.543 81.6753 219.289 76.1763C217.42 75.4554 215.503 74.9939 213.957 72.5936C215.735 71.9154 217.854 71.8715 220.766 71.7804C223.631 70.5205 225.883 71.0369 228.826 71.424C230.442 71.8227 231.313 71.843 232.838 71.8225Z" fill="#71594A"/>
<path id="Vector_23" d="M178.482 44.0244C173.66 44.3103 169.751 47.3788 164.828 44.7423C169.882 40.0557 175.943 42.337 181.284 41.459C181.369 41.4451 181.861 42.9668 181.775 43.0107C180.961 43.4252 180.063 43.6744 178.482 44.0244Z" fill="#87654A"/>
<path id="Vector_24" d="M185.739 54.2749C189.805 51.2663 193.839 51.7937 199.326 52.5824C194.206 56.2162 190.094 56.9769 185.739 54.2749Z" fill="#7F634C"/>
<path id="Vector_25" d="M145.574 20.4731C147.964 21.3355 149.47 22.4052 150.627 24.9566C147.255 25.6737 144.319 26.4211 142.564 22.9514C142.079 21.9931 143.645 20.8499 145.574 20.4731Z" fill="#876E5B"/>
<path id="Vector_26" d="M133.709 24.9814C133.662 28.3254 132.708 30.1594 129.627 29.1845C128.389 28.7929 127.118 27.738 127.763 26.344C128.901 23.8848 130.696 22.3072 133.709 24.9814Z" fill="#91785F"/>
<path id="Vector_27" d="M161.653 31.1339C163.153 29.6944 164.438 29.5016 165.578 30.4541C166.596 31.3052 165.969 32.1923 165.144 32.8404C163.976 33.7583 163.332 33.5334 161.653 31.1339Z" fill="#8A694D"/>
<path id="Vector_28" d="M229.099 71.3586C227.433 71.8237 225.295 71.845 222.359 71.7998C223.699 69.5867 226.08 69.5264 229.099 71.3586Z" fill="#513729"/>
<path id="Vector_29" d="M139.676 28.3031C140.851 26.8146 141.497 27.4709 141.791 28.3994C141.929 28.8394 141.655 29.7272 141.287 29.9505C140.135 30.6511 139.777 29.7227 139.676 28.3031Z" fill="#876E5B"/>
<path id="Vector_30" d="M133.514 16.6493C133.613 15.7077 134.137 15.1197 135.178 14.2483C136.277 15.6523 135.94 16.8088 133.514 16.6493Z" fill="#A08060"/>
<path id="Vector_31" d="M208.869 93.8028C212.346 93.187 214.916 92.3246 217.536 92.1235C223.308 91.6806 227.856 89.8628 228.548 83.0281C235.291 85.1929 241.426 86.4398 247.809 86.2099C249.539 86.1476 251.049 87.092 250.965 89.202C250.903 90.7413 249.784 91.4731 248.421 91.8148C247.133 92.1374 245.837 92.4972 244.523 92.6291C228.392 94.2481 212.444 97.536 196.184 97.9494C194.204 97.9997 192.175 97.9111 190.245 97.5121C188.961 97.2463 187.933 96.2062 188.217 94.5968C188.513 92.9161 189.842 92.463 191.147 92.8782C196.696 94.6429 202.366 93.6889 208.869 93.8028Z" fill="#7E5F47"/>
<path id="Vector_32" d="M201.256 81.4735C201.984 80.3459 202.435 79.8104 203.2 79.1097C203.776 78.1435 204.185 77.4239 205.153 76.3213C205.585 75.8679 205.573 75.96 205.53 75.9421C206.282 75.1768 207.216 74.8978 208.945 75.4864C214.227 79.3876 220.268 80.8855 224.541 86.6044C215.061 89.2648 206.003 90.7949 196.684 89.6731C194.707 89.4351 196.183 87.8072 197.25 86.4181C198.189 84.1879 199.651 83.1843 201.256 81.4735Z" fill="#725641"/>
<path id="Vector_33" d="M210.049 75.5029C208.686 75.9195 207.771 75.9526 206.172 75.955C205.775 73.1472 207.566 72.058 210.798 71.7908C211.159 72.8878 210.828 74.0036 210.049 75.5029Z" fill="#4A271A"/>
<path id="Vector_34" d="M200.909 81.0337C201.386 82.8339 200.343 84.2377 198.205 85.6464C197.066 85.4127 196.528 84.8734 195.815 83.7714C197.188 82.5344 198.737 81.8602 200.909 81.0337Z" fill="#4A271A"/>
<path id="Vector_35" d="M230.86 98.1095C230.237 99.6304 228.533 99.9272 226.027 99.8297C226.668 98.3767 228.364 98.0266 230.86 98.1095Z" fill="#7E5F47"/>
<path id="Vector_36" d="M246.904 96.3622C246.495 96.8912 245.523 97.3641 243.985 97.8408C244.394 97.3318 245.367 96.819 246.904 96.3622Z" fill="#7E5F47"/>
<path id="Vector_37" d="M27.0321 49.3275C28.2166 62.4805 30.6156 75.1072 29.6907 88.8376C29.0782 89.6942 28.4102 89.7199 27.7865 89.5663C14.9 86.3917 14.901 86.3876 15.8182 72.6802C20.7142 67.0056 19.2049 60.1145 21.3699 54.3673C22.3885 51.6633 22.1903 48.2492 27.0321 49.3275Z" fill="#613F2E"/>
<path id="Vector_38" d="M8.36646 108.742C33.624 107.436 59.1995 107.596 84.6138 118.798C77.9187 121.052 72.9507 119.39 67.9871 117.868C51.4648 112.799 34.6416 109.696 16.3772 110.127C13.2542 109.896 11.0405 109.556 8.36646 108.742Z" fill="#71594A"/>
<path id="Vector_39" d="M5.01442 122.707C12.9829 121.107 18.8723 125.751 25.4536 128.755C19.2515 129.491 12.9619 127.365 6.18214 129.876C3.06691 127.89 3.96193 125.571 5.01442 122.707Z" fill="#674D3A"/>
<path id="Vector_40" d="M168.083 114.529C168.588 113.824 169.977 114.212 171.668 112.068C164.095 111.736 156.889 112.585 150.454 108.474C161.908 108.323 173.377 106.924 184.815 108.769C194.026 110.254 203.142 110.617 212.304 108.675C216.583 107.768 220.954 106.73 223.469 112.793C205.444 117.458 187.107 115.996 168.083 114.529Z" fill="#7E5F47"/>
<path id="Vector_41" d="M205.008 76.1943C205.167 76.5788 204.749 77.2897 203.922 78.4726C203.819 78.1367 204.125 77.3287 205.008 76.1943Z" fill="#4A271A"/>
<path id="Vector_42" d="M99.3013 40.1383C99.3087 40.3192 98.9735 40.7005 98.3306 41.2974C98.2513 41.0575 98.5633 40.6661 99.3013 40.1383Z" fill="#4A271A"/>
<path id="Vector_43" d="M101.712 38.0925C101.693 38.3933 101.119 38.9048 100.045 39.6983C100.083 39.4212 100.62 38.8622 101.712 38.0925Z" fill="#4A271A"/>
</g>
</svg>
