<svg width="463" height="601" viewBox="0 0 463 601" fill="none" xmlns="http://www.w3.org/2000/svg">
<g id="cadre">
<path id="Vector" d="M17.8379 10.0446C20.6463 10.3312 21.9702 11.3326 22.6172 12.5162C23.2972 13.7606 23.3044 15.325 23.2139 16.8805C22.538 28.4599 23.0292 40.0644 23.248 51.6168C23.4671 63.1811 23.4145 74.7076 21.6641 86.193C21.1601 89.5009 21.2305 92.8175 21.2305 96.0709V96.0719C21.2364 176.929 21.1877 257.788 21.2871 339.606V339.632C21.4491 342.589 21.9037 344.374 21.3848 347.177L21.377 347.22L21.376 347.264C21.1055 380.934 19.5171 413.803 21.6689 446.45C24.4935 489.315 22.3996 532.056 23.3877 574.94C23.4684 578.445 23.5871 581.207 23.9727 583.355C24.3591 585.508 25.0259 587.116 26.2578 588.254C27.4863 589.387 29.2051 589.986 31.5479 590.283C33.8904 590.579 36.9279 590.582 40.8516 590.466C168.702 586.69 296.57 589.42 424.462 588.671C431.719 588.628 438.92 587.37 446.426 590.815C446.842 592.75 447.146 594.189 447.26 595.278C447.38 596.43 447.269 597.048 446.994 597.419C446.727 597.779 446.206 598.036 445.122 598.178C444.051 598.319 442.57 598.333 440.536 598.339C407.911 598.42 375.286 598.394 342.66 598.407C315.56 598.417 288.338 597.394 261.268 598.629C180.335 602.32 99.4256 599.214 18.4473 600.313C14.3178 600.369 11.3275 600.461 9.13379 600.338C6.92357 600.213 5.67081 599.872 4.91113 599.184C4.16377 598.507 3.78679 597.395 3.62793 595.399C3.46968 593.411 3.53394 590.706 3.53516 586.96C3.54536 554.881 3.52607 522.801 3.50781 489.804C3.50566 412.776 3.67703 336.661 3.34668 260.548C3.32262 255.012 2.64074 249.479 2.06055 243.867C1.47919 238.243 0.997388 232.524 1.35547 226.554L1.36328 226.42L1.30273 226.299C0.878485 225.46 0.622508 224.88 0.53418 224.324C0.449857 223.793 0.513714 223.245 0.825195 222.476L0.859375 222.391L0.862305 222.3C1.06818 214.044 2.19481 205.972 3.03125 197.918C3.86606 189.879 4.40866 181.878 3.4209 173.843C1.30416 156.626 1.06753 139.379 1.2207 121.994C1.36423 105.704 1.85054 89.2776 1.44727 72.6715L1.35449 69.3483C1.34697 54.7537 1.33331 41.0798 1.35156 27.4059C1.35966 21.1793 1.82316 17.8021 4.00781 15.4908C5.10495 14.3302 6.67076 13.4023 8.93555 12.5436C11.1849 11.6907 14.0862 10.9193 17.8379 10.0446Z" fill="#5E4629" stroke="black"/>
<path id="Vector_2" d="M285.964 0.503906C341.736 3.84585 396.743 1.3189 451.602 2.13184C454.389 2.17315 456.452 2.20227 457.998 2.38379C459.549 2.56592 460.478 2.89262 461.073 3.44727C461.662 3.99503 462.01 4.84549 462.198 6.29297C462.385 7.74158 462.401 9.68704 462.406 12.3428C462.495 60.7956 462.505 109.249 462.498 157.702C462.477 296.843 462.435 435.983 462.4 575.124C462.4 576.107 462.401 577.088 462.394 578.067C462.376 580.643 462.362 582.526 462.165 583.967C461.97 585.395 461.604 586.315 460.936 587.006C460.255 587.71 459.204 588.237 457.499 588.746C455.86 589.236 453.687 589.688 450.778 590.288C450.503 589.82 450.382 589.397 450.361 588.999C450.334 588.518 450.447 588.033 450.663 587.498C450.882 586.957 451.191 586.4 451.54 585.764C451.883 585.14 452.257 584.452 452.573 583.688C454.917 578.343 454.485 573.593 454.486 569.076C454.513 387.763 454.514 206.449 454.494 25.1357C454.494 21.342 454.472 18.4301 454.17 16.2178C453.868 14.0024 453.275 12.392 452.058 11.2812C450.849 10.1786 449.107 9.64527 446.698 9.37207C444.285 9.09828 441.104 9.07782 436.945 9.07715C309.762 9.05673 182.579 9.05311 55.3967 9.0791C51.233 9.07995 48.0494 9.10143 45.634 9.37598C43.2238 9.64995 41.4809 10.1841 40.2717 11.2871C39.0541 12.398 38.4622 14.0079 38.1594 16.2217C37.8571 18.4326 37.8326 21.3421 37.8293 25.1318C37.788 73.5713 37.8567 122.006 37.7708 170.443C37.761 175.965 38.5897 181.394 33.092 186.104C31.497 185.954 30.459 185.615 29.7883 185.183C29.3658 164.772 28.987 144.365 28.843 123.964C28.8489 117.56 28.8557 111.147 28.8547 104.722V103.899L28.1243 104.277C27.9241 104.381 27.7862 104.548 27.7249 104.759C27.6742 104.933 27.6857 105.11 27.6975 105.233C27.7255 105.525 27.7805 105.765 27.7805 106.16C27.7779 112.101 27.8011 118.042 27.843 123.981C27.8263 142.162 27.8138 160.275 27.9885 178.386C27.9951 179.083 27.8418 179.875 27.7024 180.773C27.5681 181.639 27.4514 182.589 27.593 183.479C27.723 184.296 28.072 185.066 28.7981 185.688C29.7859 233.309 31.0014 280.908 30.0081 328.555C29.8984 333.823 29.9795 339.128 33.0081 345.005C35.5228 351.467 35.7967 357.275 35.5481 363.133C35.0274 375.389 35.6606 387.694 35.7952 400.04C35.9297 412.392 35.5668 424.82 33.0735 437.42C30.5498 444.355 29.9382 450.505 29.9592 456.814C30.0865 494.735 30.0244 532.655 30.0217 570.578C30.0217 573.56 30.196 576.46 29.9465 579.359C29.8588 580.377 29.8657 581.554 29.8293 582.661C29.7922 583.792 29.7104 584.881 29.4563 585.822C29.2034 586.759 28.7912 587.507 28.1262 588.007C27.4637 588.505 26.4809 588.809 24.9797 588.72C23.6034 588.638 22.9017 588.231 22.5266 587.725C22.1352 587.196 22.0104 586.446 22.0413 585.488C22.0723 584.525 22.2504 583.496 22.3733 582.402C22.4918 581.348 22.5558 580.245 22.2922 579.289C22.2648 579.189 22.2374 579.104 22.2151 579.03C22.2266 578.974 22.2346 578.919 22.2395 578.87C22.2499 578.766 22.2558 578.631 22.2581 578.46C22.7521 540.706 22.235 502.956 21.7473 465.215C21.2596 427.471 20.8022 389.735 21.4133 351.997C21.4323 350.82 20.8982 349.828 19.9465 348.202C19.2939 345.988 19.2314 344.47 19.2532 342.188C22.1725 337.39 21.0943 332.818 21.0989 328.814C21.1719 267.302 21.2472 205.788 21.1145 144.274C21.0169 99.2614 22.4099 54.2861 22.8254 8.39258C28.2804 2.90931 34.4457 1.92968 41.6663 1.94727C117.359 2.1319 193.054 2.08182 268.746 2.0957C274.164 2.09671 279.741 2.41249 285.964 0.503906ZM28.7629 183.984C28.6772 183.775 28.6172 183.554 28.5803 183.322C28.466 182.603 28.5563 181.793 28.6907 180.927C28.6938 180.907 28.6963 180.886 28.6995 180.866C28.7206 181.906 28.7415 182.945 28.7629 183.984Z" fill="#4F3020" stroke="black"/>
<path id="Vector_3" d="M21.5496 348.613C22.3086 348.622 22.8923 348.776 23.2976 349.036C23.6869 349.287 23.9434 349.654 24.0339 350.185C24.1275 350.734 24.046 351.482 23.6873 352.458C22.6568 355.265 22.3437 358.083 22.2839 360.874C22.2541 362.269 22.2869 363.663 22.3269 365.045C22.367 366.431 22.4144 367.804 22.4128 369.173C22.3323 438.163 22.3236 507.153 22.3757 576.143C22.3788 579.764 21.3606 583.963 24.1189 588.422L24.408 588.889L24.8464 588.557C27.0137 586.913 27.7415 585.068 27.9099 583.224C27.9925 582.319 27.9403 581.421 27.8718 580.571C27.8022 579.707 27.7177 578.909 27.7195 578.142C27.8054 540.208 27.6694 502.289 27.8171 464.36C27.8498 456.068 26.693 447.933 29.1267 439.307C35.84 445.837 35.3942 454.398 35.4763 462.896C35.8142 497.867 35.5717 532.837 35.6287 567.819C35.6347 571.533 35.6638 574.389 35.9753 576.561C36.2876 578.738 36.8955 580.323 38.1365 581.416C39.3656 582.499 41.1333 583.025 43.5798 583.296C46.0325 583.568 49.2637 583.591 53.49 583.592C180.15 583.619 306.808 583.586 433.468 583.647C439.946 583.65 446.401 582.686 452.706 586.781C452.188 588.044 451.181 588.819 449.711 590.045L449.683 590.068L449.66 590.094C449.629 590.128 449.56 590.183 449.431 590.244C449.308 590.304 449.155 590.359 448.986 590.407C448.661 590.501 448.313 590.562 448.059 590.602C360.026 590.663 272.514 590.643 185.002 590.626C163.379 590.622 141.774 591.125 120.199 590.506C107.17 590.132 94.189 590.825 81.2371 591.504C68.2784 592.184 55.3473 592.851 42.3816 592.435C39.4488 592.341 36.4826 592.431 33.5789 592.418C30.3536 592.404 27.9661 592.394 26.1804 592.215C24.3861 592.036 23.304 591.694 22.613 591.102C21.938 590.523 21.5511 589.629 21.3474 588.113C21.1431 586.591 21.1347 584.547 21.1306 581.758C21.0952 557.232 21.1459 532.708 21.1443 508.18C21.1432 493.843 22.2258 479.301 20.8748 464.983C17.2542 426.6 20.0483 388.269 19.2742 348.917C20.1219 348.705 20.8895 348.604 21.5496 348.613Z" fill="#3C1F13" stroke="black"/>
<path id="Vector_4" d="M40.7754 5.97491C42.6169 6.0583 44.4971 5.97491 46.2979 5.97491C179.39 5.97506 312.484 5.97606 445.576 5.97687C446.318 5.9769 447.04 5.96759 447.771 5.97589C450.457 6.00645 452.44 6.0297 453.924 6.19757C455.414 6.36617 456.295 6.67241 456.856 7.18585C457.408 7.69065 457.734 8.47505 457.907 9.82452C458.08 11.1761 458.088 12.991 458.09 15.471C458.127 81.2764 458.138 147.082 458.112 212.887C458.068 326.163 457.984 439.441 457.948 552.717C457.947 557.305 458.022 561.892 458.101 566.475C458.18 571.059 458.262 575.638 458.273 580.217C458.274 580.538 458.287 580.865 458.299 581.183C458.31 581.504 458.321 581.819 458.319 582.131C458.317 582.757 458.265 583.344 458.091 583.887C457.761 584.913 456.952 585.905 454.807 586.602C403.005 586.717 352.106 586.516 301.201 586.503C215.46 586.482 129.719 586.582 43.9785 586.63C42.1787 586.631 40.2992 586.547 38.458 586.642C35.947 586.771 34.2591 586.306 33.2275 585.368C32.2083 584.443 31.7177 582.951 31.8467 580.748C32.0007 578.122 31.8656 575.448 31.874 572.869C31.982 540.148 31.8676 507.435 32.3203 474.725C32.4841 462.91 30.8358 451.198 30.0977 438.676C33.0972 425.504 32.0946 412.984 32.0283 400.666C31.9356 383.405 32.9727 366.023 30.7861 348.038L30.7715 347.92L30.7051 347.822L30.5215 347.538C28.6748 344.614 28.5215 341.813 28.8516 339.025C29.0237 337.571 29.3241 336.145 29.5869 334.683C29.8474 333.234 30.0685 331.765 30.0596 330.29C29.8405 293.819 30.3293 257.305 29.7148 220.825C29.5287 209.784 28.8363 198.922 31.2549 187.275C35.6117 183.084 34.1326 178.608 34.1387 175.049C34.2337 123.321 34.1988 71.592 34.1982 19.8646C34.1977 17.2823 34.3315 14.6109 34.2041 11.9837C34.0988 9.8156 34.5663 8.29618 35.5703 7.33527C36.5799 6.36919 38.2426 5.86025 40.7754 5.97491Z" fill="#856447" stroke="black"/>
<path id="Vector_5" d="M429.188 19.8361C433.817 19.4542 436.635 20.1743 438.284 21.7092C439.928 23.24 440.545 25.7076 440.445 29.176C440.051 42.8999 440.349 56.6359 440.452 70.3449C440.555 84.0603 440.463 97.758 439.293 111.44V111.441C438.968 115.251 439.268 119.027 439.642 122.766C440.018 126.518 440.466 130.222 440.46 133.956C440.324 224.501 440.331 315.046 440.453 405.59C440.458 409.327 440.072 413.041 439.66 416.894C439.254 420.679 438.823 424.595 438.721 428.757C437.142 430.347 436.446 431.924 436.159 433.471C435.869 435.027 435.995 436.572 435.996 437.938C436.004 447.223 436.082 456.508 436.218 466.736L436.22 466.861L436.28 466.97C439.12 472.138 439.896 477.268 439.906 482.357C439.91 484.904 439.724 487.437 439.507 489.963C439.291 492.483 439.046 495.002 438.941 497.492C438.115 517.073 437.287 536.638 439.608 557.142C439.477 561.436 439.38 564.613 439.023 566.988C438.665 569.368 438.061 570.839 436.999 571.796C435.93 572.76 434.31 573.285 431.72 573.551C429.136 573.816 425.688 573.817 421.04 573.817C300.95 573.817 180.861 573.847 60.7719 573.685C59.6908 573.683 58.5182 573.861 57.3861 574.012C56.2349 574.165 55.1102 574.293 54.0472 574.224C52.9924 574.155 52.0244 573.892 51.1781 573.282C50.3837 572.71 49.6575 571.803 49.0746 570.37C54.2922 564.875 60.8333 565.976 67.3187 565.972C179.157 565.894 290.996 565.925 402.835 565.918C408.464 565.918 412.724 565.918 415.928 565.594C419.125 565.27 421.378 564.617 422.913 563.222C424.458 561.818 425.185 559.747 425.543 556.825C425.901 553.905 425.901 550.025 425.901 544.915C425.902 380.547 425.902 216.178 425.902 51.8098C425.902 49.1983 425.932 46.5676 425.882 43.9426C425.826 41.0407 425.716 38.7514 425.362 36.965C425.005 35.1696 424.391 33.8208 423.284 32.8557C422.185 31.8982 420.666 31.3764 418.63 31.0842C416.593 30.7918 413.97 30.7217 410.609 30.718C335.438 30.6351 260.267 30.6898 185.097 30.6779C146.227 30.6718 107.36 30.7153 68.4916 30.6476C62.2509 30.6368 56.1089 30.8884 50.2396 26.4767C49.5163 25.5927 49.1321 24.9011 48.9916 24.2101C48.8576 23.5511 48.9344 22.8341 49.2484 21.8703C54.0407 19.0107 58.6511 19.8755 63.3939 19.8723C106.638 19.8422 149.881 19.8316 193.26 19.8283H378.698C395.423 19.8284 412.149 19.8305 429.147 19.8381H429.167L429.188 19.8361Z" fill="#886E53" stroke="black"/>
<path id="Vector_6" d="M55.944 17.8268C180.973 17.8545 306.003 17.9017 431.032 17.9596C433.969 17.9609 436.141 17.9657 437.766 18.1246C439.4 18.2844 440.377 18.5937 440.998 19.1217C441.602 19.6358 441.954 20.4321 442.14 21.7975C442.327 23.1686 442.336 25.009 442.339 27.524C442.369 50.4468 442.57 73.3606 442.224 96.2692C441.914 116.861 442.1 137.449 442.315 158.03C442.53 178.613 442.772 199.189 442.578 219.767C442.191 260.693 442.357 301.626 442.294 342.547C442.261 363.171 442.142 383.803 442.303 404.431C442.358 411.51 441.626 418.462 439.784 425.735C439.156 373.805 438.964 321.325 438.937 268.843C438.895 189.964 438.976 111.084 439.002 32.2037C439.002 30.1997 438.919 28.2917 438.951 26.3219C438.969 25.2191 438.775 24.3142 438.366 23.5836C437.954 22.848 437.345 22.3279 436.604 21.9615C435.174 21.2542 433.193 21.0964 431.015 21.0221C427.2 19.7857 423.543 19.5129 420.011 19.5426C418.237 19.5576 416.487 19.6494 414.768 19.734C413.046 19.8188 411.354 19.8962 409.674 19.8873C383.172 19.7467 356.66 19.6703 329.283 20.4254L329.151 20.4293L329.038 20.4977C328.648 20.7327 328.265 20.8827 327.938 20.9655C327.668 21.0338 327.459 21.0491 327.325 21.0426C325.313 19.703 323.35 19.8039 321.583 19.8063C231.22 19.9253 140.846 19.5461 49.8688 20.7965L49.5289 20.8014L49.4078 21.1188C49.108 21.9082 48.9562 22.5175 48.9039 23.1061C48.8522 23.6899 48.9013 24.2303 48.9733 24.8629L48.9918 25.027L49.1041 25.1471C54.0006 30.4025 53.2065 36.2065 53.2086 42.1364C53.2473 137.004 53.2305 231.871 53.2311 326.739C53.2316 401.979 53.2588 477.218 53.1852 552.458C53.1803 557.718 54.1452 562.865 50.0231 568.186L49.9625 568.264L49.9362 568.36C49.5864 569.634 49.4663 570.806 49.7975 571.73C50.1515 572.717 50.976 573.312 52.2203 573.495C54.4124 573.816 56.6759 573.799 58.8561 573.798C166.451 573.771 274.046 573.727 381.641 573.692C397.011 573.687 412.38 573.724 427.752 573.735C430.341 573.737 432.32 573.739 433.819 573.597C435.31 573.456 436.428 573.166 437.224 572.506C438.035 571.835 438.428 570.854 438.655 569.55C438.88 568.253 438.955 566.537 439.053 564.314C439.125 562.697 439.114 561.053 439.17 558.614C439.356 558.113 439.501 557.913 439.625 557.823C439.692 557.774 439.784 557.734 439.954 557.725C440.492 561.824 440.433 565.582 440.588 569.416C440.667 571.372 440.262 572.739 439.381 573.607C438.498 574.478 437.024 574.956 434.711 574.877C431.777 574.776 428.79 574.921 425.895 574.922C330.564 574.926 235.233 574.929 139.902 574.924C112.77 574.923 85.64 574.939 58.5094 574.862C55.158 574.852 52.6744 574.837 50.816 574.636C48.9508 574.435 47.8174 574.056 47.0895 573.401C46.3727 572.756 45.964 571.766 45.7496 570.118C45.5349 568.466 45.526 566.257 45.525 563.261C45.4826 427.062 45.4625 290.862 45.4362 154.662C45.4276 112.099 45.4113 69.5358 45.4166 26.9733C45.4169 24.566 45.4204 22.8038 45.5905 21.4899C45.76 20.1801 46.0843 19.4218 46.6393 18.9342C47.2078 18.4347 48.108 18.1379 49.6344 17.984C51.1525 17.831 53.1862 17.8262 55.944 17.8268Z" fill="#4A271A" stroke="black"/>
</g>
</svg>
