<svg width="319" height="351" viewBox="0 0 319 351" fill="none" xmlns="http://www.w3.org/2000/svg">
<g id="classeurs">
<path id="Vector" d="M319.568 41.2025C320.119 62.7091 320.119 83.4175 320.119 105.063C315.018 110.635 308.738 108.557 302.922 108.923C298.282 109.215 293.613 108.905 288.958 109.064C282.453 109.287 279.202 112.734 279.182 119.146C279.072 156.06 278.856 192.976 279.327 229.887C279.451 239.657 282.528 241.546 292.354 242.122C301.17 242.638 310.365 239.872 319.425 245.411C320.119 255.379 320.119 264.758 320.119 275.068C316.851 278.068 313.21 276.429 309.17 277.151C306.867 277.762 305.686 278.999 303.888 280.484C296.477 293.079 300.501 300.688 314.035 301.025C315.669 301.066 317.318 300.789 319.521 301.651C320.119 313.377 320.119 324.753 320.119 337.065C317.252 340.901 313.554 340.853 309.865 340.958C300.219 341.233 290.581 340.833 280.914 341.671C270.747 342.553 267.048 337.74 266.84 327.229C266.503 310.287 268.815 293.466 268.712 275.587C269.428 266.332 269.026 258.028 269.133 248.771C266.789 230.658 265.666 213.293 267.714 196.208C269.588 180.57 269.97 164.936 268.738 149.522C266.726 124.343 266.139 99.1967 266.172 73.9904C266.178 70.0077 266.012 66.0121 266.951 61.12C268.095 57.683 268.94 55.2418 268.948 52.4668C268.983 38.9515 269.866 38.0745 282.751 38.0117C291.744 37.9679 300.738 37.9334 309.73 38.0405C312.972 38.0791 316.504 37.3468 319.568 41.2025Z" fill="#8E694A"/>
<path id="Vector_2" d="M171.485 80.2794C173.271 80.0278 174.269 80.0239 176.015 80.0277C180.567 84.426 179.495 89.4384 177.886 94.056C173.433 106.833 170.62 119.983 167.84 133.935C166.894 136.952 165.793 139.112 165.136 142.127C164.981 143.692 164.889 144.579 164.663 146.107C164.44 147.166 164.335 147.583 164.041 148.611C162.95 151.151 162.775 153.25 162.355 155.943C161.916 159.96 160.677 163.257 161.316 167.39C161.366 168.482 161.344 168.92 161.166 169.994C159.602 173.244 158.401 175.947 157.365 179.393C157.02 181.704 157.151 183.386 157.436 185.716C157.311 187.237 157.086 188.079 156.467 189.475C154.248 193.599 154.485 197.595 153.645 202.055C145.584 227.568 140.724 253.228 133.358 278.949C132.208 291.894 125.828 302.652 123.549 314.633C121.19 327.028 121.732 328.253 133.866 330.118C145.234 331.864 156.897 331.068 168.801 334.378C174.203 334.366 178.759 335.007 183.961 336.632C186.342 336.693 187.925 336.899 190.311 337.254C199.695 339.815 208.308 339.814 217.737 337.456C227.98 335.384 237.588 336.721 247.892 335.658C250.778 335.203 252.867 335.094 255.618 335.263C256.672 334.832 258.6 336.216 257.327 333.466C255.121 302.925 255.759 273.026 256.65 243.158C257.017 230.863 257.072 218.579 257.09 206.295C257.145 169.726 257.325 133.156 256.852 95.6366C258.784 77.2271 257.927 59.6874 258.146 42.1771C258.188 38.8567 258.359 35.5551 260.158 31.6031C261.499 29.7049 262.611 29.1968 264.817 29.7165C265.785 31.6246 265.916 33.0633 266.102 35.2229C269.601 43.1222 267.254 51.2828 270.111 59.2999C270.686 122.022 271.149 184.024 271.503 246.874C265.18 249.527 267.901 244.454 266.589 242.186C272.308 251.939 268.983 262.76 270.994 273.605C272.516 291.078 269.601 307.854 270.33 324.737C270.94 338.843 268.206 338.449 284.504 338.405C295.753 338.374 307.002 338.256 319.185 338.088C320.119 338.889 320.119 339.778 320.119 341.334C316.546 345.92 311.796 344.699 307.355 345.002C300.686 345.457 293.672 343.339 286.655 347.96C281.374 350.027 276.716 349.974 272.073 349.99C260.466 350.029 248.835 349.517 237.257 350.099C205.633 351.687 174.432 348.354 143.37 342.956C133.921 341.314 124.079 342.705 114.023 338.843C112.056 337.963 111.062 337.275 109.642 335.726C106.24 329.096 108.148 323.174 109.666 317.489C119.615 280.224 128.556 242.704 138.242 205.375C147.922 168.07 156.366 130.472 165.28 92.9847C166.342 88.5185 166.467 83.6251 171.485 80.2794Z" fill="#3C1F13"/>
<path id="Vector_3" d="M319.599 175.539C320.119 182.062 320.119 188.123 320.119 195.092C310.988 200.876 301.409 195.082 292.161 197.174C301.133 196.602 310.006 197.463 319.474 199.51C320.119 205.401 320.119 210.801 320.119 217.101C310.326 222.873 300.115 216.969 290.218 219.171C299.821 218.669 309.355 219.249 319.465 221.508C320.119 225.429 320.119 228.858 320.119 233.144C319.742 234.293 319.366 234.586 318.299 235.07C312.758 234.64 308.032 234.681 303.149 238.126C299.548 238.909 296.728 238.824 293.104 237.626C279.128 231.69 278.876 231.685 279.176 216.852C279.673 192.249 277.985 167.687 278.135 143.097C278.209 131.041 279.96 128.996 291.996 129.157C300.87 129.276 309.929 127.348 319.367 131.392C320.119 138.062 320.119 144.123 320.119 151.092C308.409 154.367 296.569 152.152 286.858 153.006C296.031 153.116 307.247 152.839 319.29 153.564C320.119 159.401 320.119 164.801 320.119 171.101C312.329 176.215 303.909 172.778 297.272 174.017C303.592 174.71 311.436 172.729 319.599 175.539Z" fill="#A18264"/>
<path id="Vector_4" d="M320.119 131.334C310.16 132.023 300.201 132.015 290.242 132.078C280.709 132.139 280.496 132.316 280.42 142.393C280.332 153.998 280.858 165.574 281.488 177.172C282.262 191.408 281.72 205.715 281.746 219.992C281.748 221.32 281.706 222.649 281.745 223.976C281.955 231.222 281.956 231.264 289.363 232.449C291.034 232.717 292.631 232.94 294.245 234.876C297.989 238.308 301.73 237.233 305.194 236.172C310.049 234.686 314.631 234.412 319.622 237.538C320.119 240.134 320.119 242.267 320.119 245.201C309.135 246.026 298.148 246.206 287.167 246.027C278.723 245.889 276.27 243.632 276.235 235.381C276.065 196.102 276.027 156.822 276.107 117.543C276.126 108.242 278.565 106.114 288.287 106C298.272 105.883 308.259 105.985 319.182 105.996C320.119 106.89 320.119 107.778 320.119 109.334C316.18 114.271 310.944 112.417 306.199 113.062C298.991 114.041 291.26 110.373 284.34 116.216C283.852 123.85 288.704 123.779 293.559 124.224C302.03 124.999 310.913 122.146 319.526 127.498C320.119 128.89 320.119 129.778 320.119 131.334Z" fill="#5C3F2D"/>
<path id="Vector_5" d="M320.119 127.144C310.244 128.044 300.368 128.158 290.493 128.112C280.645 128.066 280.646 127.996 280.564 116.552C293.199 110.996 305.897 112.327 319.371 115.37C320.119 119.429 320.119 122.858 320.119 127.144Z" fill="#83644B"/>
<path id="Vector_6" d="M270.682 59.3551C263.13 53.6097 262.967 45.8617 266.018 36.7318C283.519 35.9656 300.882 35.9875 319.182 36.005C320.119 37.5006 320.119 39.0006 320.119 41.2506C316.798 40.0831 313.126 40.3435 309.504 40.2891C299.604 40.1403 289.703 39.8407 279.804 39.8872C272.517 39.9214 272.203 40.4625 271.844 47.8894C271.67 51.4929 272.395 55.1571 270.682 59.3551Z" fill="#4F3020"/>
<path id="Vector_7" d="M320.119 301.334C307.878 305.857 301.66 303.868 297.885 294.861C295.291 288.669 297.276 283.397 301.852 278.147C307.076 283.069 299.372 288.344 302.282 293.071C302 291.709 301.88 289.688 302.341 287.807C303.438 283.332 305.527 279.494 310.998 280.129C315.666 280.671 317.595 283.986 318.066 288.418C318.375 291.328 317.315 294.402 319.593 297.572C320.119 298.89 320.119 299.778 320.119 301.334Z" fill="#442417"/>
<path id="Vector_8" d="M320.119 297.092C318.184 299.224 316.329 300.811 313.005 298.931C314.492 296.006 317.448 293.221 316.303 289.388C315.25 285.862 314.467 281.742 309.666 282.105C305.594 282.414 304.828 286.074 304.199 289.415C303.441 293.443 305.515 296.548 308.123 299.545C301.579 298.605 299.545 294.504 300.036 289.053C300.328 285.805 301.527 282.639 302.393 278.595C303.456 276.713 304.443 275.673 305.921 274.388C310.226 276.861 315.514 273.341 319.599 277.565C320.119 284.062 320.119 290.123 320.119 297.092Z" fill="#896548"/>
<path id="Vector_9" d="M320.119 115.251C307.554 115.949 294.988 115.897 281.535 115.757C279.95 110.378 283.185 109.643 287.356 109.696C297.652 109.829 307.95 109.842 319.183 109.952C320.119 111.501 320.119 113.001 320.119 115.251Z" fill="#A5856A"/>
<path id="Vector_10" d="M320.119 175.334C309.482 175.835 298.747 177.012 288.271 173.92C298.208 171.267 308.276 172.477 319.185 172.002C320.119 172.89 320.119 173.778 320.119 175.334Z" fill="#71594A"/>
<path id="Vector_11" d="M320.119 221.334C308.869 223.096 298.215 217.633 286.828 220.226C286.861 219.464 286.895 218.702 286.927 217.939C297.368 217.939 307.808 217.939 319.184 217.97C320.119 218.89 320.119 219.778 320.119 221.334Z" fill="#674834"/>
<path id="Vector_12" d="M320.119 199.334C309.501 200.649 299.334 196.584 288.63 198.137C288.661 197.382 288.691 196.628 288.722 195.873C298.565 195.873 308.409 195.873 319.186 195.937C320.119 196.89 320.119 197.778 320.119 199.334Z" fill="#704F38"/>
<path id="Vector_13" d="M320.119 237.334C309.704 238.001 299.289 238.001 288.363 238.001C289.908 235.398 291.819 236.398 293.946 235.695C297.096 235.484 299.553 235.449 302.753 235.458C307.636 233.369 312.303 234.155 317.357 233.572C318.414 234.01 318.755 234.003 319.607 233.998C320.119 234.89 320.119 235.778 320.119 237.334Z" fill="#442417"/>
<path id="Vector_14" d="M320.119 153.501C308.893 155.104 297.739 153.67 286.538 153.9C286.541 153.238 286.542 152.576 286.545 151.914C297.113 151.914 307.681 151.914 319.185 151.957C320.119 152.001 320.119 153.001 320.119 153.501Z" fill="#4A271A"/>
<path id="Vector_15" d="M320.119 277.501C315.919 275.304 310.655 278.166 306.44 274.765C310.517 274.319 314.791 273.142 319.363 275.826C320.119 276.001 320.119 277.001 320.119 277.501Z" fill="#442417"/>
<path id="Vector_16" d="M265.761 29.271C264.856 30.1322 264.058 30.0786 262.656 30.0123C255.291 28.0337 256.45 22.3051 257.122 17.791C258.3 9.88355 254.96 7.79517 247.79 7.89014C233.128 8.08447 218.461 7.96289 203.796 7.9325C199.473 7.92359 195.106 8.22071 190.163 6.19751C188.935 4.97925 188.548 3.93823 188.132 2.32776C190.627 -0.369261 193.697 0.018678 196.63 0.020143C215.793 0.029787 234.956 0.0253916 254.118 0.18091C262.595 0.249635 262.526 0.682254 264.467 8.69397C266.053 15.2347 266.16 21.7495 265.761 29.271Z" fill="#4F3020"/>
<path id="Vector_17" d="M304.715 86.2249C304.573 82.7613 303.655 79.7564 304.963 76.9419C306.479 73.6794 309.012 71.6384 312.734 72.2808C316.068 72.8563 316.249 75.6676 316.177 78.4088C316.109 81.0283 316.055 83.648 316.066 87.1466C315.769 88.3941 315.333 88.6256 314.831 88.7199C315.263 89.9815 314.216 88.4923 315.831 88.2384C316.954 88.6286 317.619 89.815 316.906 90.4222C313.47 93.3452 309.367 91.7384 305.565 91.5629C302.078 91.4021 300.479 88.8828 300.111 84.7907C301.014 84.6195 301.947 85.2006 303.373 86.0374C304.228 86.4519 304.591 86.6106 304.715 86.2249Z" fill="#4F3020"/>
<path id="Vector_18" d="M271.57 273.287C269.762 273.887 267.278 273.945 267.615 271.847C269.176 262.135 267.463 252.661 266.183 243.127C265.982 241.634 266.387 240.06 266.553 238.013C269.571 240.951 266.502 245.377 270.78 247.537C272.676 255.917 272.174 264.142 271.57 273.287Z" fill="#4F3020"/>
<path id="Vector_19" d="M302.868 69.9359C306.101 63.8652 311.412 65.7213 316.744 67.6771C312.512 69.2437 307.611 66.9775 302.868 69.9359Z" fill="#4F3020"/>
<path id="Vector_20" d="M299.58 74.4583C300.101 76.7706 300.121 79.5651 300.111 83.1989C300.08 84.0382 300.115 84.0056 300.134 83.9933C297.14 81.2826 297.957 78.1295 299.58 74.4583Z" fill="#4F3020"/>
<path id="Vector_21" d="M300.145 74.0272C300.474 72.9099 300.784 71.7727 301.606 70.3182C301.779 71.1138 301.438 72.2269 300.589 73.6581C300.08 73.9762 300.125 74.0074 300.145 74.0272Z" fill="#4F3020"/>
<path id="Vector_22" d="M189.507 6.943C191.676 3.65589 194.72 3.81922 197.678 3.82166C216.495 3.83728 235.314 3.82215 254.131 3.96448C261.274 4.01856 262.188 5.02356 261.681 12.021C261.279 17.584 259.681 23.0929 261.636 29.3525C261.985 45.8154 261.848 61.6313 261.889 77.4469C261.903 82.4121 261.549 87.306 260.476 92.9828C256.715 97.8126 262.579 105.273 254.276 108.033C238.794 105.835 224.124 107.299 209.5 107.079C201.043 106.951 199.047 112.409 199.073 119.682C199.145 139.328 199.107 158.976 199.093 178.623C199.082 194.274 199.064 209.925 199.118 225.576C199.159 237.423 200.604 238.584 212.237 239.086C224.804 239.628 237.499 237.23 250.663 241.316C253.854 245.368 254.126 249.313 254.14 253.312C254.227 277.43 254.214 301.548 254.146 325.665C254.135 329.651 254.035 333.631 250.823 337.811C240.305 341.511 230.089 339.479 219.095 340.237C209.032 339.221 199.736 341.338 189.911 338.238C186.295 331.983 185.353 325.711 185.308 319.558C185.131 295.076 184.727 270.588 185.694 245.177C188.845 239.548 189.205 234.355 189.187 228.958C189.098 202.077 189.165 175.196 189.136 148.315C189.123 136.102 192.839 124.055 190.295 110.929C189.815 76.0242 189.754 41.945 189.507 6.943Z" fill="#916E4E"/>
<path id="Vector_23" d="M72.7093 190.238C67.6747 192.522 67.3993 197.238 66.2494 201.238C61.0257 219.406 56.1087 237.662 51.0589 255.968C48.8724 256.265 48.766 254.456 48.3295 252.945C39.2914 221.687 30.3812 190.43 19.5316 159.682C13.8016 143.443 7.4647 127.396 2.03502 111.039C-0.243304 104.177 -0.804338 97.5306 1.36217 90.5302C4.40611 80.6952 7.69566 70.8661 9.68541 60.7983C11.1463 53.4022 15.4007 51.0884 21.8866 50.088C32.0482 48.5208 42.1483 46.5594 52.2938 44.8844C70.2811 41.9148 88.2836 39.0347 107.108 36.1503C112.339 40.7526 109.359 45.7539 108.19 50.2072C101.575 75.3918 94.1727 100.373 88.9891 126.728C84.1566 142.58 79.4569 157.659 76.9837 174.057C76.9051 175.268 76.8631 175.746 76.7147 176.923C76.0262 179.831 75.7821 182.065 76.1258 185.042C75.9501 187.723 75.3705 189.478 72.7093 190.238Z" fill="#815D3D"/>
<path id="Vector_24" d="M72.0002 190.843C73.7365 188.774 74.1013 186.961 73.9514 184.25C73.0046 182.162 73.1223 180.654 73.7443 178.53C74.198 177.92 74.0813 177.981 74.0891 178.047C78.301 161.831 83.4099 145.789 87.1853 128.555C94.0041 99.0623 102.303 70.7726 108.68 42.0084C109.446 38.5527 110.65 36.4515 115.304 37.3867C132.568 41.3889 149.131 44.7955 165.514 48.9177C177.446 51.9197 177.73 53.0226 175.1 64.7961C174.089 69.3203 173.192 73.8697 172.258 79.2197C168.505 88.9888 167.634 98.6922 165.458 108.025C153.847 157.823 141.563 207.447 129.202 257.062C122.944 282.182 114.78 306.836 110.382 333.221C110.927 336.541 109.751 338.697 108.502 341.498C108.061 342.067 108.125 342.028 108.147 341.997C93.8908 340.271 80.446 335.557 66.9983 330.779C63.0471 329.375 61.1062 326.81 60.4055 322.894C57.6032 307.238 56.6052 291.282 52.5168 275.838C51.9021 273.516 52.905 271.265 53.3068 268.981C57.9177 242.806 66.5271 217.6 72.0002 190.843Z" fill="#906D4D"/>
<path id="Vector_25" d="M159.602 170.411C159.846 169.803 159.934 168.91 159.96 168.462C160.241 164.431 165.666 161.132 160.287 156.634C160.371 153.646 160.744 151.279 161.583 148.477C162.075 147.172 162.101 146.303 162.167 144.784C163.928 142.028 165.07 139.702 164.659 136.308C166.371 125.693 168.126 115.608 170.482 105.666C172.378 97.6618 176.773 90.284 176.647 80.8797C178.466 72.2924 180.38 64.588 181.801 56.7936C182.843 51.0815 181.402 49.043 174.42 47.2613C158.99 43.3238 143.46 39.7783 127.96 36.118C124.086 35.2032 120.098 34.7057 116.292 33.58C110.064 31.7375 103.952 31.5883 97.6246 33.133C94.0245 34.0119 89.4552 36.1368 88.3311 29.6627C86.9854 21.9059 89.0494 18.8984 96.1978 18.0342C105.732 16.8818 115.222 15.2319 124.784 14.4681C142.036 13.0899 158.83 9.12604 175.796 6.13178C186.088 4.31525 186.112 4.26056 186.13 14.8221C186.156 29.4562 186.055 44.0908 186.148 58.7242C186.197 66.3758 183.021 73.8763 184.575 81.4949C186.798 92.3926 185.729 103.354 186.099 114.288C186.302 120.298 185.838 126.22 184.536 132.899C187.914 138.093 187.002 143.24 187.071 148.164C187.863 204.395 185.774 260.609 185.963 316.839C185.987 323.981 189.468 331.325 184.691 339.102C179.344 339.059 174.673 338.279 169.203 337.395C166.199 334.779 163.626 332.627 161.042 329.611C159.368 326.972 158.011 324.891 155.429 323.009C152.715 319.931 151.386 316.724 149.31 313.228C149.002 312.196 148.929 311.77 148.881 310.697C149.303 307.959 149.886 305.913 150.689 303.259C151.226 302.327 151.507 301.993 152.41 301.445C158.61 301.965 161.004 306.061 163.343 311.125C164.374 312.289 164.869 313.027 164.906 313.992C164.872 313.019 164.373 312.272 163.419 311.013C163.037 305.55 168.879 303.434 168.741 297.872C168.714 296.851 168.648 296.452 168.461 295.467C168.245 294.113 168.202 293.341 168.254 292.017C168.629 290.474 168.191 290.395 166.837 290.492C163.132 286.056 167.008 282.118 167.149 278.026C167.55 266.341 166.299 255.001 164.145 242.956C164.25 241.82 164.332 241.374 164.62 240.286C166.107 236.885 166.519 233.824 168.052 230.503C168.783 228.879 169.379 227.857 169.406 226.08C169.278 222.995 167.255 221.234 166.729 218.241C166.69 217.179 166.722 216.749 166.886 215.677C167.729 212.521 167.942 209.963 167.45 206.917C167.216 206.47 166.348 205.989 166.348 205.989C166.348 205.989 165.353 206.029 164.804 206.25C159.445 208.336 155.186 208.091 151.911 202.623C150.424 197.425 150.807 193.077 153.556 188.517C155.582 189.234 156.265 188.134 157.096 186.451C157.36 185.401 157.495 184.986 157.963 184.006C163.359 179.703 160.926 175.324 159.602 170.411Z" fill="#78563C"/>
<path id="Vector_26" d="M184.739 339.934C184.062 277.416 184.107 214.994 184.164 152.572C184.169 146.928 184.255 141.285 184.431 134.68C185.348 133.797 186.136 133.875 187.522 133.977C189.37 135.218 189.966 136.731 189.964 138.444C189.916 173.126 190.825 207.812 189.096 243.396C188.545 269.111 188.402 293.918 188.232 318.724C188.191 324.683 190.814 330.378 189.949 337.302C190.383 338.557 190.8 338.923 190.529 339.758C188.382 340.161 186.924 340.095 184.739 339.934Z" fill="#5C3F2D"/>
<path id="Vector_27" d="M189.372 243.934C187.588 226.745 188.275 209.167 188.184 191.598C188.088 173.024 188.173 154.449 188.15 134.938C188.655 126.538 187.064 118.969 189.563 110.847C192.645 110.453 193.96 112.101 193.936 114.813C193.878 121.445 194.903 128.181 193.341 134.672C192.229 139.295 192.111 143.86 192.108 148.498C192.085 176.738 192.133 204.98 192.022 233.22C192.008 236.716 193.275 240.618 189.372 243.934Z" fill="#78563C"/>
<path id="Vector_28" d="M115.532 37.2408C112.029 37.6754 110.617 39.7428 109.869 43.7317C105.76 65.6164 99.7793 87.0725 94.4111 108.668C92.8911 114.786 91.0464 120.824 88.915 127.484C88.0791 128.43 87.6797 128.792 86.7061 128.584C88.1196 111.581 92.9438 95.799 97.1421 79.8698C100.839 65.8437 104.412 51.7848 107.987 36.9621C110.312 36.0801 112.715 35.68 115.532 37.2408Z" fill="#613A25"/>
<path id="Vector_29" d="M170.129 293.342C173.312 302.434 173.153 303.058 167.095 307.77C166.112 308.535 165.355 309.591 164.214 311.344C158.883 310.673 157.532 305.04 152.701 302.324C152.115 302.011 151.416 301.441 151.771 301.715C151.033 304.513 156.194 307.568 150.843 309.914C149.063 311.444 148.399 313.375 145.576 313.811C143.982 313.866 143.094 313.705 141.64 313.134C140.695 312.613 140.341 312.373 139.516 311.717C138.185 310.444 137.482 309.445 136.177 308.205C135.461 307.541 135.18 307.271 134.49 306.581C133.333 305.251 132.496 304.421 131.316 303.083C130.691 302.282 130.457 301.944 129.908 301.07C129.072 299.372 128.45 298.256 127.843 296.414C128.041 292.653 130.206 292.518 133.18 293.177C135.502 295.312 138.143 295.789 140.046 298.216C139.447 294.758 136.567 295.737 134.476 294.259C130.507 289.369 139.163 282.59 130.66 278.516C133.377 265.494 135.923 252.767 139.872 240.492C143.942 227.838 143.883 214.073 151.102 202.053C155.895 203.553 159.877 206.399 165.761 204.149C166.819 204.255 167.184 204.85 167.651 204.421C169.422 204.24 171.392 204.807 171.118 205.93C170.318 209.208 171.518 212.86 168.696 215.913C168.101 219.47 172.499 220.929 171.497 225.569C167.965 226.362 167.069 223.681 165.092 221.403C164.369 220.335 163.893 219.853 163.327 219.461C162.65 220.61 162.982 219.199 164.448 220.496C166.272 223.294 167.998 225.383 169.894 228.879C168.582 233.186 169.535 237.032 166.683 239.939C164.921 243.615 170.643 246.788 168.516 248.786C163.528 253.471 173.942 251.849 170.698 255.729C168.742 258.067 170.997 261.631 171.019 264.685C171.061 270.589 167.872 276.59 171.344 282.561C172.051 283.778 169.61 285.069 168.374 286.142C166.726 287.573 166.75 288.846 169.573 289.886C170.179 290.938 170.16 291.816 170.129 293.342Z" fill="#5F412F"/>
<path id="Vector_30" d="M251.01 338.623C250.214 307.067 250.168 275.492 250.128 242.984C255.104 228.428 253.986 213.965 254.725 199.988C256.121 173.551 255.018 146.99 255.163 120.482C255.187 116.107 253.922 111.987 253.831 106.862C256.782 105.597 257.98 104.025 258.095 101.415C258.192 99.2053 257.924 96.9055 259.794 94.3525C260.347 128.701 260.383 163.609 260.404 198.518C260.432 244.399 260.448 290.28 260.299 337.086C259.774 338.261 259.419 338.511 258.416 338.706C255.765 338.636 253.763 338.62 251.01 338.623Z" fill="#A48360"/>
<path id="Vector_31" d="M143.472 312.323C145.703 311.53 147.356 311.037 149.614 310.295C150.22 310.044 150.216 310.954 150.196 311.409C150.398 312.171 150.619 312.479 150.977 313.339C151.195 314.651 151.333 315.4 151.738 316.675C152.084 317.574 152.215 317.937 152.577 318.831C153.509 320.718 154.083 322.149 155.582 323.62C156.359 324.115 156.677 324.296 157.457 324.761C158.513 325.437 159.127 325.798 160.23 326.373C160.994 326.811 161.29 327.002 162.005 327.517C165.398 329.84 167.948 332.142 168.32 336.667C157.188 334.271 145.563 334.837 134.15 333.56C131.551 333.269 129.004 333.113 126.426 332.456C118.227 330.366 116.032 328.031 118.743 320.097C121.937 310.745 122.617 300.668 127.66 291.797C129.62 288.35 129.356 283.639 130.16 278.763C131.131 278.348 132.522 278.405 132.887 279.046C135.158 283.035 141.811 280.21 142.626 284.038C143.764 289.378 135.772 286.395 134.586 290.609C134.41 291.233 134.32 291.881 134.155 293.261C132.653 294.371 130.674 293.074 130.027 295.744C131.082 297.022 131.088 298.205 131.796 299.695C132.162 300.486 132.181 300.833 132.237 301.7C133.501 302.879 134.519 303.77 135.723 305.464C136.137 306.009 136.119 306.003 136.119 305.996C136.119 305.989 136.83 306.648 137.099 307.039C137.367 307.43 137.962 308.156 138.341 308.444C138.72 308.732 139.491 309.302 139.817 309.654C140.144 310.005 140.119 310.001 140.119 309.987C140.866 311.042 141.611 312.114 143.472 312.323Z" fill="#644431"/>
<path id="Vector_32" d="M266.09 162.999C263.672 156.189 266.345 150.294 266.157 144.372C265.864 135.144 266.08 125.9 267.594 116.687C267.594 154.283 267.594 191.879 267.594 229.474C267.102 229.479 266.61 229.484 266.118 229.488C266.118 207.625 266.118 185.762 266.09 162.999Z" fill="#4F3020"/>
<path id="Vector_33" d="M159.185 170.009C160.055 170.062 160.238 170.348 160.476 170.578C168.818 178.611 168.819 178.61 158.697 185.737C156.59 184.84 156.212 183.005 155.043 180.852C154.611 176.42 155.179 172.785 159.185 170.009Z" fill="#5F412F"/>
<path id="Vector_34" d="M159.574 156.385C163.813 155.561 166.769 157.209 167.15 160.893C167.525 164.517 164.208 166.241 160.664 167.901C157.618 167.722 155.839 166.38 157.497 164.216C159.355 161.789 158.116 159.106 159.574 156.385Z" fill="#5F412F"/>
<path id="Vector_35" d="M264.204 315.524C264.207 310.795 264.207 306.898 264.207 302.467C268.938 309.545 269.346 314.675 265.928 324.58C263.287 321.896 264.6 318.892 264.204 315.524Z" fill="#4F3020"/>
<path id="Vector_36" d="M164.025 136.381C168.469 138.724 168.44 138.978 162.824 143.939C162.048 141.633 162.344 139.229 164.025 136.381Z" fill="#4A271A"/>
<path id="Vector_37" d="M264.69 295.072C264.377 291.866 263.479 289.031 265.564 285.643C266.069 289.535 266.929 292.577 264.69 295.072Z" fill="#4F3020"/>
<path id="Vector_38" d="M154.529 180.933C157.598 180.364 158.055 182.354 158.086 185.351C158.1 186.017 158.119 185.998 158.129 185.991C157.789 186.345 157.439 186.706 156.476 186.628C154.056 185.07 154.063 183.372 154.529 180.933Z" fill="#78563C"/>
<path id="Vector_39" d="M155.674 186.594C156.24 186.139 156.618 186.088 157.567 186.011C157.724 187.732 157.668 189.882 154.47 188.52C154.647 187.854 155.109 187.479 155.674 186.594Z" fill="#5F412F"/>
<path id="Vector_40" d="M317.475 233.597C313.823 234.945 309.678 236.615 304.342 235.674C307.263 230.733 312.187 232.627 317.475 233.597Z" fill="#5C3F2D"/>
<path id="Vector_41" d="M316.115 87.9938C315.112 88.6262 314.181 89.4816 313.088 89.835C312.356 90.0715 310.681 89.6838 310.648 89.4239C310.4 87.4289 312.192 88.5565 313.019 88.1211C313.524 87.855 314.226 87.9601 315.489 87.962C316.139 88.0255 316.119 88.003 316.115 87.9938Z" fill="#8E694A"/>
<path id="Vector_42" d="M304.321 85.8303C304.642 86.1091 304.807 86.5376 304.972 86.9661C304.73 86.9182 304.488 86.8704 304.056 86.558C303.865 86.2932 304.164 85.98 304.321 85.8303Z" fill="#8E694A"/>
<path id="Vector_43" d="M253.367 105.749C257.215 109.417 258.068 113.414 258.036 117.948C257.842 145.851 258.148 173.762 257.579 201.655C257.364 212.24 256.121 222.831 256.318 233.453C256.389 237.259 254.888 239.801 250.814 241.694C235.516 242.016 220.897 242.074 206.281 241.915C197.146 241.816 196.007 240.705 196.003 231.441C195.985 192.902 196.046 154.363 196.192 115.824C196.229 106.176 198.38 104.066 207.899 104.012C220.191 103.943 232.484 104.138 244.776 104.176C247.462 104.185 250.082 104.414 253.367 105.749Z" fill="#644431"/>
<path id="Vector_44" d="M234.306 300.387C233.842 301.231 233.57 301.468 233.039 301.811C230.353 303.269 227.938 303.553 225.265 301.022C223.752 296.512 227.407 292.874 225.059 288.096C222.871 291.431 224.363 294.7 223.455 298.218C219.443 303.348 217.311 299.741 214.523 296.591C214.086 295.974 214.123 295.998 214.126 296.02C211.709 289.83 213.287 284.361 217.684 278.648C218.133 277.963 218.122 278.005 218.102 278.01C222.812 273.992 227.738 274.277 232.391 277.874C238.758 282.795 238.853 289.494 236.548 297.305C236.102 298.046 236.116 297.997 236.137 297.982C235.552 298.526 235.008 299.141 234.306 300.387Z" fill="#8D6B4F"/>
<path id="Vector_45" d="M223.436 55.5471C221.06 50.346 221.639 46.0031 224.709 42.0671C226.103 40.2807 228.617 39.52 229.655 41.4476C231.437 44.757 232.849 48.7001 231.392 52.4869C230.198 55.5892 228.14 58.4875 223.436 55.5471Z" fill="#4A271A"/>
<path id="Vector_46" d="M236.689 297.612C236.121 295.111 236.324 292.163 236.125 289.242C235.437 279.128 229.713 275.265 218.821 277.969C221.016 272.597 225.609 273.277 230.125 275.109C236.16 277.558 239.577 282.198 239.981 288.823C240.17 291.94 239.043 294.672 236.689 297.612Z" fill="#613A25"/>
<path id="Vector_47" d="M225.835 297.869C226.768 301.419 228.788 302.047 232.071 301.943C222.996 305.572 220.587 304.986 214.163 296.704C216.812 296.264 217.851 300.768 221.801 298.446C223.072 297.225 224.093 297.001 225.835 297.869Z" fill="#613A25"/>
<path id="Vector_48" d="M217.447 278.234C216.953 283.476 213.098 288.365 214.211 295.237C210.119 289.463 210.928 283.607 217.447 278.234Z" fill="#613A25"/>
<path id="Vector_49" d="M234.497 300.505C234.403 300.175 234.721 299.388 235.598 298.284C235.741 298.66 235.325 299.354 234.497 300.505Z" fill="#613A25"/>
<path id="Vector_50" d="M85.8281 128.684C86.5234 128.016 86.9141 128.018 87.8916 128.044C86.9062 145.205 81.6929 161.351 74.6201 177.623C74.8926 161.153 80.2715 145.269 85.8281 128.684Z" fill="#4A271A"/>
<path id="Vector_51" d="M73.7762 178.301C74.1141 179.329 74.0311 180.737 73.9198 182.839C72.1859 182.084 72.2313 180.442 73.7762 178.301Z" fill="#4A271A"/>
<path id="Vector_52" d="M123.79 233.639C123.045 234.025 122.626 233.879 122.405 233.904C117.792 237.611 113.334 234.897 108.968 233.948C97.9771 231.558 88.1627 225.935 77.106 221.73C74.1075 209.132 80.4127 198.599 82.7408 187.484C86.5347 169.365 92.1719 151.626 96.7242 133.648C97.9351 128.867 99.692 125.551 106.154 126.637C116.763 128.523 126.305 131.304 135.898 133.802C147.419 136.803 148.779 139.266 145.777 150.611C138.502 178.109 131.049 205.56 123.79 233.639Z" fill="#A5856A"/>
<path id="Vector_53" d="M76.7109 222.106C80.851 221.11 83.1919 220.585 87.228 222.903C94.7148 227.204 103.737 228.846 112.142 231.528C114.936 232.419 117.797 233.103 121.406 233.905C122.185 233.929 122.159 234.849 122.159 235.309C122.745 236.754 122.749 237.742 121.794 239.431C117.139 247.679 110.951 249.706 102.974 246.494C92.9194 242.444 81.7675 241.635 71.7539 235.415C70.6167 229.722 71.1533 225.126 76.7109 222.106Z" fill="#725641"/>
<path id="Vector_54" d="M77.4006 221.273C74.0315 224.757 72.6189 228.442 72.1121 233.3C73.1238 235.311 73.636 236.764 73.1702 239.159C72.4304 240.192 71.9929 240.491 70.8801 240.371C66.9241 237.115 68.6824 233.927 69.5247 230.767C76.2776 205.439 83.0183 180.108 89.7429 154.772C93.9133 139.061 97.9724 123.32 102.236 107.633C104.166 100.53 104.336 100.576 112.275 103.678C110.931 105.896 109.166 107.298 108.434 110.122C106.437 115.524 103.459 120.347 108.621 125.694C108.739 127.309 108.315 128.092 106.924 128.9C102.949 128.048 99.8342 127.089 98.5852 131.955C91.2859 160.384 83.5037 188.693 77.4851 217.437C77.2844 218.396 77.3455 219.41 77.4006 221.273Z" fill="#553222"/>
<path id="Vector_55" d="M106.969 129.424C106.714 128.452 107.183 127.829 107.861 126.872C114.646 122.501 120.491 127.618 126.711 128.045C132.743 128.458 138.089 133.204 144.924 130.393C145.85 128.751 146.469 127.653 146.96 125.814C147.562 121.745 148.125 118.318 149.622 114.495C152.19 114.246 154.064 115.014 154.078 117.478C154.095 120.439 154.231 123.522 153.506 126.345C144.786 160.307 135.929 194.233 127.05 228.153C126.559 230.026 126.204 232.078 123.787 233.731C129.743 207.309 136.3 180.556 143.195 153.891C146.809 139.913 147.081 139.961 132.773 136.211C124.424 134.024 116.053 131.917 106.969 129.424Z" fill="#5C3F2D"/>
<path id="Vector_56" d="M150.102 113.988C152.623 117.435 150.568 120.882 150.006 125.008C136.248 121.194 122.674 116.326 108.058 112.334C107.045 111.627 106.684 111.284 105.971 110.283C105.812 106.427 106.241 103.438 111.383 104.046C114.458 106.912 118.235 105.831 121.667 107.65C131.898 105.972 139.739 112.673 149.495 113.604C150.161 114.074 150.147 113.981 150.102 113.988Z" fill="#A5856A"/>
<path id="Vector_57" d="M95.5276 295.646C90.7995 303.307 83.4992 305.838 77.8347 302.323C70.8581 297.995 68.6985 288.95 72.8288 281.354C76.3562 274.866 84.1623 272.24 90.7595 275.322C98.4392 278.91 100.833 286.266 96.6667 295.616C92.5964 293.552 93.7234 289.449 92.5861 286.135C91.2092 282.123 88.5969 278.741 83.9416 279.873C78.1193 281.289 76.6247 286.17 77.2844 291.515C77.9377 296.808 82.1189 297.084 86.279 296.815C89.198 296.627 91.779 294.388 95.5276 295.646Z" fill="#5C3F2D"/>
<path id="Vector_58" d="M70.6964 240.483C70.631 239.924 71.0578 239.895 72.1242 239.821C80.692 235.16 86.9669 242.546 94.296 242.862C98.0607 243.024 101.95 244.807 105.516 246.306C113.619 249.71 118.114 247.528 120.058 238.399C121.147 237.602 121.547 237.164 121.988 236.189C125.857 240.279 124.117 245.164 122.89 249.863C121.841 253.882 118.398 254.63 114.931 253.931C110.404 253.019 105.963 251.639 101.532 250.306C91.4025 247.259 81.3009 244.117 70.6964 240.483Z" fill="#5C3F2D"/>
<path id="Vector_59" d="M132.106 68.2878C137.725 64.0519 142.977 66.0614 146.891 70.5865C151.239 75.6128 151.354 81.5084 146.147 87.1674C141.667 81.589 145.7 71.4282 134.1 70.1796C133.114 69.5511 132.759 69.2408 132.106 68.2878Z" fill="#644431"/>
<path id="Vector_60" d="M149.703 113.508C140.982 113.862 132.819 109.251 123.111 107.919C124.466 105.385 127.001 106.152 129.591 106.821C136.245 108.539 142.926 110.155 149.703 113.508Z" fill="#5C3F2D"/>
<path id="Vector_61" d="M128.764 88.9965C123.192 85.7773 121.088 80.8018 125.978 74.5978C129.791 78.5905 129.113 83.285 128.764 88.9965Z" fill="#644431"/>
<path id="Vector_62" d="M139.103 90.8755C136.08 95.7426 132.498 93.1974 128.402 90.7337C127.928 90.2326 128.205 89.9212 128.345 89.7675C131.753 86.8859 134.943 88.331 139.103 90.8755Z" fill="#644431"/>
<path id="Vector_63" d="M125.964 73.8568C126.329 70.9388 127.75 68.8953 131.184 67.824C131.81 67.645 132.064 67.9534 132.188 68.11C133.05 71.9254 131 73.5969 127.158 74.371C126.446 74.243 126.124 73.9872 125.964 73.8568Z" fill="#644431"/>
<path id="Vector_64" d="M142.903 89.5616C143.166 90.6272 142.213 91.2477 140.666 91.9142C140.073 91.9603 140.112 91.9993 140.128 92.0206C139.29 90.3442 140.353 89.6587 142.903 89.5616Z" fill="#644431"/>
<path id="Vector_65" d="M146.127 88.0135C145.933 88.675 145.555 89.1945 144.561 89.7972C144.119 90.0068 144.119 90.0006 144.119 89.9957C143.78 89.0764 143.968 88.3135 145.429 87.8514C146.088 87.9762 146.115 87.9978 146.127 88.0135Z" fill="#644431"/>
<path id="Vector_66" d="M162.231 327.214C162.037 327.878 161.651 327.916 160.682 327.985C159.345 328.705 158.453 328.979 156.818 328.506C156.185 327.784 156.177 327.448 156.157 326.608C155.464 325.494 155.088 324.733 155.722 322.771C159.23 322.267 161.224 323.747 162.231 327.214Z" fill="#5F412F"/>
<path id="Vector_67" d="M149.64 314.738C150.078 313.753 150.097 313.376 150.145 312.431C153.519 313.776 154.776 317.142 156.287 321.075C156.427 321.72 156.17 321.941 156.04 322.049C153.061 322.984 152.201 320.66 150.517 318.49C150.119 317.973 150.119 318.001 150.131 318.008C149.449 317.259 149.161 316.362 149.64 314.738Z" fill="#5F412F"/>
<path id="Vector_68" d="M162.09 148.028C162.918 148.31 163.789 148.58 164.659 148.849C164.433 149.385 164.337 150.246 163.958 150.397C162.663 150.915 162.412 149.864 162.177 148.42C162.157 147.93 162.132 148.015 162.09 148.028Z" fill="#4A271A"/>
<path id="Vector_69" d="M172.109 226.004C174.066 227.744 173.584 228.994 170.794 230.023C170.254 230.151 170.141 230 170.09 229.921C169.428 228.469 170.004 227.462 171.59 226.293C172.141 225.988 172.119 225.997 172.109 226.004Z" fill="#5F412F"/>
<path id="Vector_70" d="M164.177 311.963C165.024 312.639 166.58 313.182 164.931 314.54C164.637 314.052 164.343 313.564 163.992 312.626C163.934 312.177 164.094 312.032 164.177 311.963Z" fill="#5F412F"/>
<path id="Vector_71" d="M166.129 204.008C166.163 203.091 166.097 202.084 167.139 201.666C167.254 201.62 167.765 202.558 168.105 203.515C168.119 203.991 168.119 204.001 168.119 204.005C167.776 204.388 167.434 204.766 166.596 204.562C166.099 203.981 166.119 203.997 166.129 204.008Z" fill="#5F412F"/>
<path id="Vector_72" d="M170.092 289.963C170.283 290.004 170.261 288.63 170.435 289.942C170.197 290.06 170.123 289.999 170.092 289.963Z" fill="#5F412F"/>
<path id="Vector_73" d="M134.119 294.003C135.309 293.524 136.728 293.304 137.64 292.506C139.49 290.883 141.038 290.857 142.603 292.696C143.795 294.097 146.192 295.584 144.325 297.504C142.175 299.714 143.396 302.208 143.62 305.056C138.466 302.764 137.605 298.086 134.4 294.603C134.119 294.005 134.119 294.001 134.119 294.003Z" fill="#78563C"/>
<path id="Vector_74" d="M171.579 225.701C171.614 226.952 171.087 227.917 170.299 229.361C166.542 228.079 165.354 224.738 164.175 220.677C166.418 221.805 168.718 223.609 171.579 225.701Z" fill="#78563C"/>
<path id="Vector_75" d="M136.789 309.98C136.126 309.105 136.137 308.215 136.133 306.657C137.93 306.16 139.458 306.725 140.046 309.37C139.25 309.992 138.356 309.978 136.789 309.98Z" fill="#78563C"/>
<path id="Vector_76" d="M152.124 301.995C151.799 302.015 151.472 302.052 151.143 302.065C149.891 302.116 148.64 302.159 147.389 302.204C147.501 301.682 147.444 300.872 147.757 300.687C149.007 299.949 150.259 300.245 151.746 301.571C152.115 302.011 152.119 302.001 152.124 301.995Z" fill="#78563C"/>
<path id="Vector_77" d="M163.901 219.534C162.811 219.853 161.391 219.872 160.948 218.236C160.889 218.019 161.231 217.461 161.412 217.45C162.565 217.379 163.159 218.196 163.901 219.534Z" fill="#78563C"/>
<path id="Vector_78" d="M168.119 215.998C166.813 215.874 165.404 215.903 164.971 214.262C164.913 214.043 165.25 213.489 165.43 213.477C166.575 213.4 167.171 214.207 167.908 215.539C168.119 216.005 168.119 216.001 168.119 215.998Z" fill="#78563C"/>
<path id="Vector_79" d="M170.118 293.996C169.928 294.23 169.773 294.511 169.544 294.703C168.61 295.49 167.629 296.172 166.415 295.234C166.306 295.149 166.357 294.607 166.416 294.592C167.282 294.365 168.162 294.191 169.588 294.009C170.138 294.012 170.119 294.002 170.118 293.996Z" fill="#78563C"/>
<path id="Vector_80" d="M136.05 305.384C135.017 305.07 133.897 304.131 132.526 302.706C134.132 302.153 135.484 302.821 136.05 305.384Z" fill="#78563C"/>
<path id="Vector_81" d="M165.906 239.544C164.828 239.898 163.454 239.912 163.013 238.31C162.954 238.096 163.279 237.548 163.454 237.535C164.581 237.45 165.17 238.24 165.906 239.544Z" fill="#78563C"/>
<path id="Vector_82" d="M143.567 311.751C142.208 314.107 141.043 313.406 140.194 310.537C141.106 310.476 142.095 310.977 143.567 311.751Z" fill="#78563C"/>
<path id="Vector_83" d="M166.126 204.452C166.436 203.998 166.772 204.016 167.614 204.022C167.781 204.799 167.443 205.588 167.105 206.376C166.788 205.892 166.471 205.408 166.126 204.452Z" fill="#78563C"/>
<path id="Vector_84" d="M132.113 299.554C131.525 299.195 130.907 298.252 130.275 296.73C130.87 297.09 131.477 298.029 132.113 299.554Z" fill="#78563C"/>
<path id="Vector_85" d="M163.175 247.093C163.074 247.151 163.275 247.035 163.175 247.093V247.093Z" fill="#78563C"/>
<path id="Vector_86" d="M150.182 318.665C151.705 319.17 153.291 320.366 155.393 321.86C155.993 323.031 156.077 323.905 156.153 325.441C152.274 325.521 151.296 322.407 150.182 318.665Z" fill="#78563C"/>
<path id="Vector_87" d="M143.595 326.051C143.742 327.332 144.791 329.098 142.99 329.952C142.796 330.043 142.016 329.297 141.774 328.808C141.092 327.434 141.481 326.449 143.595 326.051Z" fill="#78563C"/>
<path id="Vector_88" d="M144.121 326.005C144.351 324.742 144.453 323.27 146.051 323.044C147.173 322.884 147.669 323.866 148.033 325.423C147.229 325.976 146.339 325.958 144.782 325.966C144.115 325.993 144.119 326.001 144.121 326.005Z" fill="#78563C"/>
<path id="Vector_89" d="M148.119 326.003C149.329 326.52 150.584 327.015 150.616 328.616C150.62 328.793 150.108 329.167 149.885 329.132C148.713 328.953 148.42 328.01 148.178 326.506C148.119 325.995 148.119 326.001 148.119 326.003Z" fill="#78563C"/>
<path id="Vector_90" d="M129.142 305.596C130.335 305.566 131.254 306.229 130.436 306.999C129.671 307.719 128.928 306.924 129.142 305.596Z" fill="#78563C"/>
<path id="Vector_91" d="M156.512 328.504C157.062 328.072 157.928 328.025 159.447 327.997C159.282 329.329 158.276 329.938 156.512 328.504Z" fill="#78563C"/>
<path id="Vector_92" d="M136.121 310.004C135.872 310.786 135.622 311.564 135.371 312.342C134.071 311.717 134.856 311.095 135.745 310.234C136.116 309.996 136.119 310.001 136.121 310.004Z" fill="#78563C"/>
<path id="Vector_93" d="M149.632 314.411C150.071 314.994 150.082 315.856 150.118 317.368C148.861 317.181 148.138 316.188 149.632 314.411Z" fill="#78563C"/>
<path id="Vector_94" d="M137.152 285.048C137.083 285.081 137.221 285.014 137.152 285.048V285.048Z" fill="#5F412F"/>
<path id="Vector_95" d="M201.649 127.476C216.023 128.653 229.879 130.153 243.843 129.838C251.866 129.657 252.06 130.003 252.083 138.338C252.156 164.894 252.079 191.45 251.973 218.932C251.612 220.253 251.339 220.649 250.544 220.546C247.19 217.516 243.71 218.407 240.471 218.372C229.822 218.257 219.169 218.388 208.521 218.257C200.24 218.156 199.972 217.979 199.974 209.9C199.982 183.275 200.149 156.65 200.393 129.109C200.748 127.783 200.964 127.373 201.649 127.476Z" fill="#A5856A"/>
<path id="Vector_96" d="M202.72 127.408C202.119 127.989 201.323 128.091 200.927 128.142C200.456 127.533 200.341 126.874 200.312 126.212C199.793 113.995 199.795 113.959 211.875 113.915C224.097 113.87 236.318 113.905 248.579 113.328C240.781 111.168 232.723 112.469 224.8 111.985C217.051 111.512 209.154 113.084 201.476 110.893C201.83 107.402 204.195 107.804 205.96 107.804C219.249 107.798 232.541 107.764 245.825 108.055C253.131 108.215 254.028 109.716 252.757 117.399C251.347 125.926 251.345 125.843 243.06 126.048C229.814 126.375 216.534 124.875 202.72 127.408Z" fill="#916E4E"/>
<path id="Vector_97" d="M249.398 220.574C250.023 220.045 250.959 219.989 251.422 219.923C251.924 220.188 251.988 220.518 251.995 220.85C252.225 231.973 252.225 231.995 241.408 232.016C229.153 232.04 216.897 232.021 204.641 232.021C204.638 232.768 204.634 233.514 204.631 234.26C219.954 234.26 235.277 234.26 250.604 234.26C250.557 237.998 248.625 237.902 247.106 237.91C233.777 237.981 220.447 238.088 207.12 237.92C200.761 237.84 200.003 236.733 199.976 230.005C199.949 223.138 200.701 222.002 206.883 221.888C217.209 221.699 227.542 221.902 237.872 221.833C241.51 221.809 245.21 222.371 249.398 220.574Z" fill="#8D6B4F"/>
<path id="Vector_98" d="M227.051 297.962C225.492 298.318 224.542 298.208 222.88 298.038C219.398 293.815 218.635 289.427 221.141 284.919C223.21 281.199 226.645 281.199 228.676 284.949C231.011 289.261 232.08 293.647 227.051 297.962Z" fill="#34150F"/>
<path id="Vector_99" d="M98.1377 171.352C108.284 172.872 117.858 174.939 127.841 178.949C119.689 180.925 104.941 177.128 98.1377 171.352Z" fill="#613F2E"/>
<path id="Vector_100" d="M115.684 156.297C110.958 154.871 106.54 154.82 103.322 151.395C113.744 152.287 123.822 154.399 133.279 159.157C127.261 160.51 121.974 157.783 115.684 156.297Z" fill="#613F2E"/>
<path id="Vector_101" d="M113.749 221.079C104.507 218.913 95.2666 217.745 87.502 212.193C96.5542 214.575 106.096 215.291 113.749 221.079Z" fill="#7B5840"/>
<path id="Vector_102" d="M120.489 200.269C111.832 198.42 103.683 196.24 95.5347 194.061C95.751 193.322 95.9668 192.583 96.1831 191.844C104.729 193.551 113.658 193.877 120.489 200.269Z" fill="#6D4C36"/>
<path id="Vector_103" d="M119.991 238.281C120.543 239.25 120.506 240.581 120.386 241.905C119.467 252.002 119.057 252.209 109.754 249.57C97.9512 246.222 86.0938 243.067 73.5117 239.802C72.522 238.34 72.2803 236.906 72.0791 234.741C82.3008 237.047 92.8008 239.318 102.561 243.37C110.219 246.549 115.005 244.638 119.991 238.281Z" fill="#A18264"/>
<path id="Vector_104" d="M148.594 129.313C148.207 135.076 145.963 136.803 140.793 135.278C130.442 132.223 119.965 129.598 108.805 126.667C102.782 125.523 100.986 122.433 102.623 117.329C103.321 115.152 104.058 112.988 105.198 110.221C105.618 109.624 105.876 109.814 106.002 109.912C113.856 125.599 129.678 124.027 143.146 127.372C144.945 127.819 147.08 126.838 148.594 129.313Z" fill="#A5856A"/>
<path id="Vector_105" d="M148.954 129.579C143.938 131.52 139.697 131.82 134.797 129.643C128.882 127.015 122.23 126.137 115.953 124.185C106.475 121.239 106.295 121.818 106.158 110.847C120.191 111.108 133.061 116.711 146.31 120.832C147.469 121.193 148.028 123.478 149.403 125.279C149.738 126.838 149.537 127.986 148.954 129.579Z" fill="#7B5840"/>
<path id="Vector_106" d="M96.1249 295.982C92.0243 297.968 88.1303 300.503 83.163 299.993C77.6239 299.425 74.743 296.842 74.1869 291.438C73.5048 284.812 76.7401 279.019 82.2264 277.043C86.493 275.505 91.2323 277.483 93.972 281.875C96.3998 285.767 95.9921 290.091 96.0487 295.197C96.1054 296.033 96.1039 295.989 96.1249 295.982Z" fill="#896548"/>
<path id="Vector_107" d="M146.06 87.1058C145.421 88.1481 144.893 88.5176 144.311 89.5377C143.018 90.3489 141.917 90.7068 140.48 91.5533C136.515 92.3185 133.392 90.2924 129.209 89.7084C126.645 85.1967 125.69 80.6405 126.384 75.0392C128.185 72.5876 129.924 70.9324 131.987 68.7719C145.486 68.8787 146.312 69.9609 146.06 87.1058Z" fill="#906D4D"/>
<path id="Vector_108" d="M220.446 169.879C229.917 170.174 238.516 168.977 247.484 170.779C242.271 174.786 217.691 175.366 206.663 171.742C211.23 168.855 215.549 170.338 220.446 169.879Z" fill="#674834"/>
<path id="Vector_109" d="M229.979 192.1C222.386 192.049 215.749 192.011 209.113 191.878C208.664 191.869 208.229 191.137 207.789 190.741C214.303 187.688 227.253 187.719 247.369 191.057C241.095 192.734 235.959 191.748 229.979 192.1Z" fill="#5C3F2D"/>
<path id="Vector_110" d="M239.875 151.869C228.899 151.939 218.677 151.939 208.454 151.939C208.45 151.379 208.447 150.819 208.443 150.259C219.159 150.259 229.874 150.255 240.589 150.28C240.867 150.281 241.144 150.604 241.421 150.777C241.157 151.117 240.892 151.458 239.875 151.869Z" fill="#5B3824"/>
<path id="Vector_111" d="M221.202 207.629C228.565 206.451 228.565 206.451 234.489 209.568C225.66 210.183 217.797 211.009 208.329 209.225C213.232 207.057 216.917 208.219 221.202 207.629Z" fill="#513729"/>
<path id="Vector_112" d="M84.3389 282.123C90.7637 285.838 91.837 291.186 87.8443 295.477C85.1343 298.391 81.064 297.704 80.1714 293.889C79.1583 289.563 79.4576 285.29 84.3389 282.123Z" fill="#34150F"/>
<path id="Vector_113" d="M141.819 76.7712C141.786 78.8328 141.761 80.1875 141.449 81.473C140.6 84.9703 138.886 87.8403 134.75 87.3479C131.716 86.9866 129.699 80.946 131.062 77.1232C132.386 73.4098 135.669 72.0732 139.846 73.7693C140.638 74.0911 141.088 75.2566 141.819 76.7712Z" fill="#432015"/>
</g>
</svg>
