<svg width="363" height="919" viewBox="0 0 363 919" fill="none" xmlns="http://www.w3.org/2000/svg">
<g id="fenetre">
<path id="Vector" d="M363.19 79.5933C364.018 82.9226 364.018 85.7004 364.018 89.3115C359.574 94.3177 354.003 93.0641 348.817 93.0701C279.057 93.1507 209.297 93.1108 139.537 93.1446C134.907 93.1469 130.222 92.6311 124.892 94.5767C121.133 100.568 120.961 106.498 120.964 112.545C121.009 210.421 121.001 308.297 120.986 406.174C120.985 411.497 121.189 416.828 120.492 423.009C114.153 429.116 108.628 428.834 104.922 421.475C101.083 413.852 95.6246 412.245 87.4645 413.671C78.109 416.103 72.9606 422.709 66.7887 429.163C64.7838 429.149 63.7965 428.615 62.5621 426.903C60.8346 420.495 61.0514 414.816 61.0504 409.157C61.0338 288.878 61.0402 168.599 61.0441 48.3197C61.0446 45.6544 61.1481 42.9866 61.0997 40.3245C60.9659 32.9417 64.316 29.0735 71.9034 29.2362C73.566 29.2718 75.234 29.1762 76.9 29.1759C168.192 29.1608 259.484 29.1548 350.776 29.2003C354.728 29.2023 358.821 28.6347 363.244 31.5222C364.018 46.1867 364.018 60.2286 364.018 75.2076C359.867 79.2678 355.031 78.0882 350.478 78.0927C276.226 78.1663 201.975 78.1392 127.723 78.157C123.4 78.158 119.064 77.8998 113.849 78.8574C109.296 82.0472 111.116 86.0315 111.105 89.4196C110.963 133.048 110.993 176.677 111.015 220.306C111.042 275.208 111.001 330.109 110.994 385.011C110.992 395.14 113.8 405.384 111.242 412.625C110.942 304.102 110.971 192.831 111.552 80.6644C114.943 77.7935 118.344 78.1659 121.648 78.1648C199.257 78.1384 276.866 78.1371 354.475 78.1622C357.128 78.163 359.82 77.9699 363.19 79.5933Z" fill="#A38A73"/>
<path id="Vector_2" d="M363.237 3.51849C364.018 12.1939 364.018 20.243 364.018 29.2184C343.817 32.2804 323.531 31.5302 303.354 30.6401C292.659 30.1683 282.139 31.1863 271.536 31.1743C205.978 31.1007 140.42 31.1243 74.8624 31.1724C71.2432 31.1751 67.5401 30.4772 63.2857 32.4987C61.7115 34.7882 60.5176 36.1773 58.2398 37.8143C56.629 39.2182 55.6822 39.9938 53.9957 41.3275C49.5123 47.1432 50.0274 53.2185 50.0206 59.1366C49.9542 112.781 49.7315 166.428 50.0767 220.07C50.3087 256.046 48.3145 292.004 49.1549 327.958C49.9337 361.261 49.838 394.556 50.0342 427.856C50.0811 435.787 48.8926 443.118 43.4737 449.264C41.1431 451.907 40.19 455.103 40.2452 458.494C40.69 485.771 38.2203 513.111 41.9869 540.318C42.2154 541.966 41.8751 543.968 42.837 545.19C51.8116 556.594 48.9024 569.963 48.9356 582.694C49.1109 649.999 48.6944 717.308 49.1744 784.61C49.3716 812.241 50.1324 839.875 49.9376 867.512C49.8936 873.782 51.7559 876.212 58.5299 877.999C70.6973 881.21 82.3492 878.345 94.2242 878.263C127.21 878.036 160.196 878.186 193.183 878.181C244.495 878.173 295.807 878.152 347.12 878.213C352.379 878.22 357.87 877.355 363.285 881.519C364.018 888.867 364.018 895.59 364.018 903.229C360.209 907.855 355.352 907.085 350.761 907.088C246.127 907.14 141.493 907.126 36.859 907.125C24.8887 907.125 23.1285 905.401 23.0933 893.045C22.9625 847.06 23.0425 801.074 23.0416 755.089C23.0377 526.16 23.1129 297.232 22.9063 68.3037C22.8892 49.3212 26.2823 30.5352 25.088 11.5369C24.6622 4.77268 28.296 1.97347 34.918 2.13226C47.2364 2.42766 59.5474 1.31357 71.8433 1.28494C164.481 1.06931 257.118 1.15166 349.756 1.20285C354.033 1.20522 358.467 0.50766 363.237 3.51849Z" fill="#A28971"/>
<path id="Vector_3" d="M363.267 819.537C364.018 836.187 364.018 852.228 364.018 869.207C360.846 873.322 356.757 873.091 352.772 873.093C260.23 873.14 167.687 873.159 75.1444 873.075C62.8641 873.064 61.1087 871.365 61.0975 859.271C61.0008 759.405 61.0145 659.539 61.0721 559.673C61.0736 557.342 61.1312 555.011 61.9452 551.814C72.9051 544.828 74.7459 535.212 74.2025 523.883C73.5521 510.336 73.9246 496.73 74.1219 483.151C74.1986 477.889 74.0072 472.405 79.6151 468.236C82.3338 467.291 84.3509 467.445 86.3089 467.172C94.1053 466.085 97.4827 469.538 97.0145 477.22C96.0238 493.457 99.87 509.466 99.1527 525.738C98.7655 534.525 102.578 538.01 110.325 537.901C111.407 538.896 111.743 539.406 112.349 540.81C113.479 568.011 112.918 594.325 112.964 620.634C113.067 679.594 112.989 738.554 113.01 797.514C113.012 801.836 112.693 806.179 113.826 811.372C117.647 818.652 123.837 817.105 129.272 817.111C202.136 817.197 274.999 817.144 347.863 817.215C352.775 817.22 357.887 816.219 363.267 819.537Z" fill="#A48B71"/>
<path id="Vector_4" d="M59.1296 0C156.441 0.010773 252.812 0.0753935 349.183 0.139709C353.503 0.142593 357.823 0.142883 363.081 0.144592C364.018 1.03368 364.018 1.92258 364.018 3.47813C260.368 4.15048 156.717 4.15274 53.0666 4.16986C46.4026 4.17096 39.738 4.3468 33.074 4.32617C29.3323 4.31461 27.55 6.07117 27.5354 9.75272C27.53 11.0857 27.5295 12.4193 27.49 13.7516C25.1448 92.7061 26.4065 171.681 26.2634 250.646C26.032 377.96 26.2087 505.273 26.1907 632.587C26.178 719.574 26.1252 806.561 26.0964 893.548C26.0959 895.547 26.1745 897.546 26.1965 899.545C26.2336 902.854 28.0515 904.325 31.2048 904.408C33.2029 904.461 35.2024 904.52 37.2009 904.519C145.519 904.474 253.837 904.424 363.087 904.259C364.018 905.034 364.018 905.923 364.018 907.478C359.223 913.096 352.989 912.086 347.081 912.092C270.189 912.169 193.289 911.485 116.408 912.5C87.8352 912.878 59.2551 914.281 30.6545 914.104C25.3454 914.071 19.905 914.488 14.9153 909.723C12.3845 904.106 13.0769 899.05 13.0744 894.094C13.0315 811.176 13.0222 728.258 13.031 644.371C12.9968 637.063 13.0554 630.723 12.9451 623.43C12.6848 619.916 11.9114 617.408 12.2536 613.822C13.6028 583.559 13.196 554.272 12.5237 524.984C11.8581 496.032 11.2121 467.078 12.7556 438.134C12.9685 434.137 13.0212 430.149 13.0227 426.157C13.0466 368.528 13.0481 310.9 13.0271 252.29C13.0915 248.7 12.7659 246.101 12.9031 242.523C13.1457 214.484 12.9958 187.413 13.0349 159.382C13.029 141.237 13.0828 124.052 12.9587 105.928C11.717 99.4589 12.0754 93.851 12.1213 87.3359C13.2366 80.9798 13.3572 75.5206 12.5046 69.1204C12.0627 64.3737 12.3098 60.6471 15.199 56.67C15.9153 42.1607 15.8513 28.2866 15.9778 14.4142C16.072 4.08063 20.0115 0.239182 30.4426 0.122742C39.6907 0.0195007 48.9402 0.07074 59.1296 0Z" fill="#5A412E"/>
<path id="Vector_5" d="M364.018 881.345C276.07 882.165 188.122 882.295 100.175 882.05C90.456 882.023 81.0586 884.176 71.3867 884.287C64.3999 884.368 58.3921 880.154 51.2055 881.109C48.6255 881.451 46.4414 877.723 46.2197 874.454C45.9946 871.136 46.0263 867.798 46.0259 864.469C46.0171 765.86 46.0449 667.252 45.9585 568.644C45.9526 562.045 48.4057 554.292 39.351 550.746C37.8799 550.17 38.1523 547.817 38.0141 546.156C36.8877 532.587 35.6181 519.051 35.9677 505.379C36.3593 490.065 36.1338 474.732 35.9975 459.409C35.9453 453.496 36.5244 448.147 42.1938 444.625C45.3105 442.688 46.0639 439.414 45.9873 435.884C45.9145 432.555 45.9975 429.222 45.9975 425.891C45.9961 304.296 46.0112 182.702 45.9375 61.1069C45.9341 55.0577 46.5556 49.189 48.0957 43.3601C48.7407 40.9153 49.8823 39.1032 53.0551 38.0922C57.6181 40.7921 56.9355 45.0472 56.9389 48.9446C57.0132 125.6 57.604 202.263 56.5473 278.905C56.292 297.467 53.789 316.231 55.3271 334.705C58.4048 371.667 57.7881 408.664 56.6675 445.532C53.2148 559.12 56.1494 672.71 55.0566 786.291C55.0122 790.921 54.3759 795.631 56.2143 801.115C57.5771 820.001 56.7705 837.969 56.9804 855.929C57.1484 870.305 58.8149 872.128 73.0293 872.132C165.201 872.158 257.372 872.134 349.543 872.176C353.835 872.178 358.205 871.534 363.212 873.601C364.018 876.278 364.018 878.411 364.018 881.345Z" fill="#8F7057"/>
<path id="Vector_6" d="M15.4683 907.444C18.6694 910.841 22.1602 910.095 25.4165 910.103C45.0786 910.151 64.7739 910.859 84.3979 909.989C176.964 905.885 269.567 909.382 363.081 908.156C364.018 910.278 364.018 912.411 364.018 915.345C294.761 916.146 225.46 914.658 156.261 916.667C109.021 918.038 61.8228 917.221 14.6162 918.127C11.9536 918.178 9.28516 918.021 6.62598 918.122C2.01221 918.299 -0.135742 916.19 0.0444336 911.56C0.147462 908.901 0.0390625 906.234 0.0390625 903.57C0.0312505 766.387 0.0249024 629.204 0.0180664 491.084C0.895507 489.389 1.91113 489.068 3.8252 489.51C6.23389 491.47 6.84619 493.538 7.0498 496.562C6.74414 501.063 7.25342 504.568 9.98389 508.313C12.001 516.992 12.7812 525.033 12.5347 533.929C9.82959 538.768 8.89014 542.855 12.4966 547.758C13.354 562.884 12.8535 577.246 13.02 592.425C13.0942 595.856 12.8203 598.518 14.4614 601.636C15.2817 605.791 14.8135 609.286 15.5083 613.382C15.9199 616.187 15.9346 618.366 15.9243 621.361C10.3438 630.782 11.9033 640.948 11.4868 650.07C10.0039 682.517 7.03613 715.047 9.2876 747.506C10.5986 766.411 12.3496 785.391 10.5513 804.105C8.54004 825.026 9.80615 845.85 8.99316 866.696C8.65479 875.387 9.4375 883.901 12.4409 892.999C15.0557 897.866 12.9858 902.662 15.4683 907.444Z" fill="#6A5334"/>
<path id="Vector_7" d="M364.018 873.478C265.585 874.183 167.153 874.234 68.7205 874.246C52.5911 874.248 54.0632 875.405 54.0364 859.904C54.0042 841.281 54.054 822.659 54.0676 803.1C55.1575 801.429 56.3381 801.222 58.2092 802.262C59.2932 820.872 58.844 838.778 59.4231 856.678C55.3811 766.174 57.8113 675.615 56.552 584.171C56.2019 582.009 56.1311 580.757 56.2112 578.552C57.7659 568.814 56.7517 559.95 57.0344 550.153C57.0481 383.607 57.0261 218.031 57.0774 52.4555C57.0793 46.8467 56.1633 41.0909 59.2341 34.8579C60.3362 31.9656 61.3367 30.2948 63.717 30.1812C66.7063 30.0385 69.7019 29.9467 72.6946 29.9453C134.283 29.9175 195.877 30.4082 257.457 29.6954C292.368 29.2913 327.255 30.287 363.085 30.0356C364.018 30.1447 364.018 31.1447 364.018 31.6447C304.077 32.1891 244.136 32.2285 184.196 32.2795C147.897 32.3104 111.598 32.357 75.3001 32.4056C72.9705 32.4087 70.6355 32.4134 68.3123 32.5562C65.6111 32.7223 64.03 34.0802 64.0276 36.9706C64.0256 39.301 63.8835 41.6313 63.885 43.9616C63.9456 166.51 64.0115 289.058 64.0945 411.607C64.0979 416.592 64.2708 421.577 64.3865 427.281C66.699 430.75 66.9099 434.05 66.9661 437.419C67.5208 470.663 68.6252 503.901 68.0598 537.158C67.9919 541.149 68.158 545.19 65.0818 549.495C64.3938 553.986 64.1492 557.645 64.1487 561.305C64.1399 659.284 64.1565 757.264 64.1687 855.243C64.1687 856.576 64.1653 857.909 64.1755 859.242C64.2625 870.13 64.2629 870.173 75.2004 870.174C170.848 870.183 266.495 870.177 363.08 870.16C364.018 871.034 364.018 871.923 364.018 873.478Z" fill="#624333"/>
<path id="Vector_8" d="M125.921 303.223C125.954 326.655 125.783 349.162 125.71 371.668C125.651 389.878 125.712 408.089 125.907 427.22C129.843 432.276 130.21 437.231 129.426 443.358C130.076 455.386 130.721 466.488 129.179 478.501C129.992 483.083 128.957 486.728 129.135 491.298C129.991 497.212 127.88 501.8 126.658 507.351C125.159 518.157 125.908 528.216 125.995 539.191C126.993 541.104 128.217 542.094 128.381 543.287C130.552 559.111 132.217 574.945 126.785 591.41C125.872 604.299 125.588 616.41 124.998 629.421C122.902 631.496 121.115 631.466 118.75 629.544C115.963 606.034 116.219 583.202 117.949 560.522C118.833 548.945 118.465 537.439 119.035 524.953C119.046 501.953 119.046 479.917 119.034 456.899C121.091 343.656 119.485 231.385 120.115 119.121C120.167 109.791 118.154 100.559 120.137 90.7048C201.371 90.184 281.757 90.183 363.081 90.1633C364.018 91.0336 364.018 91.9225 364.018 93.4781C360.219 97.1642 355.72 96.0948 351.494 96.0989C283.25 96.1641 215.005 96.1436 146.76 96.1447C215.059 96.1459 283.359 96.1345 351.657 96.1716C355.286 96.1736 358.996 95.6195 363.265 97.6207C364.018 99.0336 364.018 99.9225 364.018 101.478C360.705 101.977 357.392 101.661 354.079 101.663C281.557 101.695 209.034 101.754 136.512 101.83C124.775 101.842 125.626 101.086 125.629 112.571C125.643 154.482 125.705 196.393 125.916 239.23C125.975 260.87 125.867 281.583 125.921 303.223Z" fill="#513729"/>
<path id="Vector_9" d="M120.163 630.613C121.961 630.251 122.87 630.296 124.235 630.331C124.863 630.629 125.033 630.937 125.507 631.677C125.639 636.216 125.468 640.323 125.548 645.276C125.548 648.221 125.298 650.317 124.944 653.201C124.952 654.371 125.065 654.753 125.081 655.726C125.082 656.64 125.18 656.964 125.55 657.716C125.605 661.526 125.388 664.908 125.078 669.133C125.05 670.365 125.114 670.753 125.099 671.725C125.129 680.985 125.238 689.661 125.574 699.242C124.643 704.878 125.518 709.653 125.717 715.277C125.815 719.593 125.703 723.04 125.76 727.337C124.531 752.132 125.659 776.087 125.523 800.036C125.492 805.424 128.365 805.672 132.492 805.656C153.131 805.572 173.77 805.709 194.409 805.715C250.334 805.731 306.26 805.72 363.101 805.932C364.018 807.034 364.018 807.923 364.018 809.478C360.248 813.848 355.426 813.078 350.868 813.087C314.15 813.157 277.433 813.112 239.74 813.128C231.669 813.122 224.573 813.113 216.503 813.128C188.728 813.111 161.928 813.148 135.128 813.099C131.176 813.092 127.171 813.449 122.484 811.579C116.918 800.808 117.649 789.516 117.471 778.935C116.925 746.408 116.494 713.854 117.74 681.287C118.23 668.47 117.149 655.434 117.094 642.492C117.078 638.576 116.427 634.437 120.163 630.613Z" fill="#34150F"/>
<path id="Vector_10" d="M364.018 819.478C353.403 818.995 342.754 819.573 332.121 819.563C262.249 819.496 192.377 819.545 122.506 819.329C118.385 819.316 112.938 821.812 110.319 815.062C111.348 813.391 112.508 812.844 114.812 812.711C147.324 813.676 178.865 813.05 210.402 813.136C256.552 813.26 302.704 813.138 348.854 813.21C353.436 813.217 358.197 812.357 363.254 815.529C364.018 817.034 364.018 817.923 364.018 819.478Z" fill="#3A2316"/>
<path id="Vector_11" d="M364.018 79.4781C289.067 80.147 214.115 80.147 139.164 80.1549C130.837 80.1557 122.51 80.2018 113.267 80.2779C111.929 79.9913 111.506 79.6537 111.543 78.647C115.824 74.9104 120.333 76.249 124.528 76.2446C203.733 76.1623 282.938 76.1821 363.08 76.1627C364.018 77.0336 364.018 77.9226 364.018 79.4781Z" fill="#876E5B"/>
<path id="Vector_12" d="M364.018 97.4781C315.36 98.0727 266.702 97.982 218.044 97.9358C191.048 97.9101 164.052 97.994 137.055 97.9293C133.692 97.9212 130.01 98.8074 127.041 96.67C127.261 95.5794 127.236 95.2204 127.401 95.0146C127.596 94.7721 127.938 94.5751 128.248 94.511C129.215 94.3103 130.198 94.0449 131.175 94.0444C194.833 94.0138 258.491 94.0021 322.149 94.0015C335.481 94.0013 348.813 94.05 363.082 94.1105C364.018 95.0337 364.018 95.9226 364.018 97.4781Z" fill="#A08060"/>
<path id="Vector_13" d="M215.114 811.173C222.776 811.141 229.48 811.092 237.097 811.109C279.433 811.201 320.858 811.007 363.15 811.709C364.018 812.145 364.018 813.145 364.018 813.645C360.916 815.944 357.515 815.094 354.263 815.096C281.215 815.138 208.167 815.16 134.143 815.05C132.641 814.596 132.115 814.211 131.734 812.864C159.291 810.177 186.732 811.626 215.114 811.173Z" fill="#FBD99E"/>
<path id="Vector_14" d="M131.353 813.344C164.925 813.881 197.793 814.082 230.662 814.094C274.493 814.11 318.325 813.981 363.087 814.029C364.018 814.145 364.018 815.145 364.018 815.645C294.192 816.136 224.366 816.181 154.54 816.071C140.937 816.05 127.312 816.876 112.913 814.961C112.411 813.992 112.721 813.531 113.726 812.606C115.462 811.734 116.541 811.502 118.485 811.472C123.009 812.62 126.985 811.538 131.353 813.344Z" fill="#9B613D"/>
<path id="Vector_15" d="M364.018 811.645C325.81 812.18 287.602 812.223 249.393 812.236C246.078 812.238 242.762 812.045 238.728 811.559C240.857 809.916 243.881 810.347 246.837 810.336C285.274 810.197 323.711 810.098 363.083 810.066C364.018 810.145 364.018 811.145 364.018 811.645Z" fill="#B8986B"/>
<path id="Vector_16" d="M15.3802 55.4105C15.9115 59.5288 15.9261 63.0236 15.9188 67.388C14.075 73.6889 15.3724 79.2685 15.5179 85.4165C15.9349 91.4983 15.9452 96.9377 15.931 103.283C12.2948 110.425 14.3216 117.235 14.1131 123.767C13.7635 134.754 14.0174 145.76 14.0174 157.681C13.9906 179.677 14.0721 200.751 13.932 222.682C6.87386 232.118 8.74251 240.782 13.7567 250.291C13.9476 252.81 13.8924 254.502 12.9369 256.92C8.65707 260.422 9.00912 264.486 9.01058 268.481C9.02328 302.335 8.99544 336.19 9.0516 370.044C9.05746 373.584 8.18538 377.493 12.4471 380.753C14.6536 385.552 13.8167 389.827 13.8206 394.926C6.30746 408.854 9.72298 423.112 9.21517 437.805C10.1781 454.037 11.597 469.419 5.67757 485.1C4.139 486.735 2.98958 487.126 0.847007 486.589C0.0130219 348.107 0.00765115 210.069 0.000327154 71.0966C0.00667515 52.874 -0.023599 35.5866 0.060874 18.2997C0.075034 15.4558 -0.708657 12.1144 3.04427 10.6217C7.72347 8.76066 11.9242 11.0945 11.8807 16.2384C11.786 27.5371 15.2728 38.5728 14.0843 49.9349C13.9193 51.5078 14.5838 53.1674 15.3802 55.4105Z" fill="#6A5334"/>
<path id="Vector_17" d="M0.0180664 486.811C0.906738 486.144 1.7959 486.144 3.35107 486.145C7.64355 486.279 7.04199 488.07 4.81006 490.167C3.12939 490.145 2.24023 490.145 0.685059 490.146C0.0180666 489.257 0.0180664 488.368 0.0180664 486.811Z" fill="#6D5936"/>
<path id="Vector_18" d="M120.259 90.6738C121.093 112.151 121.287 134.117 121.294 156.083C121.326 255.341 121.306 354.599 121.244 454.759C120.325 456.663 119.261 456.985 117.324 456.027C113.853 446.665 114.908 437.791 116.323 428.16C118.547 422.559 118.01 417.518 118.012 412.546C118.046 309.299 118.032 206.051 118.106 102.804C118.109 98.9137 116.981 94.7811 120.259 90.6738Z" fill="#C0A076"/>
<path id="Vector_19" d="M116.239 426.997C118.665 436.223 117.652 445.201 118.256 455.01C121.988 467.788 120.094 480.109 120.511 492.144C120.837 501.567 120.38 511.217 120.018 521.636C120.009 525.36 120.04 528.208 119.891 531.88C119.652 533.799 119.252 534.802 118.069 536.294C115.807 538.24 113.853 538.861 110.899 538.691C107.073 537.39 106.225 539.837 104.825 541.612C104.537 541.978 95.8853 532.574 95.8467 531.515C95.7505 528.86 95.7646 526.201 95.7061 523.544C95.3501 507.282 95.0005 491.019 94.604 474.758C94.5649 473.146 94.2314 471.541 94.0171 469.787C90.3765 469.787 87.1387 469.787 83.1108 469.823C80.2456 468.441 77.042 470.275 75.2959 466.755C77.9873 458.479 86.5303 465.445 90.854 459.461C82.6387 455.287 77.7671 449.418 78.8223 439.346C79.7192 430.783 82.4971 424.823 91.3877 422.8C93.8481 422.241 97.5137 422.185 97.5957 419.033C97.688 415.473 93.793 416.232 91.459 415.556C88.6353 414.737 85.5132 414.626 84.0298 410.935C86.814 410.202 89.4292 410.276 92.0215 410.069C99.5264 409.472 105.714 410.54 106.881 419.81C107.498 424.711 112.718 424.349 116.239 426.997Z" fill="#5C3F2D"/>
<path id="Vector_20" d="M74.8841 465.696C76.91 468.19 79.3358 468.076 81.7963 469.462C77.3719 471.07 78.0355 475.053 78.0292 478.651C77.9969 495.903 78.0013 513.155 77.9794 530.407C77.9759 533.06 78.2386 535.771 77.7943 538.355C76.3876 546.528 74.2435 550.436 65.2757 550.268C64.3387 523.785 64.1044 497.244 63.9867 470.703C63.9266 457.098 64.0746 443.492 64.2689 428.943C65.1805 428.025 65.9515 428.051 67.3036 428.063C74.0404 434.796 69.91 442.981 70.9545 450.442C71.6522 455.424 69.555 461.008 74.8841 465.696Z" fill="#91785F"/>
<path id="Vector_21" d="M75.8902 465.908C69.9097 466.121 67.8438 463.085 67.92 457.877C68.0562 448.567 67.9674 439.253 67.9283 428.996C68.6373 418.586 76.5679 415.307 83.5494 410.449C87.2174 413.379 91.1036 411.899 94.6187 412.134C97.7872 412.346 100.486 413.183 102.432 415.793C105.078 419.339 104.175 422.68 100.069 424.403C97.2799 425.573 94.3546 426.133 91.316 426.085C86.4893 426.01 84.0928 429.036 82.835 433.129C81.3419 437.985 81.7476 443.041 82.1793 447.984C82.5753 452.513 86.2598 453.816 90.0635 454.104C94.1226 454.412 96.2257 455.991 95.858 460.292C95.503 464.455 93.0313 466.128 89.1954 466.044C84.9478 465.952 80.7056 465.62 75.8902 465.908Z" fill="#7E5F47"/>
<path id="Vector_22" d="M111.373 78.5603C112.048 78.3716 112.092 78.7651 112.244 79.7438C112.285 118.28 112.161 156.23 112.162 194.181C112.164 257.033 112.206 319.884 112.328 382.736C112.352 394.914 115.325 407.154 111.254 419.301C109.117 418.221 110.347 416.169 110.115 414.6C109.875 412.969 110.027 411.278 110.027 409.614C110.009 317.391 110.004 225.168 109.967 132.946C109.961 118.632 109.759 104.317 109.76 90.0032C109.76 86.3731 109.332 82.6625 111.373 78.5603Z" fill="#5C483E"/>
<path id="Vector_23" d="M58.1567 801.641C56.7333 802.315 55.9721 802.259 54.6391 802.183C51.2929 799.463 52.0844 795.965 52.0834 792.718C52.0458 685.455 51.0009 578.176 52.602 470.937C53.1674 433.038 54.0629 395.1 53.5927 357.218C53.3329 336.331 51.2065 315.36 52.1933 294.469C56.2021 209.605 52.9448 124.71 53.8569 38.88C54.1137 37.3373 54.56 36.8592 55.5707 36.2867C59.3832 40.1751 57.9462 45.0437 57.9492 49.5505C58.0341 186.032 57.7226 322.516 58.2519 458.995C58.3652 488.214 58.6303 517.454 59.0102 547.629C59.0644 557.735 58.8989 566.895 59.4306 576.902C59.8129 578.779 59.8657 579.806 59.9018 581.606C58.2407 585.877 59.06 589.597 59.0507 593.204C58.8691 662.44 59.266 731.676 58.1567 801.641Z" fill="#7E5F47"/>
<path id="Vector_24" d="M58.4352 550.706C56.337 539.623 58.2188 529.074 57.9625 518.534C54.0724 358.36 56.8634 198.16 56.0133 37.0301C56.9049 35.467 57.7867 34.8474 59.212 34.118C59.8829 70.6275 60.1148 107.247 60.1207 143.866C60.1412 274.711 60.0855 405.556 60.0528 536.401C60.0519 540.396 59.985 544.391 59.8512 549.326C59.4464 550.594 59.1397 550.921 58.4352 550.706Z" fill="#8F7057"/>
<path id="Vector_25" d="M112.543 814.342C111.713 814.448 111.329 814.414 110.652 814.322C110.177 809.978 109.841 805.664 109.842 801.35C109.869 714.759 109.935 628.169 109.972 540.61C115.087 540.151 116.187 543.99 116.748 548.101C117.152 551.07 116.988 554.088 116.988 557.086C117.001 637.695 117.011 718.305 116.954 798.914C116.951 803.508 117.81 808.291 114.532 813.337C113.889 814.099 112.985 814.23 112.543 814.342Z" fill="#5A412E"/>
<path id="Vector_26" d="M114.597 814.201C113.724 810.449 113.415 806.799 113.416 803.149C113.431 720.488 113.493 637.827 113.493 555.167C113.493 550.235 114.348 545.103 110.615 540.125C109.952 539.641 110.068 539.131 110.1 538.877C111.035 536.66 112.896 536.622 115.318 536.292C121.173 541.942 119.04 548.974 118.703 555.329C118.263 563.65 118.105 571.957 118.017 581.253C118.547 657.602 117.008 732.983 119.048 809.324C119.036 810.948 119.004 811.598 118.557 813.13C117.197 814.11 116.25 814.207 114.597 814.201Z" fill="#B8986B"/>
<path id="Vector_27" d="M125.236 671.723C124.126 671.911 124.09 671.215 124.674 670.194C125.141 670.363 125.296 670.75 125.236 671.723Z" fill="#7B5840"/>
<path id="Vector_28" d="M4.01807 490.945C5.25049 489.252 5.87158 488.214 4.42041 486.46C6.55615 470.851 5.96045 455.421 6.01807 439.084C9.1626 432.797 8.95068 426.85 9.00293 420.972C9.07324 413.106 8.56348 405.2 11.4917 396.838C12.001 392.06 12.0034 387.98 12.0024 383.027C9.3208 379.65 9.00342 376.424 9.00537 372.999C9.02539 337.098 9.01172 301.197 9.02881 265.296C9.03027 262.634 8.94727 259.946 11.3569 256.906C12.0049 254.642 12.0112 253.144 12.0181 250.897C12.7832 249.507 13.6689 249.244 15.2192 249.754C15.8369 341.862 15.8979 433.519 15.9468 525.175C15.9619 554.172 15.9448 583.169 15.9238 613.087C12.8867 611.037 14.394 607.214 13.9683 602.957C12.269 600.837 12.1172 598.596 10.4502 596.576C10.0146 580.107 10.0112 564.065 10.0034 547.086C7.88916 543.524 7.71973 540.664 9.48193 536.887C10.1289 527.351 6.81885 518.822 8.00439 509.049C5.07471 505.799 6.83447 501.867 4.48975 498.653C4.01807 496.01 4.01807 493.877 4.01807 490.945Z" fill="#735E3A"/>
<path id="Vector_29" d="M20.0171 496.145C20.0181 332.98 20.0181 170.815 20.0181 8.65015C20.5952 8.65059 21.1719 8.65103 21.749 8.65146C21.749 306.49 21.749 604.328 21.749 902.166C21.1714 902.168 20.5938 902.169 20.0161 902.171C20.0161 767.162 20.0161 632.154 20.0171 496.145Z" fill="#A5856A"/>
<path id="Vector_30" d="M12.6159 895.424C10.3161 895.75 8.68522 895.086 8.38932 893.205C7.51432 887.649 6.20475 882.076 6.12955 876.495C5.86149 856.537 4.65787 836.448 6.44938 816.647C8.0441 799.017 9.17301 781.334 7.52701 763.973C5.7277 745.001 6.04215 726.137 6.20768 707.258C6.41031 684.091 7.27115 660.897 9.86588 637.822C10.235 634.532 10.0216 631.175 10.0426 627.848C10.0612 624.897 10.8512 622.572 15.1032 622.22C15.9088 628.247 15.9191 634.317 15.8952 641.298C13.8039 644.76 14.0773 647.814 14.0319 650.789C13.5358 683.286 12.7868 715.822 13.3708 748.28C14.1784 793.136 13.4601 837.977 13.9865 882.82C14.0329 886.782 14.5021 890.805 12.6159 895.424Z" fill="#6D5936"/>
<path id="Vector_31" d="M12.0044 896.961C12.0053 853.28 11.9907 810.409 12.0327 767.539C12.0425 757.26 9.30369 747.237 9.84275 736.844C10.2895 728.237 12.9043 719.888 12.1123 711.143C11.5166 704.569 12.5854 697.87 10.3706 691.397C9.85447 689.887 9.75974 688.023 10.1054 686.462C12.9375 673.67 11.7768 660.697 12.0542 647.789C12.0976 645.76 12.2807 643.781 15.1137 642.438C15.8906 730.218 15.9209 818.228 15.9551 907.169C9.86863 906.484 12.7734 901.427 12.0044 896.961Z" fill="#735E3A"/>
<path id="Vector_32" d="M11.3822 226.905C12.0209 204.103 12.0238 182.064 12.0321 159.088C12.7763 157.453 13.6508 157.164 15.2265 157.745C15.8158 185.534 15.8383 212.864 15.8256 241.124C8.34659 240.44 7.6337 238.407 11.3822 226.905Z" fill="#735E3A"/>
<path id="Vector_33" d="M15.8517 157.262C14.9591 158.186 14.1256 158.169 12.6646 158.151C12.0309 143.32 11.9576 128.488 12.0729 113.657C12.0968 110.547 10.8595 106.925 15.1549 104.419C15.9083 121.565 15.9093 138.943 15.8517 157.262Z" fill="#6D5936"/>
<path id="Vector_34" d="M11.2246 226.192C13.0122 231.275 9.74654 237.049 15.0727 241.846C15.8271 244.23 15.8642 246.404 15.8413 249.393C14.9458 250.188 14.1103 250.169 12.6464 250.149C6.94234 244.907 5.519 238.533 6.03071 231.467C6.24409 228.519 7.1855 226.489 11.2246 226.192Z" fill="#6D5936"/>
<path id="Vector_35" d="M15.9436 85.1702C12.7141 80.6916 13.9119 75.0518 15.3968 68.8414C15.9187 73.5989 15.9402 78.9401 15.9436 85.1702Z" fill="#6D5936"/>
<path id="Vector_36" d="M9.30799 536.32C10.0028 538.921 10.0077 541.701 10.0053 545.315C4.94227 542.965 4.73621 541.524 9.30799 536.32Z" fill="#6D5936"/>
<path id="Vector_37" d="M4.01807 498.924C9.16797 499.149 7.71143 503.281 8.00439 507.365C2.8623 507.13 4.33154 502.997 4.01807 498.924Z" fill="#6D5936"/>
<path id="Vector_38" d="M10.0371 596.84C12.7822 596.453 13.9663 598.102 13.9565 601.465C11.2305 601.821 10.061 600.166 10.0371 596.84Z" fill="#6D5936"/>
<path id="Vector_39" d="M57.5684 803.288C57.6431 798.383 57.9175 794.394 57.9219 790.405C57.9912 725.098 58.0142 659.79 58.0996 594.483C58.104 590.852 57.4927 587.147 59.3589 582.985C59.8848 677.836 59.8848 773.295 59.8848 868.754C59.1372 868.763 58.3896 868.771 57.6421 868.78C57.6421 847.255 57.6421 825.729 57.5684 803.288Z" fill="#A5856A"/>
<path id="Vector_40" d="M58.0338 551.087C58.0377 550.164 58.898 550.2 59.3257 550.233C59.7842 558.834 59.8155 567.402 59.8038 576.861C56.4351 573.056 58.4561 567.726 58.0474 562.696C57.7603 559.157 58.0167 555.574 58.0338 551.087Z" fill="#A5856A"/>
<path id="Vector_41" d="M125.182 655.72C124.127 655.938 124.087 655.25 124.563 654.23C125.02 654.367 125.199 654.745 125.182 655.72Z" fill="#7B5840"/>
<path id="Vector_42" d="M119.011 814.05C118.079 813.668 118.014 813.323 117.887 812.455C116.325 808.409 117.064 804.701 117.062 801.088C117.013 728.913 117.025 656.737 117.025 583.58C117.096 567.005 116.883 551.41 117.524 534.924C118.012 531.37 118.11 528.71 118.235 525.251C118.845 523.573 119.66 523.289 120.901 524.203C120.629 559.38 119.883 593.868 120.855 629.285C121.014 689.693 120.268 749.182 121.669 809.564C124.96 811.846 128.187 810.698 131.656 812.043C132.08 812.701 132.078 813.233 132.067 813.499C127.997 813.872 123.937 813.979 119.011 814.05Z" fill="#F0CD8F"/>
<path id="Vector_43" d="M121.418 523.935C120.483 524.775 119.853 524.605 118.749 524.417C118.436 513.669 116.969 502.901 119.27 492.08C120.172 487.838 118.246 483.063 118.093 478.514C117.861 471.623 118.053 464.717 118.179 456.871C118.945 456.025 119.59 455.995 120.706 455.749C122.617 478.091 122.019 500.536 121.418 523.935Z" fill="#8A7055"/>
<path id="Vector_44" d="M133.009 812.604C129.05 812.328 126.021 811.954 122.488 811.021C152.755 810.493 183.526 810.525 215.184 810.874C212.663 813.09 208.944 812.236 205.37 812.258C181.56 812.407 157.749 812.438 133.009 812.604Z" fill="#B8986B"/>
<path id="Vector_45" d="M11.1851 256.196C12.0034 297.519 12.0078 338.898 12.0054 381.215C8.62792 382.142 6.10741 381.135 6.08983 377.153C6.07812 374.501 6.02099 371.849 6.02099 369.197C6.0161 334.715 5.97069 300.234 6.08886 265.753C6.10107 262.166 4.30273 257.302 11.1851 256.196Z" fill="#6D5936"/>
<path id="Vector_46" d="M11.2766 396.337C12.0037 404.787 12.0779 413.435 11.9895 422.082C11.9324 427.693 11.5359 433.272 6.74197 437.952C6.01834 429.503 5.95388 420.857 6.04275 412.213C6.10037 406.601 6.51541 401.031 11.2766 396.337Z" fill="#6D5936"/>
<path id="Vector_47" d="M104.924 533.156C98.4824 533.144 100.035 528.666 100.018 525.348C99.9121 504.752 99.9907 484.156 99.9746 463.56C99.9707 458.912 100.153 454.231 99.6728 449.626C99.1757 444.861 97.583 444.45 93.832 447.573C89.6542 451.052 87.644 450.774 85.7739 446.184C84.124 442.135 82.9721 437.987 86.6733 434.17C89.2187 436.275 86.8818 439.377 88.5605 441.501C89.0932 442.182 89.6669 442.068 89.8452 441.096C91.8271 430.294 91.8159 430.292 105.076 430.024C109.619 433.617 109.975 438.208 109.977 442.953C109.985 468.209 110.024 493.465 109.945 518.721C109.93 523.723 109.932 528.79 104.924 533.156Z" fill="#88694B"/>
<path id="Vector_48" d="M105.004 533.914C105.699 528.71 106.056 523.5 106.038 518.178C105.942 489.433 105.989 460.688 105.958 430.995C113.604 431.149 113.861 431.147 113.905 438.08C114.089 467.034 114.184 495.989 114.133 524.943C114.119 532.673 113.828 532.673 105.004 533.914Z" fill="#A27F5D"/>
<path id="Vector_49" d="M117.479 534.28C117.971 549.49 118.028 564.949 117.938 581.345C117.551 582.614 117.313 582.946 116.649 582.839C116.149 567.623 116.076 552.848 115.994 537.143C116.338 535.651 116.692 535.09 117.479 534.28Z" fill="#A48B71"/>
<path id="Vector_50" d="M74.0765 449.561C74.0765 440.81 74.0765 432.966 74.0765 425.121C74.5174 425.119 74.9579 425.117 75.3988 425.115C75.3988 436.505 75.3988 447.894 75.3988 460.458C73.3187 456.574 74.3905 453.423 74.0765 449.561Z" fill="#5C3F2D"/>
<path id="Vector_51" d="M116.207 583.31C116.222 582.398 117.003 582.286 117.396 582.284C117.874 658.222 117.958 734.162 117.933 811.018C114.926 808.831 116.134 804.98 116.132 801.467C116.097 729.052 116.154 656.638 116.207 583.31Z" fill="#886E53"/>
</g>
</svg>
