<svg width="340" height="141" viewBox="0 0 340 141" fill="none" xmlns="http://www.w3.org/2000/svg">
<g id="journal">
<path id="Vector" d="M266.448 112.44C251.623 121.25 237.146 129.482 222.206 138.214C221.091 138.841 220.439 138.965 219.301 139.179C216.547 139.207 214.28 139.144 211.17 139.104C204.525 137.028 203.152 133.051 205.992 127.02C210.079 125.214 212.049 127.854 214.967 129.945C219.36 133.516 222.407 130.629 225.351 128.852C238.338 121.009 251.337 113.195 265.256 105.607C268.665 103.019 272.087 101.802 275.601 99.4416C278.891 96.8915 282.228 95.7265 285.638 93.4174C288.822 90.9084 292.109 89.8371 295.399 87.5429C297.582 85.9953 299.321 84.9079 301.551 83.4702C303.657 81.9377 305.356 80.8862 307.53 79.4777C308.91 78.2761 310.093 78.0761 311.673 77.3769C312.661 76.4941 313.189 75.9655 314.069 75.1337C314.423 74.8325 315.005 74.3408 315.053 74.1774C315.101 74.0141 314.727 74.7314 314.345 74.9631C313.494 75.6518 313.027 76.1118 312.145 76.9331C310.822 78.0358 309.589 78.0441 308.147 79.0063C305.965 80.3835 304.397 81.6186 302.182 82.9721C299.955 84.4042 298.33 85.6479 296.07 87.0629C292.802 89.3784 289.614 90.5952 286.304 92.873C282.997 95.3339 279.689 96.528 276.295 98.8771C272.863 101.395 269.441 102.641 265.964 105.144C260.767 107.063 257.673 112.91 251.38 109.757C251.152 105.662 253.75 104.022 256.469 101.624C275.332 89.6643 293.858 78.5087 312.064 66.8408C314.294 65.4121 316.84 64.3845 318.367 62.0634C319.576 60.2241 319.627 58.1638 318.323 56.4714C317.039 54.8066 315.325 55.9091 313.787 56.4277C312.524 56.8535 314.145 56.4133 312.897 56.8828C309.338 58.2216 304.487 62.3183 302.254 58.2299C299.163 52.5715 306.21 51.0776 309.548 48.4323C313.054 45.654 317.895 43.9196 316.037 37.1005C302.814 42.9028 291.588 51.3903 278.85 56.9348C275.253 58.5002 271.958 61.1823 267.009 59.7602C264.605 51.5681 272.474 52.5112 275.403 49.1435C266.8 54.079 258.976 60.6616 249.061 65.1892C244.789 66.6569 241.452 70.456 237.015 66.0248C237.836 57.7309 244.83 56.7326 250.506 53.1391C270.521 41.268 291.153 32.2573 311.124 21.9548C314.83 20.0432 318.708 19.8698 323.319 20.5966C326.356 20.9638 328.705 21.2509 331.502 22.8039C323.338 29.541 326.317 38.5263 326.421 47.8898C331.087 46.4824 332.85 42.1347 337.466 41.1865C337.492 47.3308 330.356 49.1415 328.92 54.7714C330.128 57.8749 332.916 56.5761 334.96 57.2202C340.041 58.8212 341.229 62.0942 337.97 66.103C336.536 67.8679 334.656 69.4477 332.671 70.5617C310.038 83.2573 289.202 98.8105 266.448 112.44Z" fill="#391C14"/>
<path id="Vector_2" d="M323.438 20.4713C320.817 20.7816 318.106 21.9996 315.43 23.3595C294.787 33.8497 274.143 44.3368 252.799 54.9303C249.778 55.0235 247.324 55.5138 245.158 54.8646C221.378 47.7403 197.819 54.484 174.204 55.9693C161.725 56.7547 149.289 57.327 137.093 61.5789C128.362 64.6229 118.858 59.8844 108.787 60.4422C106.89 60.1297 105.806 60.0252 103.924 59.9366C100.557 59.6417 97.9891 59.076 94.5982 59.8094C88.3018 60.068 82.8018 60.0033 76.4556 59.9542C61.0894 56.2354 46.2772 55.8675 30.702 55.5758C27.1158 54.8573 24.0235 56.026 21.3963 53.773C21.098 50.5409 23.8946 50.1229 25.7806 49.2169C44.348 40.2979 62.6717 30.8787 81.2232 21.9242C91.9136 16.7638 103.024 12.2525 113.171 5.81894C121.091 0.796719 129.415 -0.837559 139.559 0.389736C163.181 3.24862 186.789 7.21908 210.717 7.05185C216.417 7.01205 221.826 8.75326 227.44 9.34701C242.917 10.9837 258.364 12.5343 273.93 13.2855C287.461 13.9386 300.942 15.7735 314.419 17.3265C317.321 17.661 320.106 19.0262 323.438 20.4713Z" fill="#502D1B"/>
<path id="Vector_3" d="M30.2385 55.8159C37.4602 53.4755 44.9988 52.9934 52.657 52.9155C60.105 52.84 67.1599 53.937 74.7451 56.8278C76.862 58.0236 78.7561 57.8837 80.3935 59.4675C80.8257 60.5571 79.8813 61.9138 80.8384 61.5737C82.7085 60.9094 84.4582 60.622 87.0815 61.1723C103.894 63.1325 119.724 67.0498 136.773 67.1208C139.715 66.5883 141.734 66.9411 143.975 68.8894C144.321 70.456 144.94 72.1687 142.814 71.0578C145.423 72.9631 146.053 69.372 148.603 68.9733C160.306 67.7805 170.927 70.9553 181.751 72.0251C191.924 73.0307 201.922 75.5786 212.195 76.113C214.479 76.2319 217.214 76.9455 217.867 79.3947C218.738 82.6589 215.547 82.9853 213.53 83.4108C204.836 85.2439 204.004 92.3662 202.99 98.958C202.837 88.0776 210.229 83.8347 220.272 81.3427C221.487 81.3396 221.971 81.425 223.107 81.8591C226.098 87.8794 221.348 89.8676 218.111 92.0891C213.651 95.1499 210.846 98.7338 211.089 105.058C211.088 106.863 211.09 107.906 211.11 109.765C210.567 115.568 212.244 120.747 209.255 126.201C203.744 130.974 208.534 134.25 209.993 138.491C208.639 140.944 206.797 140.157 204.82 139.644C198.707 138.056 192.582 136.49 186.15 136.945C183.807 137.11 181.348 136.92 179.562 135.195C177.092 132.809 175.06 133.529 171.826 134.26C158.922 137.178 148.342 129.377 146.454 115.775C145.341 107.76 142.082 99.7075 146.115 91.4106C139.706 99.8432 139.334 114.811 144.399 129.662C142.145 131.988 139.51 130.838 137.041 130.3C116.927 125.92 96.3977 124.266 76.1286 120.937C56.4993 117.713 36.6723 115.636 17.2512 111.209C4.41698 108.283 0.790513 103.755 0.116929 90.717C-0.280532 83.0241 0.208727 75.4314 3.57762 67.5986C8.53441 63.7587 13.4072 64.2482 18.4153 65.2082C54.9153 72.2053 91.8347 76.5202 128.524 82.3139C132.843 82.9961 137.664 85.2204 141.718 79.8715C143.257 78.8911 144.711 79.4116 145.889 77.6066C116.515 70.5827 86.2219 69.8869 56.666 61.5139C54.6885 59.6442 52.9546 60.1096 50.7512 60.4848C45.373 59.7656 40.5657 58.5981 35.5398 58.8881C33.5305 59.0044 31.5486 58.6596 30.2385 55.8159Z" fill="#532E1B"/>
<path id="Vector_4" d="M141.198 79.1469C143.434 80.0815 144.802 80.9702 146.627 82.155C144.895 87.3059 140.535 87.4812 136.342 86.9975C125.82 85.7844 115.212 84.8132 104.871 82.6399C88.6294 79.2265 72.062 78.2959 55.7756 75.2529C41.4607 72.5783 26.9795 70.7998 12.7383 67.6448C10.4927 67.1472 8.12036 67.2209 4.95679 67.0378C6.70654 61.5559 10.5759 59.8056 16.8743 60.8564C37.0652 64.2246 57.3418 67.1042 77.6235 69.895C98.5554 72.7749 119.245 77.2907 141.198 79.1469Z" fill="#6E452D"/>
<path id="Vector_5" d="M13.4565 55.4092C14.4468 55.9441 14.3972 56.4497 13.6013 56.6157C13.1318 56.7136 12.5759 56.3977 12.0591 56.2683C12.4014 55.9617 12.7437 55.655 13.4565 55.4092Z" fill="#532E1B"/>
<path id="Vector_6" d="M50.9409 60.8852C51.7175 59.1427 53.4094 58.8148 55.7124 60.5614C54.626 60.9855 53.1499 60.9704 50.9409 60.8852Z" fill="#502D1B"/>
<path id="Vector_7" d="M264.793 59.3276C280.144 54.4807 292.047 45.8374 304.93 39.0757C309.888 36.4736 314.775 33.7383 320.376 30.6934C321.906 35.2427 318.373 39.2822 321.128 43.1431C322.128 44.5442 319.427 46.3242 317.679 47.3555C312.863 50.196 308.072 53.082 303.55 56.5605C310.216 56.9849 314.209 50.509 320.092 49.5146C320.849 50.374 321.531 50.7891 321.635 51.3176C323.978 63.2446 323.891 63.1274 312.898 70.0549C295.229 81.1895 277.726 92.5884 258.851 102.963C250.701 101.442 252.749 94.9658 251.594 89.4106C253.352 81.7761 260.409 81.3091 264.922 77.8516C267.976 75.5122 271.773 74.0056 275.231 72.1138C276.399 71.4724 274.321 70.6587 275.259 71.6064C275.387 71.7351 275.221 72.0039 274.689 72.2617C267.623 75.6875 261.508 80.9294 253.124 83.2598C249.442 82.4414 244.841 84.1501 244.026 79.8096C243.392 76.4333 246.59 74.7866 250.434 74.0488C257.809 75.2239 261.748 69.9551 266.712 67.2505C270.128 65.3896 273.322 63.0676 277.08 61.0227C277.384 60.8335 277.41 60.5798 277.175 60.8403C268.596 64.7104 262.4 72.2515 252.458 73.8381C251.15 72.8506 250.707 72.0229 250.398 70.3718C252.055 62.8877 258.472 62.116 264.793 59.3276Z" fill="#7E5F47"/>
<path id="Vector_8" d="M253.541 86.6358C255.047 92.0997 256.054 97.0628 257.609 102.529C256.941 105.289 254.778 106.509 252.407 108.401C251.335 109.783 250.849 110.819 249.774 112.149C248.795 113.067 248.189 113.541 247.089 114.322C245.653 115.317 244.649 115.917 243.246 116.999C242.119 117.89 241.453 118.391 240.25 119.278C231.49 123.719 224.995 131.09 214.73 132.74C210.498 133.199 210.337 130.199 209.051 127.349C208.44 121.496 208.209 116.164 208.055 109.942C211.02 105.571 215.404 103.665 217.893 99.7657C215.597 102.493 213.457 105.451 208.786 105.33C207.285 97.6612 209.805 92.2699 216.828 89.1075C219.491 87.9088 221.821 85.9703 224.766 83.8184C225.276 82.9122 225.322 82.5562 225.639 81.7354C226.153 81.0028 226.393 80.7352 227.049 80.1231C227.761 79.5755 228.058 79.3729 228.814 78.8873C229.583 78.4205 229.892 78.2369 230.67 77.7733C231.453 77.3009 231.767 77.1085 232.563 76.6339C234.076 75.8382 234.99 75.1549 236.349 74.0416C237.18 73.439 237.527 73.2076 238.429 72.672C241.742 71.0411 244.396 69.5218 247.731 67.8599C249.323 67.6319 250.215 67.795 251.526 68.6873C252.133 70.14 252.282 71.0723 252.665 72.6754C252.878 73.6976 252.859 74.0496 252.387 74.6739C249.393 76.2769 246.561 77.2005 244.9 79.8839C247.177 81.9337 249.882 78.3138 252.562 80.9439C253.151 83.5992 251.733 84.8106 249.358 86.1207C243.872 88.9307 238.037 89.8514 234.864 95.0574C238.031 89.6444 243.912 88.7293 249.664 86.2701C251.233 85.753 252.144 85.8138 253.541 86.6358Z" fill="#E6A86B"/>
<path id="Vector_9" d="M105.116 57.9394C110.94 57.0556 116.128 57.2411 121.464 58.2575C128.892 59.6725 136.48 60.393 143.63 55.7709C147.173 53.4804 151.671 52.8879 156.137 53.006C175.754 53.5251 195.142 50.0717 214.55 48.2531C226.778 47.1071 237.438 49.6193 248.593 52.4157C249.514 52.6464 250.297 53.4228 251.622 54.4907C248.12 59.6606 240.594 59.5807 237.505 66.5644C236.639 67.2158 236.086 67.1049 234.694 66.8564C223.512 67.9704 213.382 65.4194 203.13 64.9748C181.532 64.0383 160.116 67.4763 138.532 67.4706C131.196 67.4687 124.169 64.7638 116.003 66.1108C111.792 65.9313 108.417 66.2709 104.398 65.2739C102.613 62.5187 103.291 60.5058 105.116 57.9394Z" fill="#532E1B"/>
<path id="Vector_10" d="M214.614 133.472C221.668 126.784 230.39 122.297 239.339 116.973C240.731 116.839 241.346 116.609 242.11 115.684C243.204 114.499 244.048 113.761 245.463 112.945C246.736 112.849 247.347 112.602 248.115 111.678C249.204 110.499 250.045 109.769 251.448 108.952C257.18 110.804 260.127 105.535 265.449 105.159C252.052 117.201 235.726 126.019 219.987 135.73C217.599 137.203 216.407 135.345 214.614 133.472Z" fill="#663B20"/>
<path id="Vector_11" d="M247.678 63.5796C259.79 55.8857 271.455 48.7634 285.04 43.0505C284.678 47.7688 281.632 48.0181 279.65 49.2183C275.189 51.9216 269.72 53.1064 266.452 58.5884C266.221 59.2463 266.175 59.1936 266.178 59.167C260.517 61.7837 254.969 64.6665 248.649 67.1489C247.386 66.0842 247.164 65.1646 247.678 63.5796Z" fill="#532E1B"/>
<path id="Vector_12" d="M247.483 63.137C248.034 63.7922 247.95 64.592 247.527 66.5898C245.029 70.6367 241.696 71.9907 238.597 74.6792C238.165 75.1667 238.106 75.0532 238.162 75.0852C236.567 76.3364 234.474 76.8098 232.544 78.7036C232.136 79.1638 232.101 79.0464 232.162 79.0415C231.594 79.6187 230.932 80.1602 229.641 80.9009C229.045 81.1399 229.089 81.0105 229.155 81.0303C228.203 81.3381 227.286 81.8188 225.757 82.8171C225.045 83.1426 225.15 83.1887 225.191 83.2283C224.721 82.9265 224.211 82.5852 222.822 81.9683C216.739 79.5129 220.408 76.7268 221.985 75.1033C225.386 71.6035 229.063 68.1899 234.749 67.3403C235.374 67.6338 236.314 67.5837 236.754 67.4553C240.871 67.0764 243.523 64.3755 247.483 63.137Z" fill="#AF794F"/>
<path id="Vector_13" d="M309.394 31.1514C305.729 36.8899 299.042 38.4182 292.47 40.1921C297.325 36.2358 302.821 33.4211 309.394 31.1514Z" fill="#532E1B"/>
<path id="Vector_14" d="M275.458 99.1482C274.292 102.481 270.949 103.717 267.004 105.16C266.363 105.313 266.121 105.047 266.001 104.908C267.953 101.582 271.246 100.259 275.458 99.1482Z" fill="#663B20"/>
<path id="Vector_15" d="M276.037 98.949C277.963 95.5962 281.289 94.3191 285.458 93.147C284.286 96.4958 280.939 97.7317 276.952 99.1135C276.302 99.2461 276.123 99.05 276.037 98.949Z" fill="#663B20"/>
<path id="Vector_16" d="M286.047 92.9629C287.986 89.5801 291.265 88.2188 295.433 87.1084C294.287 90.4912 290.913 91.6948 286.932 93.0918C286.28 93.2205 286.122 93.0515 286.047 92.9629Z" fill="#663B20"/>
<path id="Vector_17" d="M319.471 71.1235C319.154 73.0947 317.659 74.4812 314.745 74.981C315.083 73.0166 316.618 71.6843 319.471 71.1235Z" fill="#663B20"/>
<path id="Vector_18" d="M307.472 79.1147C307.164 81.0938 305.626 82.4243 302.729 82.9607C303.019 80.9314 304.594 79.637 307.472 79.1147Z" fill="#663B20"/>
<path id="Vector_19" d="M296.097 87.0314C296.998 84.9298 298.547 83.6136 301.418 83.0607C302.05 82.9886 302.1 83.0392 302.124 83.067C301.164 85.1161 299.599 86.4115 296.765 86.9913C296.136 87.0748 296.108 87.0465 296.097 87.0314Z" fill="#663B20"/>
<path id="Vector_20" d="M308.691 78.9888C309.051 78.4119 309.995 77.7781 311.514 77.0884C311.152 77.6658 310.214 78.2991 308.691 78.9888Z" fill="#663B20"/>
<path id="Vector_21" d="M320.113 71.0546C320.579 70.63 321.011 70.1581 321.517 69.787C321.633 69.7018 322.004 69.9645 322.257 70.0673C321.821 70.3732 321.385 70.6793 320.517 71.0043C320.085 71.0233 320.106 71.0441 320.113 71.0546Z" fill="#663B20"/>
<path id="Vector_22" d="M312.114 77.0552C312.325 76.4202 312.702 75.9011 313.685 75.2803C314.117 75.053 314.107 75.0454 314.103 75.0405C313.877 75.6699 313.493 76.1821 312.518 76.8022C312.09 77.0325 312.107 77.0454 312.114 77.0552Z" fill="#663B20"/>
<path id="Vector_23" d="M310.112 31.052C310.118 31.0586 310.58 30.2993 310.58 30.2993C310.58 30.2993 310.529 30.8579 310.312 30.9463C310.094 31.0347 310.107 31.0454 310.112 31.052Z" fill="#532E1B"/>
<path id="Vector_24" d="M81.0156 61.2731C79.1553 59.726 77.7983 58.767 75.958 57.3837C81.7341 57.0333 87.9934 57.1071 95.1655 57.1376C96.8167 57.9017 97.1602 58.8524 96.8337 60.6796C96.1501 61.7389 95.7419 62.0641 94.585 62.6141C91.7642 63.0597 89.6934 63.0702 86.8706 62.619C84.6152 61.9992 83.0496 62.0687 81.0156 61.2731Z" fill="#9B613D"/>
<path id="Vector_25" d="M97.1509 62.2797C96.6311 60.5969 96.4358 59.6017 96.1592 57.8505C97.6936 54.9479 99.5149 55.7851 101.905 56.976C103.393 58.5034 103.803 59.9035 103.119 62.1699C101.062 64.7138 99.2812 64.4531 97.1509 62.2797Z" fill="#532E1B"/>
<path id="Vector_26" d="M102.82 63.2389C102.369 61.3937 102.312 59.9965 102.361 57.9103C103.17 57.2628 103.875 57.3048 105.103 57.3212C105.974 58.9532 106.201 60.5963 104.585 62.4918C103.819 63.17 103.516 63.4283 102.82 63.2389Z" fill="#9B613D"/>
<path id="Vector_27" d="M235.328 66.6474C233.443 71.2335 229.638 72.5626 226.635 74.8656C224.498 76.5038 221.23 77.2006 221.7 81.2875C221.122 82.245 220.373 83.0609 219.467 83.3102C207.438 86.6249 204.171 95.7042 203.845 106.787C203.798 108.384 203.948 110.097 202.449 111.348C199.55 110.843 200.361 108.419 200.39 106.735C200.446 103.438 201.104 100.152 201.177 96.8541C201.385 87.4901 204.115 80.4071 215.814 80.4721C193.274 77.9538 171.59 73.7902 148.86 71.0829C147.236 71.7802 146.356 72.0377 144.9 71.2958C143.051 69.3473 141.286 69.0309 138.743 69.037C130.212 70.5583 122.914 67.9643 114.949 65.4428C119.258 61.4379 124.531 62.8446 129.597 63.9528C134.561 65.0385 139.379 65.3043 144.297 64.0065C145.886 63.5873 147.539 63.1203 149.156 63.1403C167.995 63.3737 186.722 59.9291 205.581 61.3285C214.459 61.987 223.266 63.5197 232.208 63.4708C233.593 63.4633 234.61 64.4318 235.328 66.6474Z" fill="#9B613D"/>
<path id="Vector_28" d="M113.583 64.918C121.74 66.1741 129.105 67.5061 137.266 68.9629C135.723 71.6858 132.629 71.2097 129.782 70.782C115.593 68.6499 101.429 66.3457 87.0898 63.157C88.9382 61.9065 90.9805 62.1838 93.5449 61.666C94.5461 61.3992 95.0012 61.3992 96.1414 61.4956C98.292 62.0364 99.7571 62.4809 101.824 62.8579C102.426 62.7905 103.277 62.8069 103.699 62.8594C106.511 65.6904 109.765 64.8701 113.583 64.918Z" fill="#341910"/>
<path id="Vector_29" d="M173.96 124.221C173.956 125.899 173.757 126.938 172.683 127.141C172.22 127.229 171.329 126.682 171.111 126.204C166.17 115.4 167.982 104.477 170.276 93.5146C172.7 96.979 172.793 101.004 171.63 104.319C169.178 111.307 171.061 117.376 173.96 124.221Z" fill="#2B0E0A"/>
<path id="Vector_30" d="M208.024 105.682C211.423 103.487 214.774 102.194 216.583 98.6272C218.111 95.6157 220.833 94.9182 225.665 95.5916C219.291 100.213 216.009 106.294 208.807 108.904C208.05 108.151 207.966 107.25 208.024 105.682Z" fill="#AF794F"/>
<path id="Vector_31" d="M79.9039 60.8051C81.9274 60.7218 83.3426 60.7587 85.4654 60.8583C86.5328 61.2743 86.8927 61.6273 86.6979 62.4948C86.1434 63.0089 86.1085 63.0438 86.089 63.0634C83.2555 62.9972 80.4332 63.0165 77.6319 62.7823C76.152 62.6586 76.5799 61.7907 77.4698 61.2855C77.9818 60.9952 78.6808 61.0343 79.9039 60.8051Z" fill="#341910"/>
<path id="Vector_32" d="M143.957 70.8844C145.238 70.8065 146.034 70.8787 147.421 71.0465C146.662 72.8099 144.721 73.317 142.95 72.5963C141.217 71.8907 142.837 71.4354 143.957 70.8844Z" fill="#341910"/>
<path id="Vector_33" d="M254.427 86.5703C253.173 87.1436 252.307 87.1509 250.794 87.2188C249.189 87.668 248.428 87.4285 248.06 85.8894C249.591 84.25 250.929 83.2815 252.67 81.8284C260.045 79.9973 265.152 74.8491 271.545 72.2896C275.083 70.8733 278.444 69.0151 282.774 69.0034C273.455 74.6704 264.135 80.3374 254.427 86.5703Z" fill="#4F3020"/>
<path id="Vector_34" d="M252.362 75.4053C251.934 74.9463 252.419 74.1487 252.658 73.7471C262.203 69.9551 269.102 62.2646 279.417 59.1582C272.032 66.2686 263.456 72.803 252.362 75.4053Z" fill="#463226"/>
<path id="Vector_35" d="M247.705 66.6396C253.517 64.4043 258.05 59.3711 265.432 59.1035C262.935 63.9678 256.936 64.6506 252.366 68.6353C251.152 69.3672 250.321 69.5271 248.871 69.8367C247.934 69.4902 247.615 68.9941 247.484 67.6343C247.672 66.77 247.686 66.6812 247.705 66.6396Z" fill="#391C14"/>
<path id="Vector_36" d="M280.006 58.9181C280.067 58.5052 280.186 58.1639 280.42 57.9449C281.55 56.8871 283.179 54.7032 284.233 56.1905C285.433 57.8834 282.813 58.4166 280.903 59.1818C280.344 59.296 280.117 59.0455 280.006 58.9181Z" fill="#463226"/>
<path id="Vector_37" d="M247.542 85.2524C248.365 85.9087 248.732 86.4119 249.751 87.0039C246.807 90.8079 241.491 90.647 237.95 93.7327C238.419 95.9656 241.076 94.5327 241.979 96.6794C238.229 99.0916 234.164 100.444 228.594 100.324C232.238 91.2781 239.844 88.6523 247.542 85.2524Z" fill="#AF794F"/>
<path id="Vector_38" d="M247.004 66.894C247.793 67.3013 247.915 67.8323 248.144 69.1746C245.33 71.7126 242.408 73.4392 238.826 75.166C237.993 69.5461 243.266 69.386 247.004 66.894Z" fill="#532E1B"/>
<path id="Vector_39" d="M211.001 117.345C211.716 112.617 215.211 112.576 219.276 111.415C217.403 115.793 214.684 117.165 211.001 117.345Z" fill="#9C6F48"/>
<path id="Vector_40" d="M232.783 79.1179C231.711 75.6472 233.987 74.8828 237.489 74.8713C237.445 77.4326 235.375 78.1765 232.783 79.1179Z" fill="#532E1B"/>
<path id="Vector_41" d="M247.899 111.383C249.41 113.339 248.706 114.024 246.275 113.184C246.362 112.278 246.829 111.834 247.899 111.383Z" fill="#391C14"/>
<path id="Vector_42" d="M241.896 115.388C243.346 117.304 242.667 117.993 240.274 117.16C240.355 116.262 240.822 115.824 241.896 115.388Z" fill="#391C14"/>
<path id="Vector_43" d="M229.717 81.0259C229.675 80.5374 230.305 79.9346 231.579 79.1843C231.612 79.6619 231 80.2866 229.717 81.0259Z" fill="#532E1B"/>
<path id="Vector_44" d="M225.849 83.0415C225.888 82.4722 226.732 81.8018 228.398 81.0906C228.365 81.6799 227.509 82.3103 225.849 83.0415Z" fill="#532E1B"/>
<path id="Vector_45" d="M86.8492 62.9951C86.148 62.6613 86.1524 62.3137 86.1651 61.4433C88.297 60.9499 90.4207 60.9787 93.318 61.2033C92.223 63.2092 89.8402 62.894 86.8492 62.9951Z" fill="#532E1B"/>
</g>
</svg>
