<svg width="205" height="216" viewBox="0 0 205 216" fill="none" xmlns="http://www.w3.org/2000/svg">
<g id="livres">
<path id="Vector" d="M159.438 165.428C160.112 179.386 160.122 192.847 160.226 206.967C168.231 210.231 176.363 208.097 185.171 208.621C188.203 208.364 190.43 208.231 193.481 207.946C197.693 208.77 201.713 207.249 204.893 211.074C202.245 215.437 198.009 214.632 194.116 214.696C182.799 214.884 171.477 214.644 159.231 214.951C155.224 215.664 152.166 215.394 148.232 214.614C145.583 213.871 144.133 212.779 141.986 211.171C141.027 210.066 140.713 209.571 140.11 208.252C139.455 202.37 138.425 197.252 141.756 191.909C142.896 191.184 143.416 191.013 144.745 190.939C146.528 191.518 147.321 192.207 148.269 193.804C148.903 195.439 149.091 196.399 149.168 198.058C149.253 200.358 149.332 201.979 150.379 203.845C150.689 204.211 151.534 204.454 151.925 204.213C152.911 203.041 153.206 202.01 153.356 200.286C153.371 199.216 153.369 198.784 153.352 197.697C153.221 195.701 153.103 194.36 153.276 192.312C153.124 189.664 152.448 187.789 152.565 185.045C154.353 178.607 152.162 172.497 155.118 166.267C156.589 164.984 157.637 164.755 159.438 165.428Z" fill="#7D4425"/>
<path id="Vector_2" d="M93.682 2.41393C99.1247 1.89361 103.907 1.69994 109.569 1.31469C111.294 0.896904 112.156 0.799248 113.698 0.923943C114.806 1.16027 115.246 1.2973 116.381 1.56524C119.361 2.17168 122.383 1.46838 122.222 5.87695C119.422 8.71288 116.457 9.43371 113.453 9.3886C96.7565 9.13781 80.3087 12.3258 62.8105 12.7712C59.0944 12.2131 56.609 10.7294 53.2721 9.26269C52.3586 8.25897 52.1037 7.76983 52.5497 6.84118C53.2506 6.40167 53.0087 6.2763 53.0082 6.41259C56.8756 1.26702 61.9899 4.32018 67.4848 4.96642C71.9179 5.85888 75.3805 4.83654 79.6181 3.99682C81.0959 3.06054 81.9779 2.74719 83.6391 3.14306C87.2565 3.911 90.144 3.38305 93.682 2.41393Z" fill="#613F2E"/>
<path id="Vector_3" d="M17.7171 26.5032C17.1092 22.6371 18.2518 20.3409 21.9979 20.2276C25.5194 20.1211 29.0367 19.8885 33.4244 19.5383C36.4552 19.4267 38.6175 19.4883 42.4278 19.6561C48.4444 19.7489 53.2738 17.2861 56.5028 23.0112C52.5465 27.9959 47.4845 27.8786 42.672 27.6681C34.5916 27.3147 26.4598 29.2208 17.7171 26.5032Z" fill="#613F2E"/>
<path id="Vector_4" d="M68.0875 4.75519C63.7442 5.69757 59.1944 5.96734 53.8262 6.39294C52.461 3.17914 53.3768 -0.0950941 57.1698 0.808409C60.7283 1.65619 65.2083 0.242673 68.0875 4.75519Z" fill="#FBE691"/>
<path id="Vector_5" d="M52.4585 6.3559C53.2507 6.40167 53.3582 7.13562 53.4521 7.49445C53.9597 8.75079 54.352 9.65741 54.8472 11.3149C54.9707 12.5627 54.9717 13.0686 54.865 14.3322C54.4729 16.0888 54.0232 17.0071 52.8311 18.361C50.8145 19.5996 49.293 19.6667 47.0234 19.1658C47.7883 14.5552 46.3809 9.00635 52.4585 6.3559Z" fill="#FBE691"/>
<path id="Vector_6" d="M45.8262 19.0341C47.9285 18.8312 49.5466 18.7881 51.855 18.3033C55.4792 18.6038 54.3755 20.0667 52.6877 20.5143C50.1963 21.1749 47.5059 20.759 44.1262 20.5322C43.3533 20.348 42.8677 20.0753 42.627 19.9365C43.3713 19.5964 44.3567 19.3951 45.8262 19.0341Z" fill="#613F2E"/>
<path id="Vector_7" d="M84.1783 2.94545C83.4135 3.63765 82.5394 3.78993 81.0048 3.84181C80.8356 1.20399 81.5243 -0.783372 84.1783 2.94545Z" fill="#FBE691"/>
<path id="Vector_8" d="M87.7305 20.3097C92.4879 19.8457 96.4813 19.7656 100.475 19.6827C112.831 19.4259 113 19.4347 112.301 32.2399C111.848 40.5263 110.857 48.7856 110.024 57.0486C108.825 68.9409 107.557 80.8263 106.301 92.7129C106.056 95.0243 105.806 97.3394 105.431 99.6319C104.758 103.743 102.805 105.949 98.1031 105.903C72.4937 105.65 46.9078 106.709 21.3172 107.571C12.1495 107.88 12.0074 106.926 13.0892 97.8335C14.4993 85.981 15.3143 74.0547 16.2318 62.1483C16.5145 58.4823 16.7799 54.8532 18.1309 50.5427C22.6029 45.0423 27.6068 42.841 34.2313 43.8855C38.3414 44.5335 42.7786 44.4741 47.3795 41.3957C37.1683 37.4098 27.9879 34.9961 19.1065 43.7802C18.2457 39.435 19.0321 35.2431 17.1265 30.6205C16.6007 28.9753 16.5462 27.912 16.7471 26.3739C25.599 23.181 34.4871 23.9139 43.2955 23.6264C47.1956 23.499 51.1673 24.0996 55.6536 22.2508C59.7562 21.7489 63.1783 21.7077 67.4544 21.6163C74.4635 19.8977 80.7603 21.2589 87.7305 20.3097Z" fill="#9A7041"/>
<path id="Vector_9" d="M13.4951 34.2182C12.7632 35.2987 11.395 35.3002 9.33813 34.9783C10.0042 33.7378 11.4868 33.6486 13.4951 34.2182Z" fill="#FCE18F"/>
<path id="Vector_10" d="M148.816 102.241C148.351 101.386 148.342 101.05 148.338 100.21C153.763 96.0472 155.643 91.0015 155.428 84.472C154.831 66.3757 155.67 48.2593 155.069 30.1591C154.968 27.11 154.963 24.2614 157.277 20.9654C158.458 19.8358 159.033 19.3779 159.896 18.4484C163.697 18.5266 162.782 21.2635 162.748 23.411C162.001 70.2957 161.216 117.18 160.271 164.994C159.269 165.879 158.436 165.833 156.978 165.842C151.646 161.71 153.777 156.106 153.397 151.074C152.929 144.875 153.871 138.62 152.624 131.695C151.705 128.645 150.232 126.784 148.552 124.243C148.347 123.235 148.418 122.867 148.625 121.953C154.393 115.341 156.537 109.18 148.816 102.241Z" fill="#856244"/>
<path id="Vector_11" d="M134.659 4.28136C128.301 0.609061 122.269 2.3554 115.582 2.26012C114.751 2.35363 114.536 2.04839 114.42 1.90197C114.28 1.26977 114.256 0.78405 114.962 0.291008C123.431 0.21862 131.173 0.241264 138.909 0.0403362C141.578 -0.0289998 144.139 -0.341805 146.173 2.94201C145.991 3.74078 145.585 3.76226 144.572 3.83398C141.361 6.41595 138.498 6.56884 134.659 4.28136Z" fill="#613F2E"/>
<path id="Vector_12" d="M185.102 208.309C177.837 210.713 169.664 210.209 160.899 208.216C168.289 207.791 176.259 207.956 185.102 208.309Z" fill="#856244"/>
<path id="Vector_13" d="M115.005 0.165527C115.497 0.564025 115.303 0.844299 114.707 1.44006C113.444 1.63953 112.583 1.52344 111.085 1.26526C111.738 0.764466 113.028 0.405883 115.005 0.165527Z" fill="#FCE18F"/>
<path id="Vector_14" d="M9.11612 85.5526C10.6129 89.2244 9.74649 92.7858 8.4125 97.074C5.36758 98.8683 2.04507 101.563 0.526274 96.3011C-0.912691 91.3168 0.667875 87.2146 4.42813 85.9297C5.61661 85.5237 7.01016 85.7178 9.11612 85.5526Z" fill="#724D33"/>
<path id="Vector_15" d="M134.333 62.563C133.526 57.6482 136.343 57.9695 139.104 58.1886C141.652 58.3908 143.71 59.284 143.896 62.1832C144.066 64.8343 144.016 67.5014 144.014 70.1615C143.981 110.069 143.94 149.976 144.043 190.808C142.168 196.557 143.795 201.682 142.631 207.426C141.675 208.248 141.045 208.248 139.689 207.644C135.746 202.289 136.334 196.857 136.335 191.587C136.341 152.713 136.417 113.838 136.313 74.964C136.302 71.0575 137.23 66.9538 134.333 62.563Z" fill="#EAC68A"/>
<path id="Vector_16" d="M155.226 125.992C156.158 138.656 156.152 151.331 156.25 164.951C155.662 172.098 156.882 178.388 154.938 185.15C154.067 186.05 153.745 186.358 152.936 186.211C152.447 185.758 152.382 185.693 152.339 185.676C151.888 185.183 151.48 184.708 150.587 183.428C148.531 167.598 149.187 152.539 149.772 137.507C149.93 133.433 150.307 128.853 155.226 125.992Z" fill="#C0A076"/>
<path id="Vector_17" d="M155.481 199.408C156.077 202.649 157.014 205.396 154.626 208.272C152.614 208.764 151.292 208.769 149.313 208.653C145.731 206.974 146.604 204.17 146.499 200.908C148.926 197.499 151.663 196.955 155.481 199.408Z" fill="#E6BD88"/>
<path id="Vector_18" d="M146.842 196.318C146.44 194.794 146.445 193.981 146.428 192.56C146.407 191.952 146.47 192.031 146.518 192.016C149.084 189.595 151.866 189.353 155.464 191.677C156.084 193.659 156.116 194.948 156.142 196.881C153.048 199.606 150.092 199.329 146.842 196.318Z" fill="#E6BD88"/>
<path id="Vector_19" d="M156.049 191.674C153.417 192.207 150.783 192.043 147.358 191.94C146.163 188.308 149.08 187.745 151.986 186.247C152.447 185.758 153.416 185.666 153.902 185.704C154.941 187.487 155.493 189.232 156.049 191.674Z" fill="#856244"/>
<path id="Vector_20" d="M146.391 196.362C148.834 197.694 151.847 197.411 155.418 197.637C156.17 197.941 156.203 198.355 156.206 199.392C153.486 199.931 150.795 199.847 147.314 199.948C146.465 199.127 146.406 198.121 146.391 196.362Z" fill="#856244"/>
<path id="Vector_21" d="M139.668 207.403C140.407 207.969 141.348 208.173 141.826 208.211C142.304 208.249 142.314 209.056 142.279 209.459C139.255 209.896 136.233 210.365 132.799 208.656C134.106 205.792 136.41 205.763 139.668 207.403Z" fill="#856244"/>
<path id="Vector_22" d="M149.027 208.887C149.987 208.503 151.316 208.431 153.29 208.524C152.547 209.964 151.002 209.848 149.027 208.887Z" fill="#856244"/>
<path id="Vector_23" d="M56.7326 18.1394C56.5927 14.9852 54.986 11.5527 59.4394 9.48822C67.1738 10.6479 73.9162 8.18348 80.7326 7.5113C94.1516 6.18787 107.629 6.16742 121.694 4.36127C127.456 3.27106 130.592 4.58448 130.297 10.6624C129.882 19.2101 129.947 27.7812 129.4 37.0535C128.599 38.1185 128.205 38.4724 127.153 38.3828C126.354 33.9866 126.245 30.0326 126.063 26.0818C125.678 17.6851 124.414 15.8146 116.402 15.7564C102.919 15.6581 89.363 14.4365 75.9641 17.273C73.4052 17.8147 70.7138 17.7288 67.2119 18.0162C65.5126 18.5514 64.6281 18.7537 63.0102 18.5507C61.4186 18.4311 60.5036 18.4687 58.904 18.5715C57.8723 18.5675 57.5251 18.4982 56.7326 18.1394Z" fill="#826B51"/>
<path id="Vector_24" d="M52.8818 12.2857C53.6625 12.2443 53.7795 12.7711 53.1576 13.5715C52.8351 13.419 52.7682 13.0886 52.8818 12.2857Z" fill="#613F2E"/>
<path id="Vector_25" d="M41.0624 182.738C31.1337 183.594 21.821 183.925 12.5107 183.874C4.64175 183.83 4.03702 183.304 4.38956 175.122C4.73135 167.185 5.71988 159.27 6.56827 151.361C7.7692 140.163 9.14493 128.984 10.3634 117.788C11.1117 110.912 11.8266 109.971 19.0241 109.846C30.3334 109.649 41.6693 109.313 52.9543 109.861C66.3102 110.508 79.4125 107.69 92.6945 107.811C95.0229 107.832 97.3537 107.826 99.6784 107.936C102.474 108.068 103.933 109.435 103.612 112.405C101.793 129.205 99.9718 146.004 98.216 162.81C97.8861 165.971 96.413 167.682 93.1635 167.7C90.8351 167.712 88.5067 167.749 86.1784 167.751C63.8869 167.763 41.5951 167.743 19.3036 167.811C16.1537 167.821 12.8234 167.148 8.52725 169.615C14.0529 172.793 18.9909 171.374 23.5819 171.618C28.559 171.882 33.56 171.699 39.4906 171.755C43.1947 174.929 43.7733 178.325 41.0624 182.738Z" fill="#645848"/>
<path id="Vector_26" d="M118.967 77.1745C114.084 119.602 109.758 161.324 105.439 203.047C105.336 204.04 105.387 205.052 105.233 206.034C104.853 208.447 103.272 209.347 100.985 209.095C99.1146 208.89 97.8973 207.785 97.8666 205.884C97.8346 203.895 98.0423 201.893 98.2643 199.909C100.379 181.047 102.59 162.195 104.634 143.325C107.899 113.196 111.061 83.0554 114.26 52.9192C115.21 43.9778 116.047 35.0232 117.141 26.0998C117.43 23.7492 116.458 19.5924 120.309 19.9964C124.784 20.466 122.66 24.6253 122.526 27.2376C122.34 30.8758 121.245 34.4573 121.943 39.0017C125.448 52.352 122.182 64.3886 118.967 77.1745Z" fill="#E6BD88"/>
<path id="Vector_27" d="M140.321 207.019C138.231 208.037 136.054 208.106 133.068 208.16C129.818 195.689 130.273 183.004 131.522 170.634C133.428 151.75 132.693 132.927 132.596 114.083C132.509 97.1701 132.479 80.2699 133.503 62.6004C140.119 61.908 140.218 61.908 140.221 68.8791C140.239 110.633 140.207 152.386 140.196 194.14C140.195 198.116 140.221 202.093 140.321 207.019Z" fill="#E5B06F"/>
<path id="Vector_28" d="M41.3245 183.552C40.4126 180.11 40.3801 176.791 40.3892 172.636C45.0762 171.737 49.7212 171.675 55.2385 171.632C61.6047 169.929 67.2317 171.094 73.6499 171.266C78.8325 171.653 83.1611 171.624 87.489 171.665C96.6501 171.753 96.6072 171.767 96.5068 181.348C96.4473 187.028 96.0005 192.639 94.2996 198.95C93.175 200.831 91.917 201.352 89.7546 201.203C84.947 198.177 80.0281 197.196 74.7993 195.084C64.1333 191.647 53.6138 194.905 42.7974 192.066C41.6243 191.427 41.1934 191.102 40.3608 190.075C43.5916 187.009 47.6726 187.953 51.5774 187.91C61.7546 187.8 71.9338 187.873 82.1462 186.813C68.7639 186.171 55.5029 184.688 41.3245 183.552Z" fill="#856244"/>
<path id="Vector_29" d="M52.2447 208.743C37.2308 209.482 22.2565 209.63 7.28599 209.455C0.548687 209.377 0.165142 208.566 1.39195 201.605C3.52012 189.531 3.52012 189.537 16.1908 189.526C23.513 189.52 30.8351 189.491 39.0582 189.423C39.9593 189.372 40.201 189.643 40.3253 189.776C44.5668 195.834 44.0382 204.795 52.2447 208.743Z" fill="#856244"/>
<path id="Vector_30" d="M52.9815 209.524C40.2083 205.928 40.2083 205.928 40.3961 190.795C49.7445 189.884 59.0396 189.809 68.3343 189.87C70.88 189.887 73.7474 189.104 75.8992 192.508C76.2442 194.415 76.4329 195.575 77.5982 196.951C79.6795 198.691 81.5382 198.727 84.127 198.115C85.6497 198.113 86.4783 198.361 87.7403 199.241C89.7244 199.719 91.2235 199.74 93.4713 199.774C94.2037 201.897 94.1873 204.007 94.0401 206.898C82.7127 210.135 71.3565 208.025 59.2625 209.172C56.8675 209.516 55.3138 209.55 52.9815 209.524Z" fill="#A1724C"/>
<path id="Vector_31" d="M123.742 160.741C124.19 175.488 124.317 189.396 124.401 203.305C124.415 205.647 124.378 208.561 121.288 208.522C118.098 208.483 114.569 208.736 111.836 206.481C111.318 206.053 111.369 204.661 111.498 203.764C114.559 182.432 115.421 160.897 117.594 139.489C118.224 133.276 117.276 126.862 120.297 120.459C126.049 121.771 124.172 126.104 124.202 129.319C124.297 139.514 122.612 149.675 123.742 160.741Z" fill="#A7825D"/>
<path id="Vector_32" d="M157.042 20.1843C159.169 41.0929 157.137 61.8804 157.659 82.6775C157.733 85.6493 157.679 88.6257 157.627 91.5989C157.51 98.3594 157.495 98.3591 149.176 99.7036C148.271 75.5485 148.156 51.3914 148.156 27.2343C148.156 20.4583 148.309 20.4583 157.042 20.1843Z" fill="#C5A9A4"/>
<path id="Vector_33" d="M133.857 4.66447C136.696 3.74705 139.501 3.74516 143.136 3.8137C144.043 18.4664 144.2 33.0488 144.141 47.6304C144.126 51.2225 145.773 56.198 138.95 55.8351C132.335 55.4831 134.278 50.5499 134.209 47.011C133.943 33.2034 133.931 19.3908 133.857 4.66447Z" fill="#9E8668"/>
<path id="Vector_34" d="M124.16 160.678C121.352 158.839 122.377 155.345 122.306 152.138C122.08 141.884 122.019 131.626 121.462 120.731C121.316 115.266 121.603 110.439 121.766 104.81C121.658 103.338 121.44 102.757 120.837 101.812C121.19 94.1179 121.693 86.8751 122.198 78.774C120.869 65.4595 121.15 53.1172 125.236 40.2238C125.655 39.4325 126.154 38.7301 126.324 38.3347C126.912 37.9273 127.329 37.9155 128.369 37.8341C128.618 51.9794 128.414 66.2009 127.833 80.4071C126.752 106.868 125.452 133.32 124.16 160.678Z" fill="#D5B282"/>
<path id="Vector_35" d="M18.3671 44.3328C22.6064 34.3506 26.247 32.5687 36.1977 34.8268C39.7395 35.6305 43.4541 37.4306 46.8039 36.9159C52.103 36.1018 52.2653 38.6662 52.2895 42.4001C52.3159 46.5187 50.6796 46.8575 46.7212 46.5572C40.5866 46.0917 34.3828 48.831 28.1032 46.3618C26.4638 45.717 24.9983 47.0603 24.332 48.8197C23.3564 51.397 21.5463 51.2128 18.9067 49.9977C18.3007 48.193 18.2988 46.6491 18.3671 44.3328Z" fill="#6E452D"/>
<path id="Vector_36" d="M155.777 125.373C152.989 132.687 152.569 139.911 152.446 147.124C152.248 158.77 152.315 170.421 152.192 183.016C150.842 184.92 149.399 184.765 147.452 184.079C146.638 164.054 146.267 144.551 147.877 124.333C150.66 123.917 153.164 123.489 155.777 125.373Z" fill="#957D64"/>
<path id="Vector_37" d="M125.071 39.5217C124.736 51.7495 123.817 64.0664 122.548 77.1498C121.357 77.8649 120.514 77.8137 119.04 77.8213C117.829 65.5729 120.495 53.5638 121.954 40.6355C122.929 39.767 123.708 39.689 125.071 39.5217Z" fill="#886536"/>
<path id="Vector_38" d="M148.341 101.758C157.842 102.955 157.828 102.953 156.773 112.635C156.318 116.81 158.223 122.679 149.551 121.385C148.428 116.172 148.097 110.937 147.728 104.82C147.65 103.553 147.61 103.167 147.916 102.316C148.263 101.849 148.322 101.794 148.341 101.758Z" fill="#C0A076"/>
<path id="Vector_39" d="M59.3384 209.596C63.2214 206.48 68.5454 208.137 73.6262 207.891C79.7766 207.593 85.9509 207.789 93.0117 207.725C91.8088 210.668 88.6343 209.774 85.802 209.792C77.2871 209.847 68.7712 209.748 59.3384 209.596Z" fill="#856244"/>
<path id="Vector_40" d="M87.5913 19.8641C82.5706 22.7299 76.2327 21.2573 69.1948 21.6387C74.176 18.2816 80.5586 20.3598 87.5913 19.8641Z" fill="#613F2E"/>
<path id="Vector_41" d="M73.8662 171.174C68.9893 171.684 63.4739 171.719 57.0347 171.703C61.6738 168.773 67.4521 169.753 73.8662 171.174Z" fill="#645848"/>
<path id="Vector_42" d="M147.175 184.156C148.238 183.668 149.526 183.78 151.465 183.927C152.114 183.963 152.25 184.806 152.274 185.232C150.566 185.893 148.833 186.141 147.175 184.156Z" fill="#856244"/>
<path id="Vector_43" d="M62.7 18.6788C63.2205 18.2549 64.1072 18.1164 65.667 18.0389C65.4463 19.1359 64.4226 19.6813 62.7 18.6788Z" fill="#613F2E"/>
<path id="Vector_44" d="M56.4265 18.1412C56.6218 17.9518 56.9563 18.0535 57.7554 18.396C58.2197 18.6368 57.3398 18.8819 57.3398 18.8819C57.3398 18.8819 56.5657 18.4324 56.4265 18.1412Z" fill="#613F2E"/>
<path id="Vector_45" d="M147.964 101.999C148.206 102.208 148.15 102.567 147.892 103.432C147.21 103.338 147.201 102.741 147.964 101.999Z" fill="#856244"/>
<path id="Vector_46" d="M120.648 101.858C121.236 101.785 121.572 102.338 121.67 103.514C121.064 103.603 120.719 103.052 120.648 101.858Z" fill="#886536"/>
<path id="Vector_47" d="M72.2294 59.8978C79.899 59.6826 86.9406 59.724 93.9821 59.7931C96.6107 59.8188 100.091 59.3955 99.6395 63.3341C99.2589 66.6549 99.3981 71.1218 94.2843 71.6173C92.3063 71.8088 90.2875 71.5265 88.2931 71.6082C83.0748 71.8225 77.8749 69.6595 72.62 71.731C69.6674 72.8949 67.8136 67.659 66.8802 68.8176C64.8561 71.3304 62.7386 71.904 60.0336 71.7505C49.5712 71.1566 39.1285 70.3069 28.6403 71.6449C26.1603 71.9611 22.9886 72.0785 22.5846 68.2103C22.2645 65.1484 23.5953 63.0227 26.6158 62.2154C31.0912 61.0195 35.8795 55.0496 39.848 63.0034C40.5467 64.4032 41.6886 64.4781 43.1595 63.9519C57.878 58.686 57.8842 58.7081 70.6891 60.5449C70.9694 60.5851 71.296 60.2992 72.2294 59.8978Z" fill="#663B20"/>
<path id="Vector_48" d="M59.675 88.0736C59.2524 97.3819 58.6664 96.8515 51.8036 97.5309C42.1933 98.4825 32.7438 93.7796 23.0981 97.566C19.8493 98.8414 16.5981 97.6601 16.2079 92.9288C15.7282 87.1104 16.9592 83.7597 21.1982 84.1133C33.905 85.1734 46.7428 84.7969 59.675 88.0736Z" fill="#62492A"/>
<path id="Vector_49" d="M108.673 39.8994C108.045 43.4685 107.308 46.2218 103.547 44.9272C100.931 44.0264 98.5539 42.0669 99.1333 39.0654C99.9858 34.6501 102.867 31.2691 106.785 29.1017C108.659 28.0651 109.81 29.4111 110.096 31.3763C110.492 34.0996 109.805 36.6495 108.673 39.8994Z" fill="#7F5234"/>
<path id="Vector_50" d="M38.3159 123.761C30.9155 123.265 24.3323 124.62 17.7151 122.703C18.8225 118.899 21.5342 119.882 23.543 119.861C36.8074 119.725 50.0737 119.773 63.3386 119.666C69.9404 119.613 76.5208 120.003 83.0847 118.19C87.1499 117.067 91.5808 117.345 95.8381 121.761C91.2322 121.761 87.543 121.949 83.8784 121.728C68.9377 120.828 54.199 124.167 38.3159 123.761Z" fill="#4B3934"/>
<path id="Vector_51" d="M51.4533 141.763C51.1742 142.381 50.0419 143.497 48.8913 143.517C38.3251 143.694 27.7565 143.622 17.3075 145.633C16.0856 145.869 14.6684 145.608 13.8102 144.079C13.3109 141.554 15.9606 140.351 16.7199 138.225C17.5495 135.904 19.7013 135.743 21.6623 136.819C30.7509 141.807 41.0612 139.47 51.4533 141.763Z" fill="#4B3934"/>
<path id="Vector_52" d="M53.2354 141.785C64.5034 134.945 77.3909 134.854 90.5854 137.69C78.5608 140.163 66.5156 142.416 53.2354 141.785Z" fill="#4B3934"/>
<path id="Vector_53" d="M75.0947 200.355C71.7768 197.613 73.5044 195.808 75.6758 193.61C80.0097 194.201 83.8708 195.123 87.6902 196.195C88.7771 196.5 88.9426 197.548 88.4336 199.148C87.3545 199.824 86.4836 199.95 84.9604 200.184C81.5293 201.087 78.6972 200.703 75.0947 200.355Z" fill="#5F371D"/>
<path id="Vector_54" d="M74.8115 200.489C77.0918 200.04 79.8752 200.043 83.4834 200.169C81.4421 202.329 78.4187 202.191 74.8115 200.489Z" fill="#856244"/>
<path id="Vector_55" d="M150.91 36.5292C150.787 33.7783 151.076 31.7962 153.9 32.1607C155.456 32.3615 156.047 33.7059 155.909 35.0626C155.696 37.1596 155.666 39.7103 152.573 39.554C152.03 39.5266 151.563 38.0047 150.91 36.5292Z" fill="#91785F"/>
<path id="Vector_56" d="M155.675 49.2213C154.76 51.1271 154.314 53.6145 152.332 52.3456C149.727 50.6784 149.936 46.1369 152.584 45.1709C155.172 44.2269 155.653 46.5495 155.675 49.2213Z" fill="#856244"/>
<path id="Vector_57" d="M151.827 89.5585C151.97 86.9642 151.343 84.9034 153.421 83.3989C156.036 86.1233 154.587 89.3467 154.527 92.3417C154.51 93.1985 154.057 94.3414 152.95 93.7755C151.635 93.1034 152.036 91.5359 151.827 89.5585Z" fill="#856244"/>
<path id="Vector_58" d="M152.183 73.8095C154.542 71.3192 155.939 72.2439 156.343 74.6025C156.619 76.2132 155.946 78.0667 153.951 78.0702C151.633 78.0741 152.144 75.988 152.183 73.8095Z" fill="#856244"/>
<path id="Vector_59" d="M153.719 61.0143C155.01 62.2478 155.704 63.3939 154.918 64.6388C154.693 64.9954 153.501 65.2347 153.25 64.9987C151.887 63.7192 151.86 62.2616 153.719 61.0143Z" fill="#856244"/>
</g>
</svg>
