<svg width="342" height="139" viewBox="0 0 342 139" fill="none" xmlns="http://www.w3.org/2000/svg">
<g id="piano">
<path id="Vector" d="M27.6209 8.48362C54.3565 7.8325 80.8241 7.91111 108.217 8.08066C112.128 10.4697 114.115 13.5191 115.404 16.9834C117.912 23.717 115.673 26.4308 108.511 24.8264C109.9 25.2535 111.62 26.078 112.669 25.655C122.386 21.7359 124.247 30.671 128.411 35.3805C130.226 37.4336 129.404 40.546 127.229 42.5902C124.015 45.6107 111.204 44.2495 106.714 40.9717C111.824 46.3906 118.623 43.6234 124.644 43.9024C131.594 44.2245 135.678 46.1605 133.246 54.6191C131.826 55.8871 130.828 56.3628 128.861 56.775C106.653 57.3978 85.3292 56.9421 64.0069 56.9778C58.9657 56.9863 54.0375 57.3849 48.2577 58.891C37.4264 58.803 34.9803 65.6875 34.4552 73.4304C33.5794 86.3381 34.9918 99.3163 32.5206 112.229C31.1512 119.385 36.243 120.813 42.4691 121.147C59.8307 122.077 76.9833 117.801 94.286 119.141C128.198 121.767 162.155 120.851 196.1 121.063C198.424 121.077 200.784 120.925 202.956 122.03C205.22 123.181 206.638 124.92 206.341 127.576C205.999 130.638 203.737 131.017 201.235 131.024C198.569 131.03 195.902 131.04 193.236 131.04C141.441 131.042 89.6446 131.041 38.8326 131.041C40.2442 130.355 42.7794 131.11 45.2223 131.106C97.5519 131.032 149.881 131.071 202.211 131.053C204.762 131.052 207.619 129.926 209.251 133.731C205.896 137.755 201.915 138.055 197.894 138.053C144.126 138.038 90.359 138.241 36.5917 138.036C34.2557 138.027 31.9583 137.729 28.7967 136.747C17.8363 129.097 21.0365 118.339 21.7538 108.965C23.213 89.8968 24.5687 70.8315 25.2274 51.7259C25.6375 39.8227 27.7916 28.0915 28.0008 15.3012C27.7757 14.3971 27.3834 14.1155 27.1791 13.9865C27.1012 12.3094 27.2271 10.7615 27.6209 8.48362Z" fill="#815D3D"/>
<path id="Vector_2" d="M303.599 0.391399C312.785 0.448528 321.885 0.48698 330.984 0.623211C334.152 0.670574 337.746 0.0688901 338.93 5.18425C335.32 9.93669 330.457 8.82719 325.943 8.99723C309.811 9.60478 293.63 7.87797 276.623 10.2547C270.096 11.6286 264.42 10.9401 257.82 11.0328C244.187 10.9225 231.501 11.1652 217.851 11.0428C181.711 10.965 146.538 11.2376 110.391 11.5606C84.1976 13.2675 59.0135 10.5572 33.8055 10.9073C32.0731 10.9314 30.5914 10.1879 28.5448 8.49321C27.2994 1.98832 30.0948 0.425945 35.5684 0.504314C50.8722 0.723675 66.1832 0.438763 82.4242 0.177288C94.9098 0.130779 106.462 0.343059 118.016 0.37199C143.799 0.436443 169.582 0.409588 196.285 0.260052C197.204 0.10014 198.115 0.352459 198.58 0.439007C233.199 1.69242 267.362 0.816936 302.434 0.725872C303.349 0.473064 303.514 0.411175 303.599 0.391399Z" fill="#39180F"/>
<path id="Vector_3" d="M302.422 0.333244C302.072 1.76147 300.423 1.88427 298.762 1.87585C266.006 1.70995 233.25 1.53356 199.769 0.942374C220.26 0.346182 241.473 0.104606 262.688 0.0111001C275.623 -0.0459069 288.559 0.124992 302.422 0.333244Z" fill="#9C6F48"/>
<path id="Vector_4" d="M233.841 53.2761C201.934 53.9832 170.54 54.0114 138.208 54.0515C136.496 54.7478 135.596 55.0367 133.941 54.5291C133.314 54.1279 133.292 54.1026 133.306 54.1071C132.73 47.9964 129.359 45.4267 123.28 45.9797C120.652 46.2187 117.984 46.0489 115.335 46.0141C104.823 45.8762 104.726 45.7454 106.156 34.3087C108.313 36.3542 106.167 40.9526 110.126 41.5998C115.02 42.3995 120.028 42.499 124.912 41.3591C126.191 41.0605 126.842 39.64 126.832 38.1992C126.819 36.3835 126.129 34.7788 124.24 34.5291C120.705 34.0622 117.127 33.9194 113.48 33.6349C114.013 30.7277 116.267 30.8036 118.054 30.2198C119.546 29.7326 121.39 30.5915 123.042 28.5468C117.027 27.853 110.848 28.5549 106.194 24.5144C104.755 23.2657 105.272 20.8067 105.565 18.8106C108.489 19.1587 107.039 22.5805 109.107 23.3704C110.715 23.9843 112.438 24.3014 113.706 22.8986C114.73 21.7652 114.171 20.4361 113.254 19.3828C110.83 16.5952 108.527 13.7725 109.202 8.93063C144.61 8.14218 180.079 8.11276 216.492 8.15548C218.1 9.07138 218.379 10.0243 217.972 11.7805C214.298 15.8355 209.716 15.0838 205.603 15.9442C203.516 16.3811 201.8 17.2223 201.64 19.6128C201.447 22.4842 203.164 23.6807 205.772 24.1344C210.599 24.9741 215.734 23.938 220.823 26.9714C221.567 27.8652 221.764 28.2995 221.863 29.4423C217.899 34.3734 212.625 33.0244 207.855 33.6657C204.904 34.0625 201.473 34.0833 201.646 38.3194C201.821 42.6148 205.465 42.0279 208.282 42.4716C215.096 43.5445 219.71 40.8795 222.668 33.8725C230.918 35.2843 234.008 40.641 233.841 53.2761Z" fill="#533E30"/>
<path id="Vector_5" d="M274.331 7.89624C292.502 7.92444 309.79 7.98584 327.077 8.12671C334.606 8.18811 334.664 8.24988 336.18 15.4314C336.726 18.0199 337.15 20.6764 337.232 23.314C337.862 43.5623 338.394 63.8137 338.902 84.9836C333.685 89.0209 331.73 85.9117 330.672 81.5342C329.902 78.3455 330.421 75.0131 329.725 71.7535C326.595 57.0853 326.655 57.0814 311.734 57.0573C307.132 57.0499 302.53 56.9897 297.028 57.0663C277.626 56.0188 259.038 59.1625 239.762 55.5894C232.446 45.4315 228.494 34.6927 227.412 22.252C228.714 19.0531 230.866 18.2697 233.152 18.974C239.572 20.952 241.844 17.2971 243.515 11.4731C245.772 8.67127 248.001 8.92175 250.957 10.3601C253.773 12.5524 253.785 15.3179 254.59 17.7634C255.141 19.4398 256.352 20.5728 258.225 20.4152C261.197 20.1649 261.959 18.2494 261.256 15.0281C259.819 12.7056 257.659 11.7406 257.3 8.92896C262.829 8.20606 268.138 8.08398 274.331 7.89624Z" fill="#946946"/>
<path id="Vector_6" d="M229.582 19.6927C230.03 26.1696 231.458 31.7535 233.778 37.1464C235.828 41.9119 237.671 46.7808 237.418 52.9399C237.2 54.1085 236.957 54.4696 235.521 54.5097C234.329 54.1887 233.828 54.0704 233.578 54.0128C231.236 47.0804 229.633 39.9934 224.13 34.0975C222.215 33.4238 221.587 32.4501 221.292 30.6137C221.315 30.0076 221.353 29.0748 221.38 28.6088C219.795 23.1898 219.841 17.837 217.662 12.3491C217.503 10.9281 217.437 10.1562 217.404 8.8061C230.162 8.17915 242.888 8.13057 256.567 8.20503C259.192 9.19697 260.865 10.066 262.968 11.3298C263.233 15.4183 266.955 20.6031 260.011 21.7875C252.965 22.9895 254.04 16.4244 251.489 12.4406C249.331 11.3104 247.808 9.81392 245.515 11.7241C241.264 17.2185 233.283 13.1408 229.582 19.6927Z" fill="#78563C"/>
<path id="Vector_7" d="M0 134.618C2.49951 131.394 6.19922 132.569 9.67261 132.269C13.1726 131.966 16.8127 132.997 20.6338 130.505C18.4026 122.058 19.4724 114.036 19.9602 106.133C21.4939 81.3015 23.4082 56.4939 24.9661 31.6641C25.301 26.3208 25.8933 21.1046 27.6619 15.2084C31.0142 21.1179 28.7749 28.0542 28.5237 34.9008C28.439 37.2117 27.5552 39.5177 27.6318 41.806C28.2803 61.1423 24.7202 80.2836 25.0764 99.6104C25.217 107.249 22.8325 114.724 23.2732 122.457C23.4868 126.209 23.5403 129.775 26.8562 133.206C18.6721 140.441 9.71802 138.967 0 134.618Z" fill="#472214"/>
<path id="Vector_8" d="M128.698 89.3865C129.422 90.5185 129.801 91.0547 130.723 91.7764C134.644 99.5198 131.983 107.617 133.405 116.081C133.098 117.373 132.896 117.869 132.202 118.998C123.486 119.72 115.264 119.809 106.106 119.836C104.89 119.352 104.612 118.929 104.085 117.792C103.139 108.015 105.383 98.6306 97.7717 90.6782C94.1768 86.922 96.0466 80.4333 95.7407 75.1388C95.4949 70.8874 96.3684 66.4643 93.4778 62.1692C91.5461 61.6054 90.208 61.7475 88.2004 61.779C85.3003 61.5 83.1208 61.0659 80.6121 59.5243C77.6709 55.5351 73.9324 56.0275 70.3848 55.9955C63.2273 55.9309 56.0696 55.903 47.9558 55.7495C50.2788 53.3186 54.0447 54.0872 57.6387 54.0822C80.9021 54.0502 104.165 54.1022 128.364 54.192C126.9 56.7877 123.105 55.5186 119.868 57.7794C116.094 60.5026 115.227 63.7765 115.078 67.6472C114.571 80.873 115.118 94.1031 114.716 107.328C114.628 110.254 114.485 113.884 118.903 113.681C123.449 113.472 122.636 109.835 122.3 106.96C121.803 102.713 121.409 98.4484 119.154 94.5713C117.275 91.3429 116.219 87.8479 119.47 84.1721C120.879 84.0249 121.579 84.0439 122.804 84.0703C125.435 85.1962 126.877 86.9898 128.698 89.3865Z" fill="#663B20"/>
<path id="Vector_9" d="M100.973 42.1443C100.036 45.7913 97.742 46.0679 95.3316 46.0758C90.3414 46.092 85.3434 45.9015 80.3631 46.1219C75.2843 46.3466 72.8312 44.2747 73.2806 39.1255C73.4718 36.9358 72.5484 34.585 74.2135 32.4668C76.6666 35.5601 73.2574 40.7422 76.8534 42.4504C79.4339 43.6763 83.2508 42.2605 86.5196 42.0906C88.5113 41.9871 90.5121 42.0657 92.504 41.9639C95.182 41.8269 96.9955 40.6296 96.8412 37.6844C96.714 35.2637 95.0394 34.1075 92.8395 34.167C88.451 34.2855 84.2606 31.8456 79.381 34.3998C80.7286 28.8903 84.3243 30.0616 86.9488 30.1697C94.6637 30.4875 98.1837 30.4736 97.4916 20.4108C97.4298 19.5137 98.0643 18.5686 98.6197 16.9235C102.82 20.2236 101.708 24.5859 100.696 27.7227C99.1478 32.5232 99.6795 36.8156 100.973 42.1443Z" fill="#6E452D"/>
<path id="Vector_10" d="M45.5126 12.0684C50.0832 12.1205 53.7548 12.0239 57.4035 12.2673C60.8371 12.4965 63.0236 14.3346 62.8903 18.0248C62.7577 21.6921 60.0502 22.0464 57.2319 22.0543C52.2367 22.0685 47.2414 22.05 42.2463 22.0316C38.7065 22.0186 35.3849 21.7015 35.4938 16.8857C35.5861 12.802 38.299 12.0742 41.6066 12.0916C42.6056 12.0967 43.6047 12.0767 45.5126 12.0684Z" fill="#6E452D"/>
<path id="Vector_11" d="M50.9189 48.0029C48.7139 48.0078 47.3809 48.1194 46.071 47.9923C42.8755 47.6821 38.8618 49.4309 36.6855 46.5261C34.0142 42.9606 40.7602 40.01 38.3931 35.7771C37.9668 35.0149 39.5981 34.1898 40.5134 34.1919C46.2803 34.2045 52.1523 33.082 59.0608 35.4044C53.604 40.2747 47.1797 35.7631 42.3108 39.6742C44.793 43.4705 48.6404 41.8478 51.8274 42.0226C53.7705 42.129 55.7522 41.3656 57.7119 41.3878C59.5444 41.4086 60.6821 42.6174 60.7737 44.5593C60.845 46.0708 60.0491 47.2686 58.6897 47.4989C56.4302 47.8816 54.1013 47.8551 50.9189 48.0029Z" fill="#663B20"/>
<path id="Vector_12" d="M77.9915 23.8466C77.6809 20.8914 77.6809 18.6415 77.6809 16.3915C79.7444 26.057 89.3259 19.641 94.8831 24.5549C88.561 26.5176 83.4873 27.2109 77.9915 23.8466Z" fill="#613A25"/>
<path id="Vector_13" d="M235.08 54.8345C234.943 54.1562 235.445 54.0865 236.694 53.8821C256.788 53.8315 276.134 53.9154 296.421 54.0058C298.89 55.4926 301.74 55.0302 302.785 58.355C304.35 66.9308 305.334 74.7316 304.843 82.6431C304.554 87.3097 303.935 91.8512 298.817 95.1421C296.998 95.8675 295.912 96.0297 294.017 95.887C284.99 89.9345 284.242 87.839 283.231 68.5353C283.422 84.329 280.331 100.013 281.7 116.573C281.169 117.72 280.891 118.147 280.108 119.15C273.907 119.647 268.1 121.314 262.138 117.968C273.219 110.658 274.958 104.804 267.652 93.595C262.478 85.6569 264.29 76.9574 263.344 67.6139C262.225 76.7179 264.239 84.7439 264.589 92.8492C264.914 100.35 266.512 108.143 261.76 115.669C260.17 116.587 259.171 117.094 257.641 117.777C252.37 103.114 244.263 89.2726 243.726 73.1875C243.56 68.2094 243.323 63.3097 239.527 58.5557C238.077 57.0154 236.897 56.2292 235.08 54.8345Z" fill="#663B20"/>
<path id="Vector_14" d="M132.149 118.431C129.394 109.882 127.783 101.801 130.829 92.816C133.76 82.6178 132.577 72.9317 133.06 63.3531C133.165 61.275 132.323 58.096 136.006 58.3536C138.757 58.546 139.676 60.8377 139.726 63.406C139.837 69.0521 139.662 74.722 140.142 80.3363C140.497 84.4753 139.315 89.0947 143.358 93.2154C146.216 99.2121 145.064 105.016 146.48 111.386C146.172 105.418 144.045 100.271 146.575 94.5495C151.52 91.0395 153.267 86.7357 153.303 81.5183C153.342 75.8711 153.373 70.2213 153.588 64.5794C153.665 62.5406 152.603 59.3818 156.474 59.6267C160.164 59.8602 158.848 62.9448 159.04 64.9888C159.257 67.2959 159.139 69.6353 159.142 71.9608C159.166 86.9442 163.23 101.387 165.072 116.939C154.484 120.621 143.681 118.396 132.149 118.431Z" fill="#EAC68A"/>
<path id="Vector_15" d="M280.509 119.806C279.604 119.725 279.424 118.873 279.381 118.44C284.47 113.379 290.053 113.972 294.768 116.128C290.668 110.148 289.433 103.032 292.759 94.6283C294.199 93.9971 294.979 93.9748 296.344 93.9598C302.526 98.0903 300.157 105.115 302.863 110.311C303.849 112.204 304.861 113.849 307.265 113.438C309.379 113.077 309.732 111.171 309.57 109.581C307.984 94.1045 306.746 78.5862 304.404 63.1976C304.17 61.6594 302.426 60.5811 301.478 58.3929C300.145 56.7812 299.075 55.8287 297.684 54.4442C305.29 54.0234 313.223 53.8401 321.14 54.1041C328.222 54.3401 330.569 56.4806 331.245 63.5469C331.809 69.4407 334.058 75.0966 333.441 81.1571C333.177 83.7456 334.446 85.6108 338.091 85.8867C338.967 89.4003 339.086 92.8975 339.124 97.2634C338.172 98.8657 337.173 99.15 335.342 98.5837C333.259 97.157 333.072 94.967 330.586 94.3728C324.825 91.5942 326.43 86.2666 325.257 82.0265C323.575 75.949 325.143 68.7986 318.485 62.1481C316.315 73.0466 319.545 82.0552 319.285 91.053C319.19 94.3577 320.737 97.6467 320.482 100.927C319.807 109.619 323.787 114.646 332.504 117.266C330.766 121.258 327.149 120.082 324.02 120.089C309.819 120.123 295.616 119.971 280.509 119.806Z" fill="#85593A"/>
<path id="Vector_16" d="M333.086 116.943C317.21 118.903 318.498 119.509 317.116 104.417C315.963 91.8328 314.53 79.2713 313.616 66.6712C313.396 63.6446 311.165 58.8981 317.28 58.2761C323.504 57.643 325.718 59.022 326.686 65.6847C327.976 74.5654 328.629 83.5386 329.824 93.3397C331.1 101.521 332.109 108.835 333.086 116.943Z" fill="#F6D08B"/>
<path id="Vector_17" d="M183.46 80.1089C183.382 73.8135 183.289 68.5075 183.244 63.2012C183.223 60.6889 183.744 58.59 186.913 58.4179C190.525 58.2218 191.462 60.3349 191.489 63.3859C191.519 66.7024 191.32 70.0486 191.69 73.3289C192.531 80.7816 193.428 87.9087 197.976 94.7083C201.741 100.337 199.653 108.201 200.599 115.029C200.858 116.898 199.132 117.857 197.335 118.014C195.687 118.158 194.021 118.142 192.364 118.133C184.075 118.09 183.781 117.936 183.625 109.954C183.438 100.338 183.507 90.7168 183.46 80.1089Z" fill="#997F62"/>
<path id="Vector_18" d="M238.638 58.3418C249.431 58.0022 247.82 59.3196 247.581 66.828C247.391 72.7768 247.378 78.6499 248.785 84.5067C249.68 88.2275 248.865 92.6012 253.844 94.2369C255.198 94.6814 255.281 96.3173 255.419 97.6109C256.077 103.822 256.701 110.037 257.223 117.103C252.692 117.908 248.275 117.862 243.05 117.668C239.751 116.584 238.462 114.502 238.649 112.129C239.661 99.2447 234.874 86.6526 237.283 72.9517C238.075 67.7389 236.45 63.276 238.638 58.3418Z" fill="#AB8C69"/>
<path id="Vector_19" d="M54.1032 118.328C53.3649 112.463 53.2504 107.158 53.4267 101.863C53.5448 98.3216 53.3207 94.8742 56.3166 91.7538C59.1623 88.7896 58.2197 84.2041 58.5405 80.3092C59.0573 74.0385 59.1396 67.733 59.445 61.4442C59.5717 58.8363 61.3342 58.2262 63.5387 58.3711C65.5077 58.5005 66.5566 59.7324 66.5129 61.6039C66.3971 66.5716 65.8989 71.5404 65.9882 76.5007C66.0983 82.5999 64.6147 88.9828 69.3425 94.4111C70.3688 95.5893 69.6901 98.2527 69.8932 101.059C75.738 117.259 74.5151 119.135 58.8176 119.042C57.4928 119.034 56.1701 119.01 54.1032 118.328Z" fill="#EFC589"/>
<path id="Vector_20" d="M239.508 117.145C220.702 118.592 224.198 118.563 223.138 103.678C222.862 99.7961 222.08 95.7819 225.587 92.5482C227.743 90.5605 227.146 87.5827 227.097 84.9878C226.959 77.7062 226.705 70.4251 226.365 63.1501C226.247 60.6346 226.191 58.4519 229.484 58.1376C232.655 57.8352 234.638 59.0385 234.928 62.3467C235.16 64.9853 235.251 67.6361 235.511 71.1338C239.529 86.5729 238.923 101.616 239.508 117.145Z" fill="#9D8566"/>
<path id="Vector_21" d="M119.974 83.1025C119.839 87.5909 118.646 91.4059 123.439 93.2776C125.201 93.9656 125.313 95.8147 125.48 97.5054C125.968 102.471 126.329 107.459 127.093 112.384C127.787 116.855 126.05 118.55 121.725 118.176C118.123 117.864 114.43 118.754 110.673 117.367C110.673 111.848 110.558 106.327 110.696 100.813C111.005 88.5072 111.562 76.2067 111.757 63.8998C111.824 59.7256 113.177 57.5758 118.402 58.072C120.682 66.0848 118.993 74.1692 119.974 83.1025Z" fill="#F6D08B"/>
<path id="Vector_22" d="M205.447 64.7602C205.51 61.2153 205.076 58.2039 209.161 58.311C213.018 58.4119 212.959 61.3071 213.029 63.9829C213.203 70.6252 213.248 77.2714 213.474 83.9117C213.562 86.5101 213.004 89.5396 215.29 91.4072C223.525 98.1352 217.44 107.742 220.284 115.55C220.798 116.959 219.099 117.781 217.72 117.855C215.072 117.996 212.414 117.936 209.761 118.003C206.433 118.088 204.728 116.416 204.948 113.172C205.459 105.65 203.866 98.26 205.336 90.5192C206.855 82.518 205.541 73.9787 205.447 64.7602Z" fill="#997F62"/>
<path id="Vector_23" d="M37.2292 72.0449C37.4978 68.5023 37.611 65.8379 37.948 63.202C38.2534 60.8142 38.9062 58.4726 42.0168 58.5322C45.6477 58.6019 45.1091 61.4133 44.9829 63.6144C44.7168 68.2602 43.8405 72.8955 43.8864 77.5285C43.9421 83.169 42.0014 89.6261 49.0576 93.1759C50.538 93.9206 50.3164 96.0895 50.2519 97.78C50.05 103.094 49.823 108.408 49.7475 113.724C49.7092 116.422 48.9597 117.897 45.8916 118.296C36.4506 119.524 35.0576 118.423 35.2883 108.747C35.5732 96.7927 35.4033 84.8126 37.2292 72.0449Z" fill="#F0CD8F"/>
<path id="Vector_24" d="M80.0564 59.9914C82.2666 58.2723 84.4685 58.1756 87.1541 59.5053C91.0259 63.5621 90.1736 68.0778 90.2137 72.3111C90.3265 84.2766 90.4165 96.2462 90.1893 108.21C89.9998 118.18 88.657 118.914 79.3162 119.163C69.9844 119.412 72.0135 112.79 71.4156 107.603C71.2635 106.284 71.6927 104.97 72.712 102.87C74.0831 98.7219 72.8252 94.7218 77.2361 92.6934C79.657 91.5803 78.8872 88.638 78.9925 86.4267C79.3982 77.906 79.6966 69.38 80.0564 59.9914Z" fill="#EAC68A"/>
<path id="Vector_25" d="M261.392 116.343C260.607 100.484 260.035 84.8876 259.492 69.2899C259.411 66.9664 259.459 64.6384 259.452 62.3125C259.444 59.523 260.652 57.8905 263.627 58.0694C266.221 58.225 266.758 60.0607 266.846 62.2011C267.134 69.173 267.21 76.1622 267.782 83.1107C268.115 87.1505 267.172 92.0454 272.982 93.7058C274.668 94.1875 274.805 96.2977 274.873 97.9907C274.981 100.647 275.128 103.303 275.179 105.96C275.434 119.025 277.938 118.447 262.57 117.483C261.71 117.286 261.616 116.604 261.392 116.343Z" fill="#EAC68A"/>
<path id="Vector_26" d="M168 118.474C167.094 113.397 166.848 108.766 166.882 104.136C166.913 99.777 165.288 94.8667 171.597 92.6908C173.867 91.908 173.118 88.574 173.134 86.31C173.187 78.6895 173.113 71.0683 173.169 63.4478C173.183 61.5053 173.138 59.3277 175.912 59.0264C179.393 58.6482 179.498 61.2281 179.691 63.5339C181.181 81.356 181.809 99.1977 180.063 117.598C175.961 119.851 172.326 118.784 168 118.474Z" fill="#AB8C69"/>
<path id="Vector_27" d="M340.46 121.636C340.961 131.686 340.962 131.861 332.265 131.907C316.41 131.99 300.552 131.939 284.699 131.725C280.772 131.672 276.857 130.782 272.101 130.178C267.939 123.001 272.721 123.069 277.444 123.056C296.104 123.006 314.764 123.16 334.344 122.717C335.266 122.456 335.484 122.337 335.6 122.291C336.836 120.89 338.26 120.686 340.46 121.636Z" fill="#946946"/>
<path id="Vector_28" d="M72.7141 101.993C73.408 104.998 73.6021 107.972 73.6968 110.949C73.9177 117.906 74.2656 117.992 81.061 118.171C85.9116 118.299 87.3831 116.375 87.3496 111.726C87.2297 95.109 87.4104 78.4895 87.5496 60.9343C88.5615 59.5175 89.501 59.0372 90.9512 58.4252C97.759 66.2599 94.4187 75.5464 94.9187 84.281C95.1846 88.9268 93.9482 93.5203 93.3037 98.1185C92.0125 107.33 93.9199 114.473 104.788 117.43C105.317 118.1 105.265 118.942 105.217 119.358C90.2144 119.839 75.2598 119.908 60.3052 119.961C58.3181 119.968 56.3037 120.053 53.9214 118.379C59.1206 117.889 64.9182 118.753 70.8833 117.189C70.3337 112.512 68.8604 108.12 69.7922 102.725C70.7161 101.912 71.4429 101.938 72.7141 101.993Z" fill="#7D4425"/>
<path id="Vector_29" d="M129.223 88.9714C126.087 89.9117 123.997 88.6511 123.38 84.7529C125.719 82.1272 124.019 79.918 123.868 77.7197C123.431 71.3352 122.5 64.7776 127.837 57.7369C130.879 68.7429 128.457 78.5057 129.223 88.9714Z" fill="#85593A"/>
<path id="Vector_30" d="M334.335 122.384C332.052 124.991 328.263 124.041 324.697 124.061C309.764 124.149 294.83 124.034 279.898 124.136C276.486 124.159 272.157 122.953 271.33 129.265C268.806 129.814 266.366 129.077 266.305 126.231C266.254 123.831 268.694 123.146 270.585 122.81C273.182 122.348 275.869 122.241 278.518 122.239C296.813 122.225 315.109 122.279 334.335 122.384Z" fill="#815D3D"/>
<path id="Vector_31" d="M239.74 117.771C237.736 103.127 236.571 88.4422 235.511 72.8718C235.969 72.0105 236.321 72.0349 237.204 72.1094C241.057 86.5075 241.33 101.152 242.106 116.641C241.688 117.591 241.133 117.661 239.74 117.771Z" fill="#533E30"/>
<path id="Vector_32" d="M223.12 64.7477C223.062 69.2053 223.055 72.808 222.894 76.4041C222.834 77.755 222.177 78.9976 220.656 79.1997C218.553 79.4794 217.653 78.0143 217.57 76.2964C217.364 72.0477 217.336 67.7874 217.36 63.5324C217.371 61.582 217.458 59.1085 219.945 58.9503C223.341 58.7341 222.796 61.742 223.12 64.7477Z" fill="#674D3A"/>
<path id="Vector_33" d="M164.985 70.6025C164.553 68.8688 164.159 67.9359 163.977 66.9631C163.42 63.9872 162.746 59.7793 166.449 59.6059C170.793 59.4027 169.008 64.0445 169.139 66.6055C169.339 70.505 169.779 74.5255 168.309 78.8207C163.87 77.4327 165.939 73.7771 164.985 70.6025Z" fill="#5A412E"/>
<path id="Vector_34" d="M75.4535 70.2722C74.9703 73.456 76.3685 76.2765 73.3119 78.7542C69.3795 72.8786 71.5289 66.6846 71.7084 60.7758C71.7262 60.1972 73.0524 59.2233 73.8002 59.1948C75.2491 59.1395 76.3693 60.329 76.3353 61.6811C76.2692 64.2909 75.7838 66.8903 75.4535 70.2722Z" fill="#7F5234"/>
<path id="Vector_35" d="M201.299 66.5452C201.101 71.1075 201.885 74.9795 200.179 79.3176C196.609 72.9644 196.38 69.1924 198.564 59.5576C202.464 60.3176 200.776 63.52 201.299 66.5452Z" fill="#5A4235"/>
<path id="Vector_36" d="M146.447 93.8989C146.969 100.719 146.969 107.504 146.969 114.29C144.206 108.286 143.494 102.003 143.728 94.7268C144.533 93.8694 145.229 93.8672 146.447 93.8989Z" fill="#9B613D"/>
<path id="Vector_37" d="M131.384 118.38C141.968 117.935 152.614 117.917 164.181 117.823C162.937 120.569 159.795 119.773 156.967 119.8C149.144 119.874 141.319 119.778 132.601 119.69C131.708 119.631 131.446 118.807 131.384 118.38Z" fill="#9B613D"/>
<path id="Vector_38" d="M341.135 121.343C339.72 122.128 338.381 122.134 336.378 122.193C335.703 120.65 335.691 119.054 335.807 116.672C337.006 114.788 338.283 114.633 340.226 115.487C340.911 117.462 341.06 119.013 341.135 121.343Z" fill="#815D3D"/>
<path id="Vector_39" d="M340.804 115.202C339.551 115.927 338.339 115.943 336.532 115.923C335.6 113.645 334.881 110.847 337.961 110.371C340.464 109.983 340.681 112.525 340.804 115.202Z" fill="#946946"/>
<path id="Vector_40" d="M75.2127 85.6157C74.6726 89.0845 72.8406 88.7094 71.0882 87.6314C69.3379 86.5547 69.5581 85.046 71.0413 83.847C72.8755 82.364 74.4358 82.3976 75.2127 85.6157Z" fill="#9B613D"/>
<path id="Vector_41" d="M334.752 98.9174C335.621 98.152 336.603 98.1218 338.314 98.1119C339.1 99.0966 339.257 100.068 339.192 101.024C339.09 102.533 339.509 104.654 337.483 104.945C335.197 105.274 335.462 103.011 335.096 101.57C334.938 100.951 334.938 100.293 334.752 98.9174Z" fill="#946946"/>
<path id="Vector_42" d="M167.748 118.516C170.696 118.005 174.173 117.982 178.519 118.042C175.829 120.254 172.087 120.041 167.748 118.516Z" fill="#9B613D"/>
<path id="Vector_43" d="M133.631 54.5175C134.193 54.1039 135.072 54.0798 136.61 54.0596C136.394 55.2578 135.38 55.907 133.631 54.5175Z" fill="#663B20"/>
<path id="Vector_44" d="M234.41 54.2254C234.442 54.226 234.562 54.5435 234.492 54.6868C234.422 54.8301 234.196 54.4291 234.262 54.3089C234.329 54.1888 234.379 54.2248 234.41 54.2254Z" fill="#946946"/>
<path id="Vector_45" d="M220.387 30.0269C221.964 30.9221 222.613 31.8364 223.365 33.3159C222.998 46.0231 222.998 46.0236 211.393 46.0525C209.727 46.0566 208.059 46.0842 206.394 46.0475C197.85 45.859 196.7 44.4026 197.26 36.0197C197.541 31.8225 199.363 30.0215 203.462 30.0699C208.794 30.1332 214.127 30.0603 220.387 30.0269Z" fill="#452B22"/>
<path id="Vector_46" d="M216.633 11.7996C226.122 14.5968 222.805 21.2463 221.902 27.5597C215.479 28.0961 209.543 28.2421 203.628 27.9473C197.887 27.6611 197.252 26.3719 197.217 19.4025C197.193 14.7083 198.453 11.7611 203.847 11.988C207.789 12.1539 211.747 11.9425 216.633 11.7996Z" fill="#452B22"/>
<path id="Vector_47" d="M143.895 30.0283C147.767 30.0212 150.735 29.9183 153.693 30.0496C160.542 30.3534 161.394 31.3412 161.295 38.413C161.203 44.99 160.565 45.733 153.974 46.0298C150.359 46.1926 146.729 46.1328 143.109 46.0436C139.894 45.9645 136.367 46.5332 135.424 41.8914C134.328 36.4958 135.729 32.5486 140.067 30.3874C140.892 29.9758 142.006 30.1404 143.895 30.0283Z" fill="#452B22"/>
<path id="Vector_48" d="M157.842 27.2745C152.071 27.7462 147.067 28.1997 142.108 27.9011C136.603 27.5698 135.223 25.4343 135.333 19.0945C135.434 13.2998 136.313 12.355 142.338 12.0241C144.994 11.8782 147.664 11.9523 150.327 11.9939C161.703 12.1716 163.976 16.2694 157.842 27.2745Z" fill="#3E2C23"/>
<path id="Vector_49" d="M179.62 23.9617C181.767 23.9317 183.099 23.9262 184.428 23.8709C187.097 23.7601 188.902 22.6821 188.893 19.7066C188.885 17.0475 187.565 14.9198 185.036 14.6228C181.1 14.1604 177.08 14.2523 173.103 14.3655C170.766 14.432 169.822 16.1477 169.407 18.344C169.079 20.0816 170.175 22.2346 168.042 23.5805C166.62 21.3777 167.377 19.0059 167.384 16.7394C167.387 15.7886 167.668 14.6845 168.205 13.9163C170.598 10.4867 188.462 11.5211 190.486 15.142C193.113 19.8432 190.939 25.0072 185.583 26.4098C181.328 27.5241 176.967 29.3446 172.445 26.4018C174.117 23.1124 176.723 24.3335 179.62 23.9617Z" fill="#301B14"/>
<path id="Vector_50" d="M322.04 32.8176C328.356 35.3963 327.609 39.9335 326.669 44.0633C325.727 48.202 321.892 48.291 318.673 47.8645C314.679 47.3351 309.041 50.6731 307.358 42.9037C306.826 40.7255 311.554 41.6058 308.127 38.8376C304.646 38.1531 303.37 39.7903 303.31 42.5223C303.193 47.7566 299.628 48.616 295.792 47.7832C289.262 46.3658 282.73 45.9482 276.098 46.0391C272.832 46.0837 270.962 44.586 272.095 41.0808C272.981 38.3429 273.078 35.0332 277.219 33.4479C292.285 27.8142 306.772 29.2179 322.04 32.8176Z" fill="#67371C"/>
<path id="Vector_51" d="M322.869 32.7456C308.422 34.6641 294.052 33.6508 278.81 33.2915C277.814 30.7802 277.692 28.4566 277.608 25.4273C279.621 20.765 282.854 21.8748 286.753 22.3694C288.363 22.0697 289.222 22.0469 290.726 21.9815C294.939 20.0803 298.374 20.4785 302.306 23.0446C305.285 24.1936 307.594 24.1054 310.425 22.5425C315.55 19.6189 319.854 19.9924 324.638 23.5996C324.506 26.8014 323.728 29.4334 322.869 32.7456Z" fill="#DEB07A"/>
<path id="Vector_52" d="M230.109 20.4517C227.071 13.1331 227.368 12.3916 233.416 12.0136C236.733 11.8064 240.077 12.0271 244.291 12.1062C245.499 16.3614 246.189 20.5051 241.236 23.0168C236.82 25.257 233.936 22.783 230.109 20.4517Z" fill="#5B3824"/>
<path id="Vector_53" d="M286.966 21.6704C285.623 25.9966 281.922 23.5564 278.416 24.6013C275.179 23.921 272.631 23.3208 271.627 20.39C269.928 15.4356 272.025 12.2283 277.281 11.919C286.269 11.39 286.949 12.0833 286.966 21.6704Z" fill="#532E1B"/>
<path id="Vector_54" d="M325.268 23.2964C321.02 23.6687 316.54 25.6001 311.758 22.6246C311.394 12.8264 311.525 12.6016 316.875 12.1683C324.377 11.561 325.233 12.6089 325.268 23.2964Z" fill="#401C10"/>
<path id="Vector_55" d="M303.147 22.8091C299.407 24.3142 295.912 25.0751 292.015 22.3388C291.313 13.0676 291.699 12.4085 297.188 12.0233C305.102 11.4678 306.597 13.8922 303.147 22.8091Z" fill="#39180F"/>
<path id="Vector_56" d="M250.965 12.864C252.695 12.1625 254.198 12.6266 254.837 14.4984C255.36 16.0305 255.17 17.9312 256.7 18.9609C258.505 20.1746 260.7 20.4252 262.073 18.678C263.586 16.7518 263.091 14.9319 260.226 14.6479C258.569 14.4836 257.594 13.965 259.307 12.5703C259.985 12.0188 261.194 12.1201 262.781 11.8245C266.063 14.8655 266.066 18.3984 263.969 21.575C262.174 24.293 258.945 24.3422 255.999 23.7577C250.123 22.5924 251.16 17.8038 250.965 12.864Z" fill="#502D1B"/>
<path id="Vector_57" d="M307.544 39.0894C311.53 38.4468 315.406 38.3256 319.279 38.3892C320.811 38.4143 322.888 38.4828 322.606 40.7544C322.347 42.8419 320.291 42.5627 318.793 42.5393C315.563 42.4889 312.335 42.2638 308.225 42.106C307.373 41.2963 307.403 40.4906 307.544 39.0894Z" fill="#D5B282"/>
<path id="Vector_58" d="M105.736 117.406C87.0541 117.533 89.5651 120.646 89.8097 102.028C89.9935 88.0467 90.6652 74.0719 91.2907 59.1939C96.4254 57.6696 98.9594 59.4452 98.7037 64.8603C98.4535 70.1623 98.431 75.5132 98.8615 80.7976C99.2555 85.6381 97.215 91.7952 104.957 93.4974C106.892 93.9228 106.791 96.818 106.739 98.8155C106.582 104.782 106.355 110.747 105.736 117.406Z" fill="#EFC182"/>
<path id="Vector_59" d="M103.553 74.4624C103.49 68.9424 102.845 64.1207 104.891 59.5098C108.309 65.0441 107.895 70.7576 105.853 76.4657C105.683 76.9413 104.155 76.1903 103.553 74.4624Z" fill="#886536"/>
<path id="Vector_60" d="M292.888 93.4644C293.169 101.777 296.664 109.206 295.479 117.484C290.748 118.683 285.876 117.853 280.209 118.042C278.485 107.858 276.697 97.8982 279.469 87.5206C281.128 81.3094 279.798 74.3005 279.818 67.6501C279.823 65.6559 279.789 63.6588 279.878 61.668C279.98 59.4061 280.979 57.9038 283.496 57.931C285.992 57.958 286.92 59.454 287.088 61.7152C287.725 70.3223 287.205 78.9972 288.888 87.5551C289.368 89.9978 289.677 92.0959 292.888 93.4644Z" fill="#EFC589"/>
<path id="Vector_61" d="M300.771 58.3592C304.556 58.3606 309.067 57.1812 309.159 62.8418C309.455 81.0487 312.71 99.0114 314.142 117.194C312.75 117.599 311.831 118.061 310.89 118.111C299.714 118.714 299.648 118.707 298.082 107.636C297.525 103.699 297.368 99.7049 296.979 94.8521C300.068 92.3805 301.655 90.1994 301.393 86.3174C300.781 77.2238 300.651 68.0974 300.771 58.3592Z" fill="#F6D08B"/>
<path id="Vector_62" d="M293.342 75.2163C291.425 70.144 291.04 65.6461 291.816 61.0675C291.971 60.1535 292.42 59.1861 293.655 59.1358C294.707 59.0928 295.659 59.4895 295.972 60.4599C297.7 65.813 297.981 71.2402 296.06 76.5807C295.83 77.2214 294.324 76.697 293.342 75.2163Z" fill="#8F6544"/>
<path id="Vector_63" d="M271.459 73.0198C271.781 68.1821 270.236 63.8306 273.106 59.8335C275.209 64.3027 276.09 72.0557 274.917 75.3842C274.552 76.4209 273.43 76.9371 272.659 76.3779C271.997 75.8976 271.865 74.6865 271.459 73.0198Z" fill="#8F6544"/>
<path id="Vector_64" d="M295.207 42.4343C289.43 42.2224 284.452 42.2273 279.48 42.0561C278.211 42.0127 276.802 41.5705 276.882 39.7623C276.934 38.5712 277.807 38.0942 278.791 37.964C284.774 37.1715 290.75 37.766 296.589 38.8841C298.164 39.1858 297.931 41.5616 295.207 42.4343Z" fill="#DEB07A"/>
</g>
</svg>
