<svg width="571" height="193" viewBox="0 0 571 193" fill="none" xmlns="http://www.w3.org/2000/svg">
<g id="platine">
<path id="Vector" d="M569.652 37.2513C571.578 42.9557 568.95 47.6372 568.204 52.4703C565.876 67.5352 566.449 82.9869 562.005 98.566C563.758 108.391 561.248 116.99 559.663 125.773C557.013 140.455 553.108 154.895 551.509 169.789C550.846 175.972 550.128 182.452 544.109 187.489C536.709 189.925 531.851 186.955 529.18 181.507C525.121 173.229 518.604 171.892 510.305 171.907C423.393 172.069 336.481 172.043 249.569 172C189.632 171.971 129.696 172.157 68.8351 171.975C62.319 173.131 56.8398 171.898 50.4067 171.242C37.0595 171.879 24.6093 173.483 11.5182 169.659C7.2155 164.102 9.53508 161.096 14.4076 159.284C18.2113 157.87 22.2863 157.967 26.2748 158.074C60.4938 158.992 94.7209 158.901 128.946 158.923C142.892 158.932 156.841 158.218 170.784 158.984C176.162 159.279 179.681 157.264 181.035 151.809C190.559 113.445 202.127 75.63 211.852 37.3232C214.456 27.0645 215.171 16.3029 221.042 6.09095C225.309 2.29782 229.605 2.84519 234.738 3.66241C241.175 7.83309 243.114 13.8298 244.966 20.7174C243.446 37.6223 238.038 53.0868 236.967 69.2975C236.579 75.178 233.107 78.3245 227.288 78.6153C221.21 78.9192 218.143 75.5039 217.29 69.7946C216.506 64.5428 215.666 59.3329 218.397 54.2434C220.908 49.5646 219.937 43.9595 221.586 39.0163C218.827 51.7693 216.357 64.5935 212.87 77.1731C211.029 83.8134 206.289 89.4826 206.016 97.3467C205.211 99.0325 204.441 99.9597 203.788 101.276C203.735 101.56 203.607 101.659 203.674 101.571C203.763 101.08 203.899 100.715 204.491 99.9617C205.529 98.6478 206.097 97.6366 207.57 96.9785C208.627 97.1462 208.91 96.9368 208.766 96.237C208.687 95.8527 208.489 95.671 207.951 95.1457C206.804 87.9557 208.642 83.2161 216.395 83.4977C222.769 83.7293 227.973 90.0956 226.516 96.9528C224.395 106.933 223.328 117.178 219.462 126.784C217.301 132.154 214.393 136.462 208.021 136C201.872 135.554 199.95 130.945 199.182 124.679C196.516 131.953 194.568 138.627 192.949 145.402C190.04 157.574 190.518 158.185 203.526 158.286C214.181 158.368 224.84 158.471 235.492 158.269C255.779 157.885 276.052 159.265 296.353 158.43C302.91 158.16 308.009 156.635 311.881 150.241C313.041 149.678 313.557 149.574 314.759 149.857C320.354 157.547 337.116 161.645 344.452 157.205C347.913 155.11 348.552 151.263 349.318 147.741C351.791 136.367 355.096 125.209 357.902 113.923C359.015 109.451 359.809 104.715 364.858 101.646C370.995 105.081 369.615 110.267 368.541 115.037C366.204 125.416 363.795 135.78 361.488 146.166C359.099 156.919 359.762 157.859 370.365 158.033C412.818 158.727 455.268 159.663 497.727 158.192C504.006 157.974 510.295 159.054 516.628 159.055C524.21 159.057 528.111 155.657 529.585 148.229C537.07 110.503 544.517 72.766 553.37 35.3286C554.568 30.2653 554.741 24.5515 561.214 21.5778C563.784 22.3539 564.523 23.8935 564.991 26.5019C559.463 66.5187 550.34 104.962 541.531 143.472C539.459 152.531 536.796 161.612 539.105 168.38C546.961 124.403 556.234 78.1602 565.314 31.0785C566.19 30.0512 566.662 29.7545 567.923 29.7315C568.756 31.3855 568.799 32.7656 568.73 34.8305C568.845 35.9029 569.071 36.2906 569.652 37.2513Z" fill="#301B14"/>
<path id="Vector_2" d="M237.34 6.62561C232.444 6.01365 228.297 6.00929 223.26 6.02774C216.203 9.35974 209.495 11.4522 210.259 21.2482C210.662 26.4116 205.132 29.8946 199.596 29.5057C193.357 29.0674 190.84 23.6164 191.673 18.7056C193.235 9.49096 188.603 9.57792 181.862 9.62452C144.601 9.88212 107.338 9.67865 70.0761 9.77902C57.092 9.81399 56.9746 9.99408 53.3169 21.9721C50.6929 30.5659 47.7624 39.0568 44.656 48.255C42.7273 51.6758 44.4475 54.0973 44.9695 57.3136C38.4697 64.4498 36.4668 73.0437 33.8865 81.1754C25.4582 107.738 15.6101 133.867 9.14793 161.041C8.75681 162.685 8.56346 164.294 9.1013 166.663C13.7961 174.154 18.0928 180.993 18.1848 190.191C17.6684 191.335 17.3764 191.75 16.3972 192.49C14.0742 192.928 12.7959 192.258 11.2878 190.449C4.54759 180.369 -1.48928 170.829 0.327128 158.566C0.764139 155.616 0.794658 152.659 1.86131 149.774C16.0681 111.348 26.3081 71.6464 39.4028 32.8614C40.2544 30.3393 41.2646 27.8709 42.3347 24.6535C44.5752 18.3153 46.9197 12.7762 48.7192 7.06524C50.3813 1.789 53.4321 -0.128376 59.0337 0.0105856C73.0239 0.357723 87.0295 0.0809288 101.029 0.0716818C132.361 0.0509758 163.693 -0.0660283 195.025 0.0519217C239.012 0.217526 283 0.777645 326.987 0.779827C401.588 0.783505 476.188 0.463328 550.789 0.326198C566.99 0.296413 567.042 0.423458 568.493 16.8231C568.844 20.789 569.078 24.7653 569.039 29.3711C568.359 29.9947 568.005 29.9841 567.12 29.964C565.339 30.058 564.249 29.716 562.944 28.3756C562.505 26.426 562.49 24.8953 562.449 22.5997C558.532 9.87788 549.169 9.75495 538.735 9.83776C493.982 10.193 449.224 10.0013 404.468 9.97023C400.505 9.96748 396.506 10.3659 391.744 9.22395C387.265 8.64088 383.706 9.64396 380.109 9.64996C375.868 9.65701 373.465 11.2255 372.91 15.7878C372.21 21.5469 369.22 25.8529 362.901 25.9921C356.777 26.127 354.728 21.3313 353.232 16.4653C352.361 13.631 351.991 10.5914 347.636 9.48385C315.351 9.73297 283.911 10.25 252.465 9.98997C247.516 9.94905 242.438 10.4523 237.34 6.62561Z" fill="#34150F"/>
<path id="Vector_3" d="M350.037 6.61931C354.392 6.42736 355.397 9.32545 356.144 12.2742C356.63 14.1939 356.446 16.2972 357.023 18.1765C358.051 21.521 359.752 24.6191 364.031 23.557C367.934 22.588 370.482 20.1206 369.982 15.6776C369.836 14.3763 369.18 13.1398 368.94 11.8399C368.244 8.06386 369.903 6.11742 373.72 6.09478C378.045 6.06913 382.37 6.12141 387.598 6.21181C389.244 7.04041 389.764 7.92745 390.121 9.71935C386.472 29.7989 379.151 48.2386 376.545 68.5148C376.701 70.2161 376.657 71.1813 376.328 72.8229C375.138 75.9611 373.117 77.9882 372.862 81.4849C372.203 83.8286 371.577 85.4868 370.939 87.8473C369.787 90.5847 369.318 92.7908 369.058 95.7762C368.293 98.3393 367.331 99.9692 365.112 101.564C360.172 119.396 355.887 136.816 351.422 154.19C349.464 161.806 349.298 161.807 341.355 161.918C335.689 161.996 330.021 161.988 324.355 161.927C314.935 161.827 314.935 161.797 314.52 150.824C315.999 148.561 315.293 146.616 316.158 144.435C318.337 141.554 317.181 138.818 317.643 135.688C318.474 133.987 317.334 135.557 318.137 134.493C318.591 133.891 318.747 133.745 318.268 134.432C317.02 137.263 317.811 139.83 317.1 142.929C315.35 145.036 315.571 146.986 314.938 149.392C308.183 164.217 312.203 161.761 295.931 161.866C263.702 162.074 231.471 161.924 199.24 161.919C196.915 161.918 194.588 161.863 192.263 161.886C187.987 161.929 185.862 159.647 186.74 155.632C189.916 141.114 193.722 126.768 200.007 112.348C204.057 116.583 202.223 121.063 202.49 125.05C202.771 129.226 202.822 133.337 208.364 133.71C212.583 133.995 216.12 130.654 216.387 125.405C216.612 120.968 216.549 116.819 220.815 113.991C221.862 113.297 222.234 111.506 221.291 110.37C217.323 105.588 219.598 102.527 223.207 98.5799C226.434 95.0501 223.461 90.9261 220.805 87.9701C218.318 85.2035 214.674 85.2129 211.582 86.8447C206.98 89.2739 209.436 93.0911 210.415 97.2234C208.924 98.4528 207.319 98.9566 205.102 99.7012C205.311 87.5734 209.775 76.0415 212.983 64.2527C215.68 54.3377 218.481 44.4584 220.786 34.4416C221.146 32.8772 221.485 31.1782 224.612 29.6572C223.363 38.292 223.613 46.6706 220.714 53.7629C217.827 60.8297 220.852 66.7454 221.261 73.041C221.532 77.2135 226.452 76.1009 229.614 75.6141C233.148 75.0699 235.148 72.275 234.173 69.1318C232.581 64.0006 232.56 59.6193 236.012 55.2268C236.831 54.1844 236.662 51.8944 236.198 50.4122C235.203 47.2264 235.192 44.7462 238.298 42.6058C240.358 41.1863 241.499 37.993 240.07 36.4131C234.895 30.6956 241.182 27.5785 242.52 22.6918C246.054 17.5216 250.501 15.8562 255.504 18.7697C259.946 21.3564 259.968 25.9497 258.16 30.0923C255.678 35.7775 261.469 30.5118 262.002 33.1207C262.983 44.0265 262.894 54.4327 254.053 62.8657C248.942 62.8306 248.913 59.9195 249.487 56.6334C248.531 61.1771 247.997 65.5854 253.151 69.0971C256.721 73.7614 254.635 79.4222 259.342 86.1226C264.604 63.02 272.09 42.6096 273.593 20.0267C283.144 16.227 287.437 17.5782 290.123 25.772C291.56 30.1539 293.068 32.8543 298.073 32.3663C303.198 31.8666 303.098 27.6923 303.64 24.3126C304.732 17.5029 306.269 11.6178 315.958 14.4332C323.904 25.3296 324.494 36.3635 316.793 46.6034C311.242 53.9836 308.724 61.4624 310.138 70.4895C310.659 73.8139 308.427 76.8602 308.568 80.2168C308.64 81.9162 308.883 83.7331 310.688 84.3267C313.092 85.1178 314.451 83.3899 315.094 81.4721C316.346 77.7405 318.731 73.2723 318.317 70.3096C317.175 62.1559 321.864 54.8859 320.523 46.2873C320.721 45.1275 320.847 44.6727 321.281 43.583C326.095 37.2495 325.128 30.1617 326.337 23.6538C326.857 20.8606 326.125 17.8411 328.233 14.6083C333.798 10.3121 338.984 7.40588 345.562 12.5521C347.147 21.9528 342.825 29.6766 341.53 38.6918C341.364 40.3122 341.177 41.1818 340.556 41.8579C340.102 42.3529 339.871 42.8211 339.955 43.3462C339.809 42.7945 340.139 42.426 340.832 41.4971C342.232 31.1973 346.993 22.1386 346.59 11.3643C347.16 9.09489 348.194 8.01386 350.037 6.61931Z" fill="#463226"/>
<path id="Vector_4" d="M368.5 88.4963C368.831 86.2231 369.148 84.5617 369.918 82.4472C372.195 79.9746 371.583 76.8469 374.057 74.4405C374.518 73.1101 374.516 72.252 374.512 70.7504C377.076 52.0449 383.388 34.9022 387.51 17.2216C387.962 15.2806 388.548 13.3849 388.506 10.5909C388.51 9.02624 388.51 8.23942 388.505 6.86825C433.926 6.19196 479.351 6.09793 524.777 6.00979C534.393 5.99114 544.01 5.91851 553.625 6.00967C562.182 6.09078 562.265 6.25544 562.443 15.0975C562.476 16.7545 562.432 18.4132 562.423 20.9529C558.959 23.6735 559.02 27.043 558.307 30.3424C549.696 70.2045 540.524 109.942 532.342 149.902C529.685 162.881 532.001 161.927 517.785 161.935C467.861 161.964 417.938 161.941 368.015 161.937C365.686 161.937 363.347 162.046 361.028 161.889C355.061 161.485 354.082 160.324 355.424 154.436C358.594 140.524 361.88 126.638 365.273 112.779C366.073 109.509 367.129 106.375 365.043 102.544C365.01 100.394 365.49 98.7927 366.235 96.6166C367.976 93.9632 367.918 91.4458 368.5 88.4963Z" fill="#463024"/>
<path id="Vector_5" d="M40.6662 52.3148C43.1449 38.001 49.2038 25.2631 52.3629 11.665C53.3817 7.28005 56.3546 5.94188 60.4838 6.00417C65.8065 6.08449 71.1317 6.00974 76.4557 6.01044C113.724 6.01528 150.992 6.02237 188.261 6.02864C191.534 6.02919 194.807 6.02872 200.138 6.02872C193.817 10.5142 194.132 15.5706 194.735 20.4993C195.13 23.731 195.757 27.5349 200.295 27.4187C204.484 27.3115 208.859 21.7262 208.096 17.7339C207.426 14.2257 205.03 11.0722 205.898 6.95935C210.703 5.16643 215.729 6.3599 221.501 6.03983C222.196 8.35408 222.339 10.7348 221.8 12.95C210.288 60.2911 196.184 106.93 183.501 153.954C181.372 161.847 181.294 161.921 172.637 161.926C122.783 161.956 72.9293 161.935 23.0756 161.939C20.4174 161.939 17.7582 161.968 15.1012 162.042C12.3434 162.119 10.8744 163.635 10.4718 167.145C10.0971 168.216 9.79091 168.467 9.04164 168.323C5.14296 163.416 6.42274 158.575 7.56215 153.715C10.0621 143.052 13.171 132.573 16.6762 122.197C23.2543 102.721 29.9498 83.2779 35.9987 63.6369C37.3475 59.2565 39.6784 57.822 43.973 56.5832C43.5971 54.7876 41.9538 54.164 40.6662 52.3148Z" fill="#463024"/>
<path id="Vector_6" d="M8.67306 168.667C8.59836 167.928 9.50216 167.943 9.9526 167.954C23.2871 168.033 36.1714 168.102 50.0127 168.3C53.7009 171.059 49.8586 174.034 51.4062 176.725C54.9519 173.965 58.1587 177.813 61.6325 177.258C63.5266 176.956 65.5022 176.764 68.0239 177.661C77.957 183.912 88.019 183.964 97.9492 180.532C103.611 178.576 108.238 181.629 113.366 181.961C117.339 182.218 121.163 183.371 125.689 181.423C133.923 181.754 141.449 183.041 149.119 182.141C142.223 177.986 135.027 180.974 127.295 180.999C116.061 181.132 105.671 179.594 94.8737 180.599C87.1355 181.318 77.7002 182.904 69.0285 178.27C66.343 176.263 65.4765 174.144 66.1757 170.868C70.0542 166.473 74.6655 168.015 78.8115 168.012C208.427 167.93 338.043 167.943 467.659 167.942C484.985 167.942 502.315 168.143 519.636 167.824C525.106 167.723 528.005 169.404 530.105 174.597C532.327 180.091 533.743 187.507 543.478 185.903C543.813 187.361 543.37 188.842 542.978 190.899C539.04 191.629 535.051 191.919 531.062 191.92C360.182 191.945 189.301 191.944 17.487 191.944C16.1298 183.676 10.0415 177.371 8.67306 168.667Z" fill="#3E2C23"/>
<path id="Vector_7" d="M345.23 14.1696C339.041 9.08549 334.82 15.0408 329.236 15.8563C324.951 17.6344 321.333 15.8532 317.066 16.0891C314.389 16.0571 312.388 15.9579 310.409 16.1262C309.105 16.2371 307.044 17.0107 307.648 18.2572C310.48 24.098 302.115 29.1303 308.057 34.9081C301.88 36.6053 296.911 35.814 292.011 35.913C288.374 35.9865 286.678 34.3619 286.772 30.4388C287.001 20.8724 286.734 20.738 275.477 20.0362C269.849 18.5001 266.518 19.0991 266.512 25.2894C266.509 28.1898 265.647 30.9695 263.098 33.617C256.931 32.6096 257.135 38.4745 253.56 42.4277C253.682 36.6484 254.835 33.0027 255.686 29.2668C257.593 20.8891 255.712 19.1348 246.994 20.825C246.022 21.0135 245.094 21.4269 243.381 21.8813C241.344 16.8927 237.572 12.7639 236.674 6.73208C273.968 6.0216 311.345 6.02517 349.669 6.07525C350.23 7.16325 349.844 8.20475 349.016 9.59953C347.141 11.0956 347.874 13.5628 345.23 14.1696Z" fill="#372A1D"/>
<path id="Vector_8" d="M562.522 28.7877C563.621 28.321 564.722 28.6852 566.206 29.5021C566.827 41.6659 563.641 52.9407 561.836 64.3554C557.803 89.8506 553.043 115.236 548.261 140.605C546.134 151.889 543.237 163.027 540.459 175.246C534.162 168.596 533.661 161.984 535.243 154.9C541.171 128.375 547.125 101.856 553.05 75.3309C556.442 60.1424 560.213 45.0316 562.522 28.7877Z" fill="#463024"/>
<path id="Vector_9" d="M68.5151 177.289C63.6152 179.846 58.6858 185.231 53.896 177.802C53.2651 178.437 52.7348 178.788 52.4573 179.281C50.9656 181.929 50.6943 187.146 46.2121 184.819C42.831 183.063 46.1037 179.505 47.1028 176.913C48.0527 174.448 49.3994 172.136 50.771 169.093C55.7312 167.917 60.4563 167.771 65.7336 170.011C67.4717 172.259 68.6052 174.253 68.5151 177.289Z" fill="#674D3A"/>
<path id="Vector_10" d="M228.239 19.9987C227.957 21.8944 227.141 23.3224 225.893 22.4157C224.159 21.1559 224.175 18.8878 225.871 17.6148C227.107 16.6863 227.939 18.1048 228.239 19.9987Z" fill="#463226"/>
<path id="Vector_11" d="M202.097 104.298C202.499 104.256 202.542 104.572 202.477 104.864C202.251 105.879 202.736 107.9 201.472 107.596C200.119 107.272 201.015 105.643 202.097 104.298Z" fill="#463226"/>
<path id="Vector_12" d="M202.529 103.97C202.882 102.876 203.225 101.773 204.03 100.307C204.491 99.9421 204.521 99.9618 204.535 99.9751C204.173 101.069 203.797 102.149 202.963 103.59C202.505 103.951 202.52 103.961 202.529 103.97Z" fill="#463226"/>
<path id="Vector_13" d="M210.515 97.9665C211.292 98.1569 212.396 97.7148 212.59 99.0413C212.057 98.9171 211.524 98.7928 210.76 98.3089C210.529 97.9491 210.52 97.9603 210.515 97.9665Z" fill="#463226"/>
<path id="Vector_14" d="M39.9084 52.2483C42.4477 51.8844 43.988 52.6456 44.5202 55.4822C41.8898 56.4652 37.9152 58.7397 39.9084 52.2483Z" fill="#A38A73"/>
<path id="Vector_15" d="M262.202 34.5929C262.332 29.7831 264.404 25.8441 263.078 21.3896C262.144 18.2505 264.923 15.8207 267.783 14.7223C271.281 13.3785 273.342 15.3737 274.532 19.3546C275.657 24.575 277.042 29.0046 276.61 33.7459C276.366 36.4213 276.518 39.2744 274.005 40.8981C270.551 43.1296 271.318 45.7438 272.812 48.5861C274.602 51.9943 274.842 54.7955 270.471 56.5205C268.532 57.2854 266.793 59.8678 267.429 61.2317C271.197 69.313 263.241 75.5067 264.353 83.1694C264.927 87.1251 261.705 89.2 258.093 89.4072C253.712 89.6584 252.664 86.4047 252.553 82.7802C252.442 79.1384 252.458 75.4925 252.387 70.9629C250.737 68.0184 250.28 65.778 251.913 62.6447C258.134 57.3115 258.003 50.4339 258.611 44.2082C258.957 40.6565 259.635 37.8035 262.202 34.5929Z" fill="#301B14"/>
<path id="Vector_16" d="M316.425 16.7425C321.087 11.2075 321.087 11.2075 327.918 15.6394C332.637 24.0895 326.597 31.9908 327.898 40.1281C328.198 42.0073 325.975 43.3269 323.229 43.8776C322.577 46.2854 322.624 48.6238 324.212 50.562C326.255 53.0549 326.23 55.3439 323.574 57.3918C322.244 58.4169 320.219 59.9612 320.917 61.2437C324.574 67.9659 318.317 73.663 319.376 80.1408C320.025 84.1091 316.126 88.6893 312.364 89.5656C309.893 90.1414 307.809 89.5627 306.353 87.2557C304.868 84.9023 303.603 81.9087 304.7 79.7111C308.668 71.7552 305.308 62.9767 308.152 54.8457C309.473 51.0689 309.312 47.1428 313.978 45.4681C317.186 44.3169 316.457 41.1064 316.458 38.5472C316.46 35.7498 316.144 33.1353 320.45 34.7112C321.38 35.0512 321.905 32.8407 321.351 32.6595C313.288 30.0217 318.798 22.9244 316.569 18.4276C316.432 18.1508 316.498 17.7732 316.425 16.7425Z" fill="#301B14"/>
<path id="Vector_17" d="M342.557 67.5748C346.866 61.1648 345.781 73.3793 348.875 68.9445C351.459 65.2412 353.523 65.1817 356.259 68.0954C358.847 70.85 358.343 79.9897 354.904 82.236C350.652 85.0137 348.536 87.5881 351.592 92.5146C352.961 94.722 352.219 97.19 350.41 98.9108C346.509 102.621 346.038 106.676 347.944 111.599C349.093 114.563 348.414 117.613 345.144 119.247C341.299 121.167 337.054 118.791 336.731 113.93C336.335 107.986 336.471 101.954 337.02 96.0202C337.292 93.0909 338.594 90.3251 337.295 87.3029C336.276 84.9339 336.604 82.0842 338.747 81.0117C344.879 77.9427 343.064 72.9825 342.557 67.5748Z" fill="#301B14"/>
<path id="Vector_18" d="M289.809 146.119C291.634 147.605 291.513 148.983 290.022 149.448C287.439 150.253 285.392 151.234 283.572 153.56C279.095 159.281 275.044 159.902 270.722 154.72C266.212 149.313 261.634 148.727 255.957 151.669C250.2 154.652 246.878 148.419 240.182 149.198C244.241 144.901 247.774 146.18 250.771 145.8C254.625 145.312 254.023 141.289 255.691 139.46C258.605 139.564 257.954 141.869 258.838 143.028C262.067 147.263 267.778 146.788 269.948 142.09C270.628 140.618 270.553 138.81 271.142 137.279C273.384 131.458 276.39 130.717 280.541 135.188C283.647 138.534 286.336 142.266 289.809 146.119Z" fill="#301B14"/>
<path id="Vector_19" d="M288.533 52.8815C290.587 50.1427 294.305 46.9591 288.891 43.6581C287.642 42.8966 286.874 41.7445 287.926 40.444C288.453 39.7926 289.591 39.3347 290.465 39.3135C296.899 39.158 299.444 41.996 298.283 48.6839C297.156 55.1762 294.659 61.3883 294.263 68.0652C294.093 70.9365 291.87 71.9482 289.35 71.856C286.163 71.7394 282.714 73.0188 279.901 70.4333C279.686 70.236 279.504 69.7676 279.586 69.5176C281.612 63.3848 281.294 56.4058 285.978 51.2645C286.635 50.5432 287.754 51.4802 288.533 52.8815Z" fill="#372A1D"/>
<path id="Vector_20" d="M301.31 125.173C295.723 123.242 289.849 121.854 288.716 114.942C287.643 108.396 289.181 106.549 296.475 105.998C301.65 105.607 301.65 105.607 305.665 102.333C313.552 116.096 312.891 119.942 301.31 125.173Z" fill="#301B14"/>
<path id="Vector_21" d="M253.918 110.454C257.672 118.323 257.706 118.371 250.951 123.092C249.37 124.197 248.817 126.491 246.342 126.789C243.962 125.626 243.618 121.806 239.908 121.717C236.893 121.645 235.636 118.846 234.951 116.269C234.181 113.37 234.33 111.139 238.61 111.61C243.458 112.144 248.412 112.729 253.918 110.454Z" fill="#2B130F"/>
<path id="Vector_22" d="M388.019 10.3817C391.049 12.0455 389.873 14.5138 389.176 17.1214C384.559 34.3887 380.052 51.6854 375.01 69.5396C372.015 67.8493 373.202 65.3841 373.897 62.7806C378.502 45.5202 382.997 28.2306 388.019 10.3817Z" fill="#301B14"/>
<path id="Vector_23" d="M345.164 137.172C342.721 139.928 340.116 140.058 337.421 139.959C334.415 139.849 332.334 138.356 331.577 135.527C330.582 131.812 332.641 129.191 335.417 127.151C337.816 125.389 339.802 126.995 341.615 128.426C344.216 130.48 347.011 132.521 345.164 137.172Z" fill="#916E4E"/>
<path id="Vector_24" d="M330.645 84.5693C329.786 72.6837 333.984 61.6847 337.623 50.542C336.69 62.0797 335.375 73.5371 330.645 84.5693Z" fill="#301B14"/>
<path id="Vector_25" d="M236.879 106.402C235.273 94.806 240.155 85.1807 244.164 75.3009C245.26 85.5755 239.626 94.503 238.569 105.118C238.181 106.218 237.816 106.527 236.879 106.402Z" fill="#372A1D"/>
<path id="Vector_26" d="M325.177 98.9983C326.842 96.1645 325.581 92.9254 329.879 90.4094C328.59 102.099 325.796 112.081 321.658 121.767C319.974 113.944 324.16 107.123 325.177 98.9983Z" fill="#301B14"/>
<path id="Vector_27" d="M252.046 61.4941C252.5 64.139 252.472 66.2959 252.399 69.265C245.188 68.9697 245.165 68.9651 246.383 62.9453C247.522 57.3165 249.159 51.8785 252.523 45.7173C254.974 52.0502 249.113 56.1719 252.046 61.4941Z" fill="#372A1D"/>
<path id="Vector_28" d="M344.567 14.8174C345.599 12.8558 346.617 11.7343 348.104 10.2827C348.366 20.7588 344.889 30.8208 341.032 41.4402C339.861 36.556 341.681 31.4884 342.9 26.3753C343.746 22.8245 344.789 19.3549 344.567 14.8174Z" fill="#301B14"/>
<path id="Vector_29" d="M236.931 106.485C236.68 105.958 237.053 105.95 237.986 105.925C242.836 106.4 247.247 105.178 251.946 107.443C247.489 107.535 242.409 108.844 236.931 106.485Z" fill="#2B130F"/>
<path id="Vector_30" d="M368.028 88.4142C371.482 90.8138 368.775 92.9321 366.981 95.6455C366.666 93.6489 366.199 91.1635 368.028 88.4142Z" fill="#301B14"/>
<path id="Vector_31" d="M373.822 74.1289C374.274 76.7103 373.15 79.0792 370.908 81.5975C370.888 79.2823 369.619 75.933 373.822 74.1289Z" fill="#301B14"/>
<path id="Vector_32" d="M317.026 143.416C316.718 140.984 316.015 137.899 318.017 134.506C318.317 136.937 319.038 140.024 317.026 143.416Z" fill="#301B14"/>
<path id="Vector_33" d="M316.511 143.951C316.458 145.708 316.576 147.506 314.996 149.508C314.51 149.954 314.52 149.96 314.525 149.966C314.58 148.208 314.473 146.413 316.048 144.415C316.534 143.969 316.52 143.959 316.511 143.951Z" fill="#301B14"/>
<path id="Vector_34" d="M318.531 133.971C318.544 133.676 318.499 133.361 318.561 133.069C318.775 132.052 318.295 130.036 319.544 130.331C320.9 130.651 320 132.277 318.923 133.612C318.504 133.95 318.521 133.962 318.531 133.971Z" fill="#301B14"/>
<path id="Vector_35" d="M340.51 41.9493C340.28 42.6964 340.734 43.7914 339.458 44.0182C339.583 43.4921 339.708 42.9659 340.186 42.2059C340.539 41.972 340.52 41.959 340.51 41.9493Z" fill="#301B14"/>
<path id="Vector_36" d="M252.585 107.914C253.239 108.118 253.739 108.502 254.375 109.43C254.613 109.842 254.52 109.949 254.466 109.998C253.82 109.782 253.324 109.394 252.681 108.475C252.437 108.068 252.532 107.961 252.585 107.914Z" fill="#2B130F"/>
<path id="Vector_37" d="M418.02 42.3938C420.409 40.9681 422.093 39.9914 424.135 38.5558C424.978 37.5639 425.485 37.0535 426.452 36.2466C426.886 35.9247 427.654 35.9888 428.04 35.9964C449.199 25.9 470.613 23.2769 492.432 31.8703C512.229 39.6673 516.899 52.7803 507.391 72.7506C506.1 76.0815 504.075 77.7144 501.127 79.465C498.704 80.661 496.765 81.1457 494.707 82.9686C493.724 83.6939 493.308 83.956 492.218 84.5209C482.233 89.7909 472.05 92.149 461.163 94.7719C459.346 94.9176 458.296 94.946 456.435 94.9303C441.862 95.871 428.512 94.3372 416.402 87.2449C401.774 78.6777 397.295 64.6633 405.468 53.1987C408.529 48.9054 412.55 45.3622 418.02 42.3938Z" fill="#50392D"/>
<path id="Vector_38" d="M441.844 137.462C442.463 140.814 442.603 143.815 442.503 146.808C442.25 154.401 441.142 155.552 433.9 155.922C431.907 156.024 429.892 156.066 427.908 155.896C421.12 155.315 419.635 153.127 422.63 146.996C424.522 143.122 425.078 139.549 423.541 135.512C419.64 135.106 420.71 139.623 418.369 140.56C413.506 142.507 411.168 144.573 415.545 149.887C417.88 152.723 415.59 155.487 411.718 155.851C410.725 155.944 409.721 155.916 408.723 155.957C396.289 156.467 395.468 155.337 397.718 143.203C398.927 136.681 399.086 129.923 404.327 124.09C408.854 120.028 413.399 123.947 417.533 122.684C414.054 123.516 410.917 122.116 407.243 120.723C406.966 117.49 408.46 116.077 411.199 116.029C414.158 115.977 417.17 115.626 420.067 116.042C426.221 116.926 432.245 117.139 438.463 116.136C442.88 115.424 447.772 115.16 450.857 119.975C451.964 121.702 453.705 121.116 455.912 120.197C460.401 112.481 467.012 116.444 472.351 116.571C477.135 116.685 475.113 121.517 475.963 126.029C479.671 119.104 484.419 115.562 491.205 114.662C498.354 113.713 501.525 116.247 500.192 123.239C499.389 127.451 497.639 131.475 496.628 135.659C495.621 139.824 494.529 143.939 494.362 148.341C494.128 154.529 492.739 155.513 486.365 155.917C484.049 156.064 481.709 156.058 479.391 155.926C472.478 155.531 471.44 153.824 474.031 147.047C475.093 144.266 476.377 141.57 478.092 138.346C480.397 136.588 482.453 137.176 484.389 136.943C486.263 136.718 488.286 137.678 490.156 136.24C491.321 136.007 489.809 134.534 490.305 135.771C490.501 136.256 490.303 136.479 489.749 136.603C486.494 137.331 483.215 136.849 479.257 136.407C477.426 134.415 476.284 132.85 474.715 130.701C470.606 134.353 469.545 139.947 465.853 143.943C461.87 148.252 458.371 150.469 450.756 149.571C456.53 153.628 461.26 150.502 465.459 153.796C459.915 157.575 454.073 156.474 448.898 155.072C445.347 154.11 446.538 150.068 447.937 147.38C450.625 142.213 451.236 137.031 449.655 131.278C445.41 132.063 447.315 137.25 443.023 137.779C438.967 135.884 435.251 137.546 432.516 136.983C434.917 137.078 438.092 136.804 441.844 137.462Z" fill="#432015"/>
<path id="Vector_39" d="M417.974 41.9561C415.166 47.1245 409.741 50.7249 407.025 56.7083C402.968 65.644 403.72 72.4008 410.831 79.2939C419.925 88.1089 431.655 90.4781 443.629 91.8897C447.238 92.3152 450.932 92.0209 455.489 92.0599C455.978 100.215 447.525 109.128 440.608 108.751C439.143 108.671 437.716 108.068 437.462 106.79C435.406 96.4375 433.043 108.876 431.19 106.839C453.85 108.867 475.958 107.082 495.861 93.8721C499.405 91.5199 503.056 88.8109 508.295 91.3713C503.387 99.0569 495.565 102.58 487.603 105.949C475.221 111.189 461.953 113.125 448.884 113.525C432.921 114.014 417.208 111.006 404.544 98.4437C403.925 97.248 406.599 95.8082 403.135 96.1508C400.634 95.1553 399.072 93.6556 398.554 90.6097C400.92 87.2004 404.073 86.882 407.914 87.3512C406.378 84.4229 403.575 82.383 403.56 78.6471C403.55 78.2636 403.432 77.9597 403.408 78.321C401.813 82.0192 401.029 85.6575 398.988 89.4893C391.962 83.1895 390.148 71.9066 394.262 62.507C398.778 52.1916 407.173 46.136 417.974 41.9561Z" fill="#2B130F"/>
<path id="Vector_40" d="M509.259 91.6238C504.788 91.4055 501.867 93.6928 498.887 95.7981C479.95 109.177 458.536 111.592 436.252 109.668C432.717 109.363 429.259 107.733 425.859 106.464C423.899 105.732 422.212 104.09 423.337 101.883C424.445 99.7114 426.638 99.8787 428.392 101.335C429.38 102.155 430.001 103.417 430.723 104.394C434.106 101.969 430.71 98.8625 432.634 96.75C439.261 97.9215 439.261 97.9215 439.588 106.564C442.236 106.646 441.224 104.199 441.759 103.069C443.398 99.6034 450.002 106.509 449.467 99.1873C449.113 94.3365 455.675 97.3274 456.284 92.7209C457.313 92.0312 458.235 91.9988 459.849 91.9703C463.94 93.6306 464 96.5 463.595 99.9516C463.868 100.266 464.771 100.012 465.15 99.6487C469.955 90.4668 475.57 87.6898 485.034 90.2371C485.335 90.6875 485.733 91.4805 486.171 91.3399C487.779 88.1189 488.926 85.0244 492.065 82.3723C492.519 81.8929 492.532 81.9712 492.493 81.9623C494.077 80.6064 496.269 80.1708 498.148 78.1255C500.212 76.7512 501.897 75.8806 504.01 74.621C507.826 66.7571 513.786 59.9739 510.904 50.0372C511.325 48.8839 511.594 48.4634 512.53 47.7056C520.579 53.5526 520.73 62.2556 520.931 71.3984C520.507 72.0042 520.52 71.9604 520.534 71.9432C519.189 74.8086 517.978 77.7448 516.918 81.4402C516.511 81.9985 516.519 81.9608 516.536 81.9526C514.888 83.3385 514.115 85.3015 512.854 87.6976C511.576 89.2709 510.651 90.3263 509.259 91.6238Z" fill="#412E24"/>
<path id="Vector_41" d="M512.657 113.462C513.893 110.933 512.93 106.693 517.457 108.868C521.104 110.62 522.239 108.359 522.498 105.243C522.799 101.607 523.762 98.2459 526.479 94.1025C528.586 99.353 524.655 103.983 527.877 108.424C532 104.647 530.589 99.3065 531.881 94.9542C532.372 93.3011 530.336 92.1718 528.535 92.1076C525.625 92.0042 522.709 92.0799 519.508 92.0799C523.175 88.3518 531.279 86.5711 534.4 88.7851C537.361 90.8856 536.751 94.1847 536.199 97.0117C533.793 109.331 532.871 121.939 528.948 133.969C527.925 137.106 527.287 140.386 526.691 143.64C525.202 151.765 525.253 151.783 516.856 151.976C514.906 152.021 512.954 151.982 510.405 151.982C512.993 155.422 516.921 152.601 519.348 155.921C515.734 159.181 511.631 158.266 507.8 157.068C505.092 156.221 505.227 153.75 505.774 151.23C507.671 142.505 509.173 133.688 511.285 125.018C512.165 121.406 512.533 117.86 512.657 113.462Z" fill="#301B14"/>
<path id="Vector_42" d="M521.039 71.4115C520.498 71.0196 520.728 69.9587 520.442 69.0626C518.254 62.2023 515.965 55.374 513.075 48.2786C513.205 57.2777 512.435 66.1106 504.957 73.7332C504.307 71.4822 505.363 69.1745 506.605 66.7357C511.616 56.8881 510.318 48.4132 502.362 40.7022C492.476 31.1202 479.947 27.5013 466.748 28.4035C454.301 29.2542 441.602 30.2779 429.184 35.8676C428.776 34.7203 429.019 33.2506 430.364 32.6831C451.663 23.6896 487.11 20.7879 509.363 38.498C519.795 46.8001 524.911 57.2474 521.039 71.4115Z" fill="#2B130F"/>
<path id="Vector_43" d="M431.562 23.6397C430.497 24.4783 429.939 24.9179 429.319 25.0419C426.472 25.6106 423.451 26.8033 421.1 24.014C420.061 22.7826 420.809 21.3415 421.854 20.5777C424.825 18.406 428.026 18.4063 431.029 20.5068C431.661 20.9487 431.719 22.211 431.562 23.6397Z" fill="#A87C53"/>
<path id="Vector_44" d="M404.906 25.1753C401.581 25.9052 398.957 26.148 397.331 23.3056C396.791 22.361 396.955 21.2715 397.869 20.7599C400.639 19.2106 403.594 19.0576 406.198 20.9385C408.109 22.3192 406.825 23.7409 404.906 25.1753Z" fill="#A87C53"/>
<path id="Vector_45" d="M402.824 96.624C402.89 93.5713 404.293 92.0476 407.142 92.1104C409.139 92.1544 411.494 92.0612 411.782 94.671C412.079 97.3698 409.85 97.7056 407.784 97.8527C407.122 97.8998 406.455 97.8678 404.982 97.8582C403.716 97.636 403.33 97.3345 402.824 96.624Z" fill="#412E24"/>
<path id="Vector_46" d="M406.708 120.212C411.242 120.872 415.707 121.5 420.171 122.128C415.725 124.573 411.113 123.781 405.745 123.728C404.913 123.625 404.768 123.071 404.691 122.795C404.937 121.877 405.329 121.28 406.198 120.38C406.606 120.03 406.639 120.179 406.708 120.212Z" fill="#7F5234"/>
<path id="Vector_47" d="M478.557 136.45C482.638 135.857 486.757 135.162 491.243 136.849C487.345 138.986 483.737 137.825 479.444 137.953C478.623 137.857 478.546 136.92 478.557 136.45Z" fill="#916E4E"/>
<path id="Vector_48" d="M517.046 81.5566C516.294 78.5472 517.416 75.5287 520.015 72.3707C520.708 75.3596 519.697 78.4153 517.046 81.5566Z" fill="#2B130F"/>
<path id="Vector_49" d="M513.041 87.8433C512.541 85.8401 512.37 83.3703 515.869 82.0925C516.42 84.2478 515.436 86.0938 513.041 87.8433Z" fill="#2B130F"/>
<path id="Vector_50" d="M406.138 120.319C406.238 120.64 405.87 121.249 405.058 122.189C404.966 121.882 405.318 121.245 406.138 120.319Z" fill="#432015"/>
<path id="Vector_51" d="M426.379 36.1564C426.392 36.452 425.898 36.9792 424.948 37.8017C424.952 37.5273 425.412 36.9576 426.379 36.1564Z" fill="#2B130F"/>
<path id="Vector_52" d="M64.3197 50.5294C65.817 48.2954 66.6363 46.5875 67.8426 44.4556C70.3822 42.3339 73.1312 41.9744 76.0389 40.3779C76.5675 39.9708 76.5108 39.9544 76.5187 39.9826C100.246 25.0087 125.46 22.365 151.377 32.6696C169.559 39.8987 172.719 55.5371 160.338 71.0445C158.685 73.1144 156.668 74.8902 154.887 77.9387C153.793 79.6024 153.035 80.448 151.465 81.6947C127.356 94.6154 103.119 100.097 77.3119 90.3572C70.4427 87.7647 64.2098 83.7927 60.19 77.372C54.9862 69.0592 56.3539 59.68 64.3197 50.5294Z" fill="#50392D"/>
<path id="Vector_53" d="M59.3345 122.207C58.8157 117.933 61.2032 115.902 65.0582 116.05C70.2374 116.25 75.7462 114.332 80.4864 117.941C82.4517 119.437 84.1561 118.88 85.9014 117.652C87.5892 116.465 89.5128 115.78 91.5257 116.006C103.347 117.332 115.245 115.268 126.954 116.406C134.013 117.092 140.7 115.22 147.63 115.854C156.268 116.644 157 117.832 153.858 126.16C151.174 133.274 149.149 140.635 146.823 147.884C145.818 151.014 145.314 154.882 141.417 155.527C136.547 156.334 131.464 156.781 126.676 155.11C124.512 154.355 124.496 151.933 124.99 149.922C125.543 147.672 126.328 145.478 127.056 143.273C128.076 140.182 129.507 137.121 127.032 132.984C124.377 137.344 122.097 141.547 117.743 143.829C117.204 144.112 118.31 145.429 119.917 145.859C119.626 155.448 119.363 155.728 110.828 155.983C109.163 156.032 107.493 156.053 105.83 155.974C98.764 155.639 98.283 154.994 100.114 148.31C101.372 143.717 103.675 139.228 101.489 133.096C98.3421 137.963 97.3531 142.383 96.5135 146.911C94.9678 155.246 94.0885 155.896 85.2918 155.996C84.6253 156.004 83.9473 155.915 83.2943 156.009C74.2711 157.31 72.8282 151.736 75.9202 143.973C77.9349 138.915 77.994 138.939 77.3323 132.488C73.1307 138.216 72.379 144.139 70.5958 149.597C68.6805 155.458 55.086 158.713 50.565 154.362C48.7972 152.66 49.4029 150.785 49.9422 148.823C51.2232 144.16 52.4219 139.475 54.1534 134.415C56.6864 136.317 59.4293 135.886 62.0401 135.962C59.8682 135.852 57.6187 136.232 55.1185 134.506C55.6204 130.351 56.6387 126.632 58.2103 122.464C63.513 122.201 68.2354 123.552 71.5438 123.001C68.6805 124.165 64.3363 121.735 59.3345 122.207Z" fill="#3C1F13"/>
<path id="Vector_54" d="M64.2523 50.0347C63.3297 55.318 60.1424 60.0558 60.3214 66.0788C60.5247 72.9314 62.7825 78.1048 68.5657 82.0428C83.1749 91.9903 99.3062 93.3795 116.161 91.0498C127.776 89.4444 138.499 85.0998 150.239 80.3427C154.244 90.479 151.426 94.8296 142.631 92.9267C136.972 91.7023 135.824 95.7557 133.215 98.3664C129.595 101.989 126.617 107.973 120.939 100.44C118.697 97.4657 116.153 99.523 114.073 101.268C112.278 102.774 111.236 104.967 109.533 106.572C107.145 108.821 104.263 109.449 101.195 108.618C97.0938 107.507 97.2049 104.178 97.9893 100.342C90.6382 108.019 83.1275 107.893 75.4986 100.491C78.1636 103.337 78.2361 103.104 86.4778 105.669C102.381 110.619 117.523 107.351 132.62 102.148C139.139 99.901 145.053 95.4721 153.575 97.236C151.647 102.568 146.664 103.869 142.107 105.77C130.324 110.685 117.772 112.883 105.245 113.679C90.4085 114.621 76.2105 110.913 63.5787 102.592C53.3394 95.8467 48.2911 86.1797 48.534 73.9569C48.7498 63.1058 53.6478 54.9783 64.2523 50.0347Z" fill="#301B14"/>
<path id="Vector_55" d="M178.265 151.212C173.182 154.801 167.809 149.47 162.843 153.163C166.444 154.964 171.111 152.754 173.96 156.377C174.358 157.181 174.09 157.669 173.148 157.728C157.495 158.718 156.838 157.942 160.73 142.851C161.31 140.602 162.411 138.443 162.698 136.17C163.819 127.273 168.035 122.305 177.659 123.546C178.018 123.592 178.497 122.722 179.227 121.958C177.977 119.45 175.468 120.205 173.369 119.94C171.522 119.706 169.329 120.519 167.724 117.685C170.435 114.651 174.543 116.861 177.72 115.44C176.785 112.921 174.629 114.137 173.137 113.964C169.047 113.489 168.215 111.079 169.029 107.641C169.869 104.091 170.824 100.564 171.871 97.0694C172.786 94.0173 172.203 89.9145 176.185 88.7146C180.687 87.3583 185.396 87.5396 189.963 88.635C191.762 89.0665 192.375 90.8511 192.373 92.5837C192.371 94.5625 192.41 96.6145 191.932 98.5083C187.542 115.863 183.043 133.191 178.265 151.212Z" fill="#3A2316"/>
<path id="Vector_56" d="M153.316 78.5102C152.564 75.3548 154.044 73.6085 155.657 71.8904C162.594 64.5013 167.109 56.481 162.833 45.9187C158.527 35.2842 149.012 32.3843 139.292 30.0562C117.561 24.8514 97.4428 30.434 77.2501 39.906C76.6688 37.3119 78.5116 35.996 80.6493 34.8926C83.8524 33.2391 87.0395 31.5549 90.4408 29.7752C88.5504 25.7308 81.8388 31.066 82.0739 24.375C85.9206 21.8939 89.5341 22.1832 93.8263 23.3762C96.3644 27.7153 99.5285 28.0838 103.597 27.3596C124.768 23.591 144.959 25.6078 164.079 36.5776C181.237 46.4215 185.789 65.5063 174.12 81.3892C169.166 88.1311 164.048 94.5447 155.332 97.9561C154.657 98.0964 154.524 97.9606 154.458 97.8925C151.678 88.565 159.575 87.0051 165.217 83.1548C165.841 82.6372 165.964 82.3883 165.832 82.5876C162.948 84.1534 161.046 83.2685 159.221 80.7738C158.963 80.3401 158.341 79.627 157.892 79.4692C156.381 79.2874 155.317 79.3408 153.316 78.5102Z" fill="#301B14"/>
<path id="Vector_57" d="M209.968 32.6629C210.356 34.7909 210.59 36.1306 210.487 37.4439C209.929 44.5372 209.001 45.5013 202.252 45.9226C199.93 46.0676 197.578 46.1327 195.266 45.9328C191.918 45.6434 187.3 47.3446 186.827 41.6392C186.357 35.9554 190.304 30.2353 195.233 30.1355C200.046 30.0381 205.217 28.3834 209.968 32.6629Z" fill="#3A2316"/>
<path id="Vector_58" d="M82.5587 21.8564C78.1165 17.6019 78.5826 15.1367 83.6378 14.2034C89.6361 13.0961 95.2723 14.7769 100.795 16.9322C100.418 20.0581 98.2999 20.9498 95.4339 21.8106C90.9283 21.9166 87.066 21.8969 82.5587 21.8564Z" fill="#301B14"/>
<path id="Vector_59" d="M82.0686 22.3533C85.5752 17.3491 89.6062 16.661 94.4417 21.2698C94.7905 21.8881 94.5559 22.7596 94.5066 23.2074C90.9993 25.3311 87.4612 25.8999 83.1296 24.1749C82.3977 23.5693 82.3108 23.2199 82.0686 22.3533Z" fill="#9C6F48"/>
<path id="Vector_60" d="M58.6985 21.8739C61.0977 17.7018 64.0107 17.4726 67.1211 20.0603C68.2485 20.9984 68.2825 22.5535 67.134 23.5443C64.0579 26.1975 61.1611 26.0207 58.6985 21.8739Z" fill="#AF794F"/>
<path id="Vector_61" d="M75.8616 39.9682C75.1484 42.8047 72.7874 44.0464 68.9592 44.0367C69.8113 41.4379 71.9988 39.8763 75.8616 39.9682Z" fill="#301B14"/>
<path id="Vector_62" d="M120.516 145.957C120.512 145.953 121.004 145.17 121.004 145.17C121.004 145.17 120.978 145.775 120.754 145.871C120.53 145.967 120.52 145.96 120.516 145.957Z" fill="#3C1F13"/>
<path id="Vector_63" d="M127.073 181.538C126.387 184.841 124.576 186.266 122.17 186.78C117.973 187.677 114.531 185.556 110.989 183.7C108.359 182.322 104.511 189.449 102.408 182.584C102.098 181.572 101.088 181.139 100.119 181.852C91.9609 187.849 83.5584 185.972 74.4697 184.06C70.635 183.254 67.7012 184.794 68.5862 178.636C68.5647 177.941 68.5081 177.953 68.5039 177.982C76.6843 178.597 85.0906 172.733 93.1104 178.906C94.2781 179.805 95.6572 179.155 96.7473 178.375C100.578 175.635 104.417 174.858 108.554 177.826C110.619 179.308 112.146 177.161 113.938 176.71C118.145 175.649 122.387 174.795 126.15 179.344C126.868 180.331 127.227 180.668 127.073 181.538Z" fill="#6A5A3D"/>
<path id="Vector_64" d="M127.252 182.322C126.551 181.724 126.54 181.378 126.52 180.512C133.142 177.201 139.413 173.455 147.03 178.387C149.549 180.018 153.03 174.002 156.984 176.94C150.914 187.201 141.362 189.056 127.252 182.322Z" fill="#645848"/>
<path id="Vector_65" d="M267.663 30.3545C267.016 29.4243 267.042 29.1388 267.663 30.3545V30.3545Z" fill="#372A1D"/>
<path id="Vector_66" d="M311.112 62.5289C316.341 63.6062 316.972 66.4919 315.139 71.566C312.316 68.5994 306.843 68.3811 311.112 62.5289Z" fill="#463226"/>
<path id="Vector_67" d="M322.527 43.9555C322.534 43.9505 321.763 43.4967 321.763 43.4967C321.763 43.4967 322.316 43.5448 322.413 43.7593C322.511 43.9739 322.52 43.9604 322.527 43.9555Z" fill="#463226"/>
<path id="Vector_68" d="M485.261 93.9192C484.04 90.5716 481.76 89.2807 478.875 90.3909C475.467 91.7025 470.128 91.721 470.177 96.6964C470.216 100.59 468.385 101.974 465.129 103.681C459.581 105.315 458.181 104.564 458.861 100.948C459.359 98.2955 463.373 96.6193 460.773 92.5801C471.001 89.5923 481.25 86.5541 491.787 82.015C491.769 84.7726 490.95 87.6367 490.292 90.537C489.754 92.906 488.155 93.7094 485.261 93.9192Z" fill="#2B130F"/>
<path id="Vector_69" d="M497.906 77.8104C498.342 80.5196 496.724 81.8807 493.175 81.9474C493.488 79.9311 495.108 78.6243 497.906 77.8104Z" fill="#2B130F"/>
<path id="Vector_70" d="M490.434 148.87C486.543 154.232 481.721 151.159 477.268 151.426C482.277 149.439 489 150.597 490.293 142.691C492.34 145.229 490.982 146.677 490.434 148.87Z" fill="#463024"/>
<path id="Vector_71" d="M427.331 151.51C430.583 148.055 437.101 152.16 439.207 143.873C440.902 149.252 440.077 151.486 436.709 151.856C433.792 152.178 430.808 151.893 427.331 151.51Z" fill="#463024"/>
<path id="Vector_72" d="M438.597 121.907C440.89 121.979 442.465 122.049 444.04 122.12C444.057 122.497 444.074 122.875 444.09 123.252C440.432 123.252 436.774 123.252 432.896 123.252C434.235 121.011 436.285 122.334 438.597 121.907Z" fill="#9B613D"/>
<path id="Vector_73" d="M465.922 137.485C461.84 138.161 458.287 138.569 454.795 136.827C458.657 135.827 462.514 134.833 465.922 137.485Z" fill="#8F7057"/>
<path id="Vector_74" d="M442.459 137.894C437.951 137.817 433.471 137.817 428.99 137.817C433.09 135.261 437.255 135.176 441.917 137.248C442.338 137.901 442.486 137.971 442.459 137.894Z" fill="#83644B"/>
<path id="Vector_75" d="M414.344 137.489C410.61 138.085 407.378 138.828 403.618 136.833C407.87 135.556 411.379 135.055 414.344 137.489Z" fill="#91785F"/>
<path id="Vector_76" d="M409.935 151.439C407.253 151.955 404.953 152.725 402.267 150.835C405.348 149.472 407.846 149.273 409.935 151.439Z" fill="#463024"/>
<path id="Vector_77" d="M451.852 126.259C452.838 126.829 452.791 127.362 452.001 127.537C451.533 127.64 450.968 127.304 450.447 127.166C450.79 126.84 451.133 126.514 451.852 126.259Z" fill="#463024"/>
<path id="Vector_78" d="M456.535 119.95C456.55 119.939 457.33 120.462 457.33 120.462C457.33 120.462 456.72 120.431 456.61 120.21C456.499 119.99 456.52 119.96 456.535 119.95Z" fill="#463024"/>
<path id="Vector_79" d="M398.527 89.9748C398.417 88.6823 398.702 87.1472 398.115 86.1042C395.234 80.9931 398.112 78.7625 402.414 76.5151C406.043 80.1133 409.574 84.2543 413.668 89.054C408.524 90.5033 404.3 89.695 399.33 89.9441C398.49 89.946 398.52 89.9592 398.527 89.9748Z" fill="#412E24"/>
<path id="Vector_80" d="M419.441 96.4534C417.145 96.9519 416.798 95.7772 417.13 94.3177C417.239 93.8443 418.021 93.1402 418.424 93.1848C420.236 93.385 420.24 94.6713 419.441 96.4534Z" fill="#412E24"/>
<path id="Vector_81" d="M402.525 75.957C401.879 75.2304 401.121 74.5747 400.608 73.7646C400.122 73.0005 399.523 71.7765 400.515 71.265C401.578 70.7173 402.062 71.894 402.283 72.8144C402.436 73.4484 402.429 74.1206 402.502 75.3741C402.51 75.9725 402.52 75.9605 402.525 75.957Z" fill="#412E24"/>
<path id="Vector_82" d="M484.511 93.9503C484.278 94.6978 484.757 95.8039 483.463 96.0286C483.584 95.4965 483.704 94.9644 484.181 94.202C484.538 93.9716 484.52 93.9594 484.511 93.9503Z" fill="#2B130F"/>
<path id="Vector_83" d="M512.479 47.9903C512.249 47.7456 512.056 47.4697 511.863 47.1938C512.024 47.2699 512.185 47.3459 512.462 47.6538C512.579 47.8857 512.516 47.959 512.479 47.9903Z" fill="#412E24"/>
<path id="Vector_84" d="M150.439 79.8615C150.623 79.1928 151 78.6863 151.951 78.0654C152.371 77.8361 152.472 77.9244 152.519 77.9724C152.877 78.9348 152.615 79.6651 151.208 80.1175C150.561 79.9993 150.478 79.9089 150.439 79.8615Z" fill="#301B14"/>
<path id="Vector_85" d="M54.5689 134.01C60.0408 133.585 65.5505 135.002 71.6121 132.082C68.1358 139.315 62.7737 140.013 54.8355 134.782C54.6526 134.032 54.5357 133.95 54.5689 134.01Z" fill="#674D3A"/>
<path id="Vector_86" d="M92.4336 147.662C88.6211 154.883 88.2773 154.981 78.9219 151.503C83.7083 149.319 88.8936 150.337 92.4336 147.662Z" fill="#674834"/>
<path id="Vector_87" d="M144.739 137.271C140.596 138.24 137.076 138.642 132.233 136.346C137.736 133.772 141.617 131.896 144.739 137.271Z" fill="#6D4C36"/>
<path id="Vector_88" d="M58.6657 121.982C64.0793 118.944 69.518 123.116 74.9328 121.611C69.5283 124.63 69.5283 124.63 59.2868 122.58C58.7632 122.015 58.6601 121.916 58.6657 121.982Z" fill="#755038"/>
<path id="Vector_89" d="M141.835 148.271C140.195 155.096 135.059 151.394 129.108 151.762C133.826 148.936 137.993 151.054 141.835 148.271Z" fill="#725641"/>
<path id="Vector_90" d="M112.764 135.822C115.071 135.918 116.664 136.01 119.465 136.173C115.017 139.214 111.71 137.991 107.794 137.582C109.383 135.645 110.766 135.91 112.764 135.822Z" fill="#7A604B"/>
<path id="Vector_91" d="M65.677 149.866C63.0632 153.778 58.9358 151.91 54.9243 151.306C57.949 149.09 61.4719 150.209 65.677 149.866Z" fill="#71594A"/>
<path id="Vector_92" d="M112.004 150.645C109.999 152.762 107.542 152.266 104.167 151.17C106.967 149.31 109.32 149.879 112.004 150.645Z" fill="#463024"/>
<path id="Vector_93" d="M66.4192 149.865C66.3552 149.481 66.2949 149.14 66.3616 148.825C66.5903 147.743 66.033 145.629 67.5378 145.968C68.9304 146.282 68.0981 148.116 67.0339 149.638C66.6096 150.023 66.481 149.92 66.4192 149.865Z" fill="#71594A"/>
<path id="Vector_94" d="M142.37 147.823C142.289 146.846 142.326 145.968 142.419 144.433C142.837 143.623 143.198 143.473 144.024 143.679C144.192 145.141 143.894 146.246 143.161 147.733C142.726 148.116 142.487 147.923 142.37 147.823Z" fill="#725641"/>
<path id="Vector_95" d="M144.329 143.722C144.155 143.984 143.82 143.932 142.981 143.827C142.936 143.17 143.432 142.731 144.329 143.722Z" fill="#463024"/>
<path id="Vector_96" d="M137.557 143.025C137.485 143.061 137.63 142.99 137.557 143.025V143.025Z" fill="#463024"/>
<path id="Vector_97" d="M150.357 80.5148C151.163 79.7422 151.668 79.3572 152.32 78.4324C154.746 77.3665 156.926 76.7127 159.838 76.0283C160.474 79.1656 161.04 81.8315 165.797 81.9311C166.373 84.8558 164.694 86.6071 162.361 88.0891C159.07 90.1797 155.997 92.5728 154.513 97.1547C147.628 98.4399 141.86 101.954 135.738 104.37C116.734 111.871 97.6179 112.094 78.4011 105.56C74.4143 104.205 70.2327 102.761 67.2437 98.8445C69.3145 94.611 74.2717 96.0172 76.3489 93.0772C78.6003 94.7156 78.3867 96.4378 78.5029 98.0444C78.7473 101.42 78.939 104.459 83.5679 101.171C87.6406 98.2781 87.8533 103.874 90.4465 104.805C93.4878 102.93 89.3789 99.8345 91.9221 97.6472C95.7991 97.8406 100.005 98.0505 104.166 98.2581C104.356 100.348 102.819 100.689 101.785 101.346C99.9001 102.543 98.4917 103.983 100.266 106.069C102.021 108.133 104.313 108.158 106.47 106.491C108.157 105.188 108.24 102.991 109.187 101.278C111.625 96.8709 115.522 94.4786 120.479 94.273C126.051 94.042 123.04 100.22 126.482 102.767C127.746 98.4495 132.012 96.8411 133.08 92.3603C133.913 88.8666 137.93 88.0322 141.017 87.0646C145.284 85.7274 143.545 90.7103 145.515 91.9071C150.277 89.6159 150.828 85.5822 150.357 80.5148Z" fill="#423026"/>
<path id="Vector_98" d="M58.6143 88.6564C58.8474 87.9165 59.2534 87.9788 59.49 87.8075C62.8323 85.3893 65.9973 85.0708 68.79 88.6072C69.8345 89.9299 69.2502 91.1229 68.0354 91.9039C64.0232 94.4832 60.5842 94.6982 58.6143 88.6564Z" fill="#423026"/>
<path id="Vector_99" d="M58.5202 87.9591C51.5509 84.775 54.8532 80.3683 56.7807 75.6313C60.5455 79.1513 60.068 82.8037 58.6007 87.2776C58.5202 87.9628 58.5202 87.9591 58.5202 87.9591Z" fill="#423026"/>
<path id="Vector_100" d="M166.505 81.9448C166.504 81.6084 166.492 81.2824 166.533 80.9632C166.933 77.8221 166.893 74.4187 170.725 73.1797C170.991 73.0937 171.849 73.8815 171.937 74.3545C172.588 77.8748 169.908 79.4748 167.143 81.6665C166.55 81.9807 166.52 81.9584 166.505 81.9448Z" fill="#423026"/>
<path id="Vector_101" d="M166.977 67.8963C166.738 67.0356 167.067 66.1976 167.397 65.3596C167.924 65.5881 168.754 65.6835 168.924 66.0696C169.462 67.2888 168.495 67.6548 166.977 67.8963Z" fill="#423026"/>
<path id="Vector_102" d="M160.494 75.929C160.471 75.903 161.008 75.1001 161.008 75.1001C161.008 75.1001 161.019 75.7656 160.794 75.8817C160.569 75.9977 160.516 75.955 160.494 75.929Z" fill="#423026"/>
<path id="Vector_103" d="M164.299 70.0822C164.268 71.4991 164.416 70.072 164.299 70.0822V70.0822Z" fill="#423026"/>
<path id="Vector_104" d="M164.478 69.8979C164.699 69.2545 165.088 68.7594 165.999 68.1138C166.408 67.8736 166.506 67.958 166.551 68.0072C166.329 68.6441 165.948 69.1445 165.052 69.8091C164.65 70.0607 164.531 69.9565 164.478 69.8979Z" fill="#423026"/>
<path id="Vector_105" d="M464.531 103.95C463.357 103.717 461.983 103.714 461.65 102.214C461.582 101.909 462.247 101.114 462.588 101.106C463.686 101.078 464.063 101.99 464.41 103.446C464.5 103.983 464.52 103.96 464.531 103.95Z" fill="#412E24"/>
</g>
</svg>
