<svg width="217" height="140" viewBox="0 0 217 140" fill="none" xmlns="http://www.w3.org/2000/svg">
<g id="raquette-pingpong">
<path id="Vector" d="M216.225 138.966C203.472 140.623 191.383 137.994 179.181 137.573C174.044 137.396 176.411 131.084 172.371 130.491C173.198 130.12 174.014 129.721 174.855 129.384C177.619 128.273 177.735 126.294 175.228 125.396C167.348 122.573 160.843 116.608 151.68 116.411C147.39 116.318 142.16 114.068 139.14 111.025C133.81 105.657 127.088 103.32 120.811 99.9677C116.993 97.9289 115.546 95.4062 117.122 91.0948C119.076 85.7462 120.466 84.8424 125.948 86.7089C129.597 87.9514 132.922 90.9806 137.671 87.9665C155.33 94.231 173.043 99.3625 191.249 105.31C193.329 104.599 194.744 104.595 196.886 105.185C199.81 106.478 201.556 108.152 203.696 110.449C207.393 116.374 204.884 121.188 202.368 125.73C198.877 132.034 200.418 134.699 207.601 134.4C210.204 134.292 212.812 134.706 215.681 136.563C216.376 137.495 216.53 137.951 216.225 138.966Z" fill="#6E4C33"/>
<path id="Vector_2" d="M77.5251 0.420848C81.0664 0.834971 83.9204 1.56062 87.5305 2.425C89.9573 3.27229 91.6284 3.98078 93.7297 5.05488C92.4949 5.67945 90.8301 5.93843 88.6565 6.57362C86.7312 9.01857 84.6455 8.52626 81.9128 8.31379C52.6904 4.13636 30.6692 15.1323 12.9548 37.8261C10.3105 40.3751 8.55688 42.8651 4.99829 44.179C3.28027 43.9702 2.42456 43.481 1.27563 42.1672C-0.72339 32.5644 6.41772 28.3943 11.2126 23C14.0181 19.8438 17.4858 17.397 21.8516 15.0609C22.5374 14.8261 22.9949 14.501 23.1799 14.3209C39.5774 3.24189 57.3296 -1.51427 77.5251 0.420848Z" fill="#67371C"/>
<path id="Vector_3" d="M9.10778 38.3583C25.1019 13.6611 47.8365 3.30372 75.9369 3.51356C77.5345 3.52546 79.1261 4.2812 81.4737 5.05256C86.4603 10.0175 87.6876 15.815 88.7584 21.6968C93.4283 47.3431 97.9423 73.0267 106.417 98.6361C106.355 100.237 106.065 101.056 105.614 102.506C101.201 114.971 99.0902 116.842 86.8531 116.896C79.6573 116.928 72.2343 118.857 64.5604 114.963C63.4213 114.206 62.9681 113.9 61.9296 113.027C55.6071 105.858 48.183 102.449 39.9987 105.539C30.285 109.207 24.5804 104.857 19.8527 97.8057C7.83435 79.8821 2.65759 60.5361 9.10778 38.3583Z" fill="#D86E39"/>
<path id="Vector_4" d="M122.071 72.8466C118.206 79.8217 113.4 85.5124 110.568 93.118C104.703 93.3566 104.103 88.797 103.257 85.2211C98.1473 63.6398 93.715 41.9078 89.5157 20.1309C88.8805 16.837 88.8868 13.525 91.4842 9.96564C111.583 16.4633 125.56 28.7686 131.176 49.4039C132.366 53.7725 131.697 57.033 128.422 60.11C124.988 63.3361 122.447 67.183 122.071 72.8466Z" fill="#7D4425"/>
<path id="Vector_5" d="M116.729 115.721C120.307 115.647 122.838 115.16 124.906 115.926C139.486 121.326 153.493 127.961 167.015 135.463C165.782 138.942 163.497 137.756 161.784 137.758C148.15 137.78 134.516 137.724 120.882 137.628C109.737 137.549 107.709 134.888 110.235 123.736C110.447 122.798 111.138 121.968 112.053 119.69C113.267 117.216 114.314 116.487 116.729 115.721Z" fill="#A17D5A"/>
<path id="Vector_6" d="M91.7332 8.97863C91.3948 17.8232 94.2483 25.7118 96.042 33.6977C100.442 53.2853 103.248 73.2274 109.567 93.0519C109.822 95.6115 109.138 97.4197 107.139 99.1315C101.467 99.2538 101.506 94.7088 100.524 91.5305C96.2119 77.5807 92.9592 63.3517 90.2095 49.0137C87.5278 35.0322 84.9221 21.0361 82.2551 6.2304C83.7996 5.84265 85.3723 6.27087 87.5464 6.82452C89.2051 7.4851 90.2625 8.02032 91.7332 8.97863Z" fill="#9B613D"/>
<path id="Vector_7" d="M68.2257 129.972C66.9996 130.778 66.4115 131.241 65.7372 132.285C65.568 133.611 65.2474 134.241 64.2977 135.114C63.2611 135.717 62.7806 136.13 62.2123 137.123C61.5636 137.91 61.1329 138.269 59.995 139.083C46.9847 141.18 45.2924 140.289 39.9491 129.465C36.8627 123.212 34.005 116.905 34.6805 108.854C43.9557 100.318 50.4994 100.937 63.3656 111.159C64.0004 111.636 64.0228 111.519 63.9633 111.525C66.2106 115.608 68.9425 119.479 70.0804 124.877C70.141 126.073 70.1112 126.554 69.8719 127.729C69.3964 128.825 69.1302 129.227 68.2257 129.972Z" fill="#EEB56D"/>
<path id="Vector_8" d="M67.7101 131.224C67.5873 130.315 67.6552 130.391 67.6349 130.437C68.0671 129.86 68.4679 129.206 69.0361 127.988C69.5597 127.24 69.8512 127.016 70.6633 126.702C72.8754 126.774 72.3813 125.265 73.1281 123.809C82.4015 116.581 92.1528 114.946 103.368 119.021C104.006 121.545 104.119 123.547 103.981 125.533C103.222 136.494 102.19 137.486 91.5231 137.553C85.8715 137.588 80.2179 137.475 74.5678 137.565C70.7194 137.626 68.0756 136.429 67.7101 131.224Z" fill="#724D33"/>
<path id="Vector_9" d="M72.6472 128.233C71.9028 127.742 71.4858 127.722 70.4431 127.677C69.3555 127.814 68.8936 127.978 67.9119 127.621C66.0935 122.408 64.7952 117.714 63.7002 112.276C66.3635 112.959 68.3171 114.869 71.8438 114.4C77.648 113.628 83.6045 113.56 89.4697 113.816C95.2942 114.07 99.7407 112.822 101.827 106.767C102.223 105.618 103.42 104.746 104.85 103.442C105.591 103.467 105.729 103.796 105.948 104.654C107.518 108.079 106.937 111.127 106.409 114.748C105.484 116.341 104.838 117.337 104.1 118.941C95.9553 118.663 88.3342 121.972 80.3379 121.996C77.7715 122.004 75.2573 123.56 73.9958 127.154C73.5222 128.17 73.2483 128.438 72.6472 128.233Z" fill="#7D4425"/>
<path id="Vector_10" d="M122.059 73.5618C127.216 71.816 126.603 63.8734 133.557 63.1555C134.349 70.4667 133.025 77.5868 134.741 84.6555C123.153 84.2078 122.577 83.736 122.219 74.4034C122.1 73.6013 122.028 73.5395 122.059 73.5618Z" fill="#9B613D"/>
<path id="Vector_11" d="M106.389 115.981C101.192 112.688 102.879 109.569 105.768 105.784C109.659 108.48 115.563 108.887 117.776 114.905C117.99 115.553 118.071 115.537 118.064 115.495C116.432 116.707 114.672 117.753 112.421 119.167C111.938 119.547 112.019 119.572 112.032 119.533C109.86 119.257 107.305 119.716 106.389 115.981Z" fill="#D86E39"/>
<path id="Vector_12" d="M64.3749 135.193C64.1478 134.784 64.4232 134.11 65.1747 133.151C65.3929 133.553 65.1349 134.241 64.3749 135.193Z" fill="#7D4425"/>
<path id="Vector_13" d="M114.118 103.739C114.005 103.544 114.779 103.96 114.779 103.96C114.779 103.96 114.231 103.933 114.118 103.739Z" fill="#6E4C33"/>
<path id="Vector_14" d="M114.027 103.519C114.036 103.513 113.282 103.06 113.282 103.06C113.282 103.06 113.83 103.113 113.918 103.329C114.005 103.544 114.018 103.526 114.027 103.519Z" fill="#6E4C33"/>
<path id="Vector_15" d="M63.7253 110.992C61.3144 112.101 59.8069 110.018 57.9685 108.755C51.4792 104.298 44.781 102.835 37.0007 107.384C35.2204 110.122 33.8393 112.273 30.1819 112.744C10.7478 100.553 -0.0564194 83.9082 0.000221583 60.3141C1.35667 54.7279 2.72166 49.9032 4.20432 44.3239C5.69602 41.7943 7.0698 40.0193 8.88499 37.914C9.51365 45.8793 9.6616 54.176 9.89744 62.4704C10.3252 77.5065 17.8313 89.5918 26.3337 101.184C28.9292 104.723 32.072 105.591 36.7202 103.637C46.999 99.3175 56.1892 101.54 63.7253 110.992Z" fill="#7D4425"/>
<path id="Vector_16" d="M29.4328 111.892C31.8012 110.44 33.5119 109.267 35.8281 107.94C37.8312 115.882 40.9299 123.315 44.3583 130.771C46.5815 135.604 48.8239 138.469 54.3913 137.585C55.6606 137.384 57.0029 137.642 59.1545 137.81C50.3371 141.432 40.9877 139.015 31.0676 136.022C27.7443 128.992 23.4958 122.555 28.3322 114.34C28.6008 113.109 28.6882 112.641 29.4328 111.892Z" fill="#9A7041"/>
<path id="Vector_17" d="M112.6 119.545C112.493 116.972 114.45 115.976 117.381 115.385C117.337 117.845 115.38 118.788 112.6 119.545Z" fill="#542715"/>
<path id="Vector_18" d="M67.2673 127.959C67.7908 127.22 68.1897 127.338 69.2031 127.554C69.3359 128.279 68.8542 128.908 67.9934 130.01C67.4575 129.927 67.3003 129.371 67.2673 127.959Z" fill="#542715"/>
<path id="Vector_19" d="M72.2886 128.171C72.3201 127.761 73.0642 127.786 73.4299 127.844C73.6135 128.5 73.6045 129.308 73.2026 129.639C72.7583 130.003 72.2707 129.441 72.2886 128.171Z" fill="#542715"/>
</g>
</svg>
