<svg width="214" height="62" viewBox="0 0 214 62" fill="none" xmlns="http://www.w3.org/2000/svg">
<g id="telephone">
<path id="contact" d="M152.385 3.6003C171.157 9.64551 190.062 10.4945 210 16.5881C198.855 20.8724 189.167 22.0817 179.812 24.6826C146.782 33.8654 113.148 39.9394 78.9671 47.5667C71.8759 53.4546 65.2521 48.5389 59.1176 47.7325C47.0626 46.1481 35.6055 41.0502 23.667 38.3503C20.7695 37.6949 16.9351 36.303 17.0008 32.2776C17.0652 28.3367 20.4709 27.6763 23.7054 26.6353C64.4773 13.5109 107.239 12.4512 148.518 2.4747C149.519 2.2329 150.56 2.84635 152.385 3.6003Z" fill="#489C9C"/>
<path id="Vector" d="M65.4447 52.2066C69.4716 50.6499 70.2992 45.4366 75.5739 45.8523C92.3002 43.8352 108.026 39.5746 123.938 36.3931C147.992 31.5838 171.866 25.8714 195.815 20.5342C199.06 19.811 202.307 19.1924 206.147 19.7791C206.015 23.2414 202.689 23.1174 200.502 24.9862C201.21 25.5907 203.126 25.511 202.235 27.3476C201.32 29.2347 198.898 29.2763 197.067 30.0201C187.421 33.9389 177.148 35.2427 167.019 36.9477C154.902 38.9871 143.294 43.3315 130.323 44.9626C128.539 45.3846 127.864 44.8416 127.88 43.1735C130.15 39.5647 133.976 41.3106 136.935 38.8999C154.137 35.7745 170.475 32.0624 185.294 28.8813C188.069 27.9019 186.242 26.3483 186.924 27.4936C187.177 27.9168 187.051 28.2627 186.513 28.3938C170.169 32.3819 153.683 35.686 136.476 39.0751C128.077 40.2013 121.997 48.448 112.513 44.8814C100.027 47.0787 88.1852 48.5678 76.3971 52.8577C70.1969 55.5729 64.2502 56.1695 58.1515 55.0553C57.9799 55.024 57.7553 54.5854 57.7782 54.3592C57.808 54.0664 58.0622 53.7967 58.726 53.2085C60.9504 51.4919 62.9098 52.5536 65.4447 52.2066Z" fill="#BF845B"/>
<path id="Vector_2" d="M128.516 43.3212C123.75 42.9929 120.114 45.5788 115.313 45.5881C114.107 45.5406 113.642 45.5193 112.488 45.3736C119.028 42.1496 126.68 40.6631 135.185 39.3721C134.458 42.0757 131.158 41.3323 128.516 43.3212Z" fill="#7D4425"/>
<path id="Vector_3" d="M136 39.4188C143.424 34.4903 152.276 34.4565 160.522 32.4774C170.063 30.1879 179.714 28.1085 189.633 28.0331C172.837 34.2773 155.363 37.3212 136.851 39.4676C136 39.4261 136 39.4212 136 39.4188Z" fill="#7D4425"/>
<path id="Vector_4" d="M200.045 25.439C199.797 25.613 199.598 25.9202 199.328 26.0058C198.469 26.2785 197.587 26.4888 196.701 26.6552C196.625 26.6696 196.454 26.1818 196.327 25.9273C197.253 25.847 198.178 25.7665 199.614 25.6021C200.125 25.5182 200.063 25.471 200.045 25.439Z" fill="#542715"/>
<line id="Line 1" x1="66.6944" y1="52.4728" x2="205.052" y2="21.7268" stroke="black" stroke-width="15" stroke-linecap="round"/>
<line id="Line 2" x1="9.25259" y1="36.2357" x2="65.8145" y2="52.1686" stroke="black" stroke-width="15" stroke-linecap="round"/>
<line id="Line 3" x1="140.968" y1="2.50052" x2="206.079" y2="16.4529" stroke="black" stroke-width="5" stroke-linecap="round"/>
<line id="Line 4" x1="7.91187" y1="31.4472" x2="141.026" y2="2.50934" stroke="black" stroke-width="5" stroke-linecap="round"/>
<line id="Line 5" x1="98.8738" y1="45.4231" x2="107.002" y2="43.5474" stroke="#3B3B3B" stroke-width="5" stroke-linecap="round"/>
</g>
</svg>
