<svg width="232" height="141" viewBox="0 0 232 141" fill="none" xmlns="http://www.w3.org/2000/svg">
<g id="tiroir">
<path id="Vector" d="M232.369 2.40748C233.103 23.069 233.103 43.1108 233.103 64.09C230.87 67.3334 228.072 67.7736 224.968 68.0748C182.289 72.22 139.532 74.0045 96.6495 73.093C81.0797 72.7621 65.8912 69.413 53.2955 68.437C94.6202 75.8384 139.1 73.2985 183.496 71.7544C196.353 71.3071 209.048 67.6495 222.077 68.0365C225.356 68.1339 228.788 67.4817 232.382 70.4182C233.103 92.4024 233.103 113.777 233.103 136.09C227.9 142.483 221.172 140.166 215.108 140.204C176.061 140.452 137.011 140.056 97.9654 140.262C74.8121 140.384 51.6588 139.984 28.5084 140.385C23.8375 140.466 19.2105 140.614 14.4259 137.152C9.90829 124.438 12.5445 112.009 11.7657 99.8305C10.9327 86.7927 9.17587 74.1531 5.55234 61.7798C3.28134 54.0256 1.3414 46.3538 2.16122 38.3024C3.08554 29.231 -0.169343 20.584 0.00692652 11.5684C0.161224 3.66846 3.43417 -0.00597371 11.4303 7.28944e-06C82.631 0.0531083 153.831 0.00818582 225.032 0.0443188C227.394 0.0455398 229.693 0.22303 232.369 2.40748Z" fill="#8A694A"/>
<path id="Vector_2" d="M233.103 70.2773C218.796 70.849 204.501 70.5038 190.519 74.6018C187.732 75.4186 184.561 75.0179 181.567 75.0196C151.574 75.0378 121.577 75.302 91.5898 74.8897C78.0972 74.7043 64.7568 72.3114 50.189 69.2926C54.1821 66.0429 57.5293 66.7267 60.2905 67.237C92.6499 73.2178 125.324 70.5945 157.876 70.8789C166.126 70.9511 174.422 69.7067 182.641 68.638C198.783 66.5389 214.928 64.6944 232.174 65.0448C233.103 66.5273 233.103 68.0273 233.103 70.2773Z" fill="#755038"/>
<path id="Vector_3" d="M79.4137 81.3574C92.9064 83.4679 105.603 83.1848 118.615 81.5747C130.997 80.0426 143.717 81.245 156.366 82.3944C151.266 82.899 146.17 83.4464 141.065 83.9008C122.619 85.5431 104.183 88.2093 85.6598 84.8227C83.3917 84.408 81.1901 83.6246 78.9655 82.9857C78.6701 82.9009 78.3917 82.6915 78.1554 82.483C77.5412 81.9418 77.7565 81.5598 79.4137 81.3574Z" fill="#553222"/>
<path id="Vector_4" d="M186.572 41.1159C193.04 41.6551 198.347 43.8195 204.069 43.2429C195.052 46.1118 144.604 42.6115 134.014 38.3925C152.101 38.258 168.852 40.3615 186.572 41.1159Z" fill="#5B3824"/>
</g>
</svg>
